<?xml version="1.0" standalone="no"?>
<!DOCTYPE svg PUBLIC "-//W3C//DTD SVG 1.1//EN" "http://www.w3.org/Graphics/SVG/1.1/DTD/svg11.dtd" >
<svg>
<metadata>
Created by FontForge 20090622 at Fri Aug 23 06:54:40 2019
 By deploy user
Copyright 2018 The Inter UI project authors
</metadata>
<defs>
<font id="InterUI-Medium" horiz-adv-x="0" >
  <font-face 
    font-family="Inter UI Medium"
    font-weight="500"
    font-stretch="normal"
    units-per-em="2816"
    panose-1="2 11 6 2 3 0 0 0 0 4"
    ascent="2252"
    descent="-564"
    x-height="1536"
    cap-height="2048"
    bbox="-2064 -1076 3884 2973"
    underline-thickness="170"
    underline-position="-337"
    unicode-range="U+0002-U+1F16B"
  />
<missing-glyph horiz-adv-x="2815" 
d="M256 2176v512h2304v-512h-2304zM256 1472v512h2304v-512h-2304zM256 768v512h2304v-512h-2304zM256 64v512h2304v-512h-2304zM256 -640v512h2304v-512h-2304z" />
    <glyph glyph-name=".notdef" horiz-adv-x="2815" 
d="M256 2176v512h2304v-512h-2304zM256 1472v512h2304v-512h-2304zM256 768v512h2304v-512h-2304zM256 64v512h2304v-512h-2304zM256 -640v512h2304v-512h-2304z" />
    <glyph glyph-name=".null" 
 />
    <glyph glyph-name="nonmarkingreturn" horiz-adv-x="938" 
 />
    <glyph glyph-name="controlSOT" 
 />
    <glyph glyph-name="controlHT" unicode="&#x9;" horiz-adv-x="778" 
 />
    <glyph glyph-name="CR" unicode="&#xd;" horiz-adv-x="778" 
 />
    <glyph glyph-name="space" unicode=" " horiz-adv-x="784" 
 />
    <glyph glyph-name="exclam" unicode="!" horiz-adv-x="789" 
d="M564 2048l-32 -1453h-273l-31 1453h336zM395 -29q-90 0 -149.5 58.5t-59.5 145.5q0 88 59.5 148t149.5 60q88 0 148.5 -60.5t60.5 -147.5q0 -86 -60.5 -145t-148.5 -59z" />
    <glyph glyph-name="quotedbl" unicode="&#x22;" horiz-adv-x="1197" 
d="M445 2048v-732h-251v732h251zM957 2048v-732h-251v732h251z" />
    <glyph glyph-name="numbersign" unicode="#" horiz-adv-x="1813" 
d="M360 0l81 567h-305l19 216h317l67 465h-307l19 222h320l81 564h224l-81 -564h361l81 564h224l-82 -564h301l-19 -222h-314l-67 -465h304l-19 -216h-317l-82 -567h-222l82 567h-361l-82 -567h-223zM696 783h361l67 465h-361z" />
    <glyph glyph-name="dollar" unicode="$" horiz-adv-x="1816" 
d="M805 -256l3 226q-296 20 -481 179t-197 423h318q10 -142 109 -225.5t254 -100.5l9 676l-89 26q-543 159 -543 555q0 158 84 284.5t230.5 200t331.5 86.5l3 230h198l-3 -236q257 -32 415.5 -187.5t167.5 -386.5h-304q-16 119 -89 194.5t-193 100.5l-8 -632l26 -8
q298 -88 442.5 -226.5t144.5 -357.5q0 -243 -167.5 -403.5t-460.5 -189.5l-3 -228h-198zM495 1507q0 -101 80.5 -169t247.5 -123l8 583q-153 -16 -244.5 -95t-91.5 -196zM1328 564q0 106 -72.5 173t-238.5 125l-8 -610q147 26 233 110t86 202z" />
    <glyph glyph-name="percent" unicode="%" horiz-adv-x="2303" 
d="M228 1556v108q0 118 47.5 214.5t143.5 155.5t225 59q130 0 225.5 -59.5t141 -155t45.5 -214.5v-108q0 -183 -110 -305t-302 -122q-131 0 -227 58.5t-142.5 154t-46.5 214.5zM1990 2065l-1429 -2082h-272l1430 2082h271zM464 1664v-108q0 -96 43.5 -159.5t136.5 -63.5
q91 0 133.5 63.5t42.5 159.5v108q0 62 -15 110t-56 81.5t-105 33.5q-92 0 -136 -65t-44 -160zM1248 384v108q0 118 47.5 214.5t143.5 155.5t225 59q130 0 225.5 -59.5t141 -155t45.5 -214.5v-108q0 -183 -110 -306t-302 -123q-131 0 -227 59.5t-142.5 155t-46.5 214.5z
M1484 492v-108q0 -96 43.5 -159.5t136.5 -63.5q91 0 133.5 63.5t42.5 159.5v108q0 62 -15 110t-56 81.5t-105 33.5q-92 0 -136 -65t-44 -160z" />
    <glyph glyph-name="ampersand" unicode="&#x26;" horiz-adv-x="1873" 
d="M1439 0l-126 150q-216 -178 -527 -178q-299 0 -475.5 160t-176.5 415q0 88 27 164.5t82.5 144t119.5 122.5t159 121q-110 139 -165 246t-55 214q0 238 141 375t381 137q111 0 205.5 -36.5t157.5 -98t98.5 -143t35.5 -171.5q0 -138 -69.5 -248t-200.5 -207l-141 -104
l405 -487q83 163 83 360h274q0 -360 -171 -585l291 -351h-353zM588 1566q0 -63 41 -136t119 -170l123 87q90 59 131.5 119.5t41.5 144.5q0 76 -63 139.5t-158 63.5q-104 0 -169.5 -72.5t-65.5 -175.5zM439 556q0 -136 99 -231t257 -95q187 0 344 128l-452 541l-58 -43
q-103 -80 -146.5 -159.5t-43.5 -140.5z" />
    <glyph glyph-name="quotesingle" unicode="'" horiz-adv-x="598" 
d="M423 2048v-732h-251v732h251z" />
    <glyph glyph-name="parenleft" unicode="(" horiz-adv-x="974" 
d="M880 -384h-276q-163 230 -261.5 551.5t-98.5 664.5q0 346 101.5 667t272.5 549h266q-179 -305 -259.5 -593.5t-80.5 -622.5q0 -324 80.5 -618.5t255.5 -597.5z" />
    <glyph glyph-name="parenright" unicode=")" horiz-adv-x="974" 
d="M73 -384q175 303 255.5 597.5t80.5 618.5q0 334 -80.5 622.5t-259.5 593.5h266q171 -228 272.5 -549t101.5 -667q0 -343 -98.5 -664.5t-261.5 -551.5h-276z" />
    <glyph glyph-name="asterisk" unicode="*" horiz-adv-x="1470" 
d="M278 1003l273 365l-426 132l73 227l428 -153l-11 460h245l-12 -463l424 151l75 -227l-431 -132l271 -362l-194 -139l-261 374l-260 -370z" />
    <glyph glyph-name="plus" unicode="+" horiz-adv-x="1731" 
d="M1506 1028v-264h-508v-508h-265v508h-507v264h507v508h265v-508h508z" />
    <glyph glyph-name="comma" unicode="," horiz-adv-x="784" 
d="M567 285v-221q-2 -139 -58 -275t-151 -253l-208 63q47 106 66 152t40.5 133.5t21.5 167.5v233h289z" />
    <glyph glyph-name="hyphen" unicode="-" horiz-adv-x="1301" 
d="M1119 1001v-255h-937v255h937z" />
    <glyph glyph-name="period" unicode="." horiz-adv-x="784" 
d="M392 -20q-84 0 -143 59t-59 144q0 83 59.5 141t142.5 58t142.5 -58.5t59.5 -140.5q0 -85 -59 -144t-143 -59z" />
    <glyph glyph-name="slash" unicode="/" horiz-adv-x="1086" 
d="M982 2048l-596 -2356h-285l596 2356h285z" />
    <glyph glyph-name="zero" unicode="0" horiz-adv-x="1690" 
d="M1543 1160v-242q0 -451 -182 -698.5t-510 -247.5q-331 0 -517.5 248t-186.5 698v242q0 440 185 678t516 238q329 0 512 -237.5t183 -678.5zM1230 869v341q0 277 -99 436.5t-283 159.5q-187 0 -287.5 -160t-100.5 -436v-341q0 -186 44.5 -326.5t133.5 -220t213 -79.5
q121 0 207.5 80t129 219.5t42.5 326.5z" />
    <glyph glyph-name="one" unicode="1" horiz-adv-x="1307" 
d="M909 2048v-2048h-295v1616h-16q-29 -53 -145.5 -98.5t-276.5 -45.5v259q80 0 150.5 22.5t116 54.5t84 74t57.5 74.5t34 61.5t16 30h275z" />
    <glyph glyph-name="two" unicode="2" horiz-adv-x="1685" 
d="M1528 272v-272h-1387v230l702 716q179 183 253 300t74 230q0 144 -95 244.5t-252 100.5q-86 0 -151.5 -34t-103.5 -94t-56.5 -133t-18.5 -158h-308q0 105 24.5 203t77 184t127 149.5t182 100.5t235.5 37q284 0 463.5 -165t179.5 -424q0 -174 -109 -351t-309 -382
l-458 -470v-12h930z" />
    <glyph glyph-name="three" unicode="3" horiz-adv-x="1685" 
d="M657 895v277h149q168 0 263 95t95 239q0 145 -91.5 233.5t-243.5 88.5q-142 0 -233 -82t-91 -211h-303q0 238 171 389.5t454 151.5q142 0 259.5 -37t203.5 -107.5t133.5 -179t47.5 -245.5q0 -84 -32 -169t-104.5 -165.5t-173.5 -129.5q92 -31 161 -83t109.5 -117
t60 -135.5t19.5 -148.5q0 -136 -54 -248t-148 -185.5t-219 -113.5t-269 -40q-133 0 -248.5 35t-203.5 102.5t-138.5 174.5t-50.5 242h316q0 -135 88 -215t240 -80q163 0 266 87.5t103 242.5q0 167 -104 250.5t-283 83.5h-149z" />
    <glyph glyph-name="four" unicode="4" horiz-adv-x="1704" 
d="M1604 662v-273h-288v-389h-281v389h-932v205l889 1454h324v-1386h288zM459 662h576v999l-43 -102z" />
    <glyph glyph-name="five" unicode="5" horiz-adv-x="1685" 
d="M475 938l-274 63l120 1047h1105v-283h-837l-73 -571h11q53 48 144.5 83.5t195.5 35.5q286 0 464 -182.5t178 -480.5q0 -144 -45.5 -267t-131.5 -215t-219 -144t-298 -52q-275 0 -449 151.5t-192 426.5h305q24 -150 112 -234.5t234 -84.5q165 0 274 117.5t109 300.5
q0 102 -30.5 181.5t-84.5 128.5t-123 74t-150 25q-211 0 -345 -120z" />
    <glyph glyph-name="six" unicode="6" horiz-adv-x="1681" 
d="M1167 1526q-19 60 -40.5 104.5t-58.5 89t-93.5 68t-130.5 23.5q-65 0 -119.5 -19t-105.5 -67t-87 -123.5t-60 -196t-29 -278.5q79 89 191 135t240 46q141 0 259.5 -55t196 -147.5t120.5 -212.5t43 -251q0 -136 -45.5 -257t-128 -213t-209 -146t-279.5 -54
q-332 0 -510 250.5t-178 721.5v72q0 1065 696 1065q257 0 415 -143.5t212 -411.5h-299zM838 1045q-171 0 -276.5 -105.5t-105.5 -270.5q1 -210 110 -322.5t270 -112.5t257.5 110.5t96.5 297.5q0 114 -35.5 202.5t-116.5 144.5t-200 56z" />
    <glyph glyph-name="seven" unicode="7" horiz-adv-x="1598" 
d="M1460 2048v-253l-790 -1795h-334l800 1767h-997v281h1321z" />
    <glyph glyph-name="eight" unicode="8" horiz-adv-x="1677" 
d="M1501 575q0 -183 -87.5 -321.5t-236 -210t-334.5 -71.5q-141 0 -262.5 41.5t-211 117.5t-141 190.5t-51.5 253.5q0 173 81.5 302.5t225.5 200.5q-124 66 -192.5 180.5t-68.5 271.5q0 174 81.5 299t219.5 186t317 61q180 0 317 -61t217 -186t80 -299q0 -157 -69 -271.5
t-193 -180.5q145 -72 226.5 -201.5t81.5 -301.5zM1156 1517q0 132 -92 214.5t-228 82.5q-131 0 -222 -79.5t-91 -214.5q0 -138 93.5 -226.5t226.5 -88.5q131 0 222 88t91 224zM1193 586q0 154 -104.5 260t-252.5 106q-147 0 -250.5 -105.5t-103.5 -257.5
q0 -151 104.5 -254.5t256.5 -103.5q150 0 250 102.5t100 252.5z" />
    <glyph glyph-name="nine" unicode="9" horiz-adv-x="1681" 
d="M493 522q19 -60 40.5 -104.5t58.5 -89t93.5 -68t130.5 -23.5q65 0 119.5 19t105.5 67t87 123.5t60 196t29 278.5q-79 -89 -191 -135t-240 -46q-141 0 -259.5 55t-196 147.5t-120.5 212.5t-43 251q0 136 45.5 257t128 213t209 146t279.5 54q332 0 510 -250.5t178 -721.5
v-72q0 -1065 -696 -1065q-257 0 -415 143.5t-212 411.5h299zM470 1406q0 -114 35.5 -202.5t116.5 -144.5t200 -56q171 0 276.5 105.5t105.5 270.5q-1 210 -110 322.5t-270 112.5t-257.5 -110.5t-96.5 -297.5z" />
    <glyph glyph-name="colon" unicode=":" horiz-adv-x="784" 
d="M392 1085q-84 0 -143 59t-59 144q0 83 59.5 141t142.5 58t142.5 -58.5t59.5 -140.5q0 -84 -59 -143.5t-143 -59.5zM392 -20q-84 0 -143 59t-59 144q0 83 59.5 141t142.5 58t142.5 -58.5t59.5 -140.5q0 -85 -59 -144t-143 -59z" />
    <glyph glyph-name="semicolon" unicode=";" horiz-adv-x="784" 
d="M392 1102q-84 0 -143 59t-59 144q0 83 59.5 141t142.5 58t142.5 -58.5t59.5 -140.5q0 -85 -59 -144t-143 -59zM567 285v-221q-2 -139 -58 -275t-151 -253l-208 63q47 106 66 152t40.5 133.5t21.5 167.5v233h289z" />
    <glyph glyph-name="less" unicode="&#x3c;" horiz-adv-x="1301" 
d="M1115 356l-191 -181l-801 721l801 721l191 -181l-600 -536v-8z" />
    <glyph glyph-name="equal" unicode="=" horiz-adv-x="1731" 
d="M290 1317h1152v-262h-1152v262zM290 737h1152v-262h-1152v262z" />
    <glyph glyph-name="greater" unicode="&#x3e;" horiz-adv-x="1301" 
d="M165 356l600 536v8l-600 536l191 181l801 -721l-801 -721z" />
    <glyph glyph-name="question" unicode="?" horiz-adv-x="1535" 
d="M903 595h-285q0 129 26 232t67.5 169t92 120.5t100.5 97.5t91.5 87t67.5 103t26 131q0 134 -74.5 209t-202.5 75q-56 0 -105 -17t-89 -51.5t-64 -93t-25 -135.5h-313q0 133 46 239t127 174.5t189 104.5t234 36q272 0 427 -147.5t155 -395.5q0 -97 -27 -176t-70 -134
t-95 -104.5l-104 -99.5t-95.5 -106t-71 -137.5t-28.5 -180.5zM763 -27q-90 0 -150 59t-60 146q0 88 60 147.5t150 59.5q87 0 147.5 -60t60.5 -147t-60.5 -146t-147.5 -59z" />
    <glyph glyph-name="at" unicode="@" horiz-adv-x="2704" 
d="M1401 1998q224 0 416 -59.5t330.5 -164t237 -245t146.5 -304.5t48 -341q0 -101 -6 -188.5t-21.5 -177.5t-40.5 -163t-65 -138t-92 -108.5t-124.5 -69t-160.5 -25.5q-50 0 -94.5 5.5t-91.5 21t-82 40t-61 65.5t-33 94h-12q-39 -95 -155.5 -158t-267.5 -56
q-257 14 -400.5 203.5t-143.5 506.5q0 142 43.5 263t118 203t169.5 133t202 64q148 18 268.5 -26.5t144.5 -114.5h12v112h249v-950q0 -74 39 -118.5t106 -44.5q131 0 186 146.5t55 484.5q0 191 -59.5 349.5t-174 275t-293 181t-405.5 64.5q-302 0 -523 -129t-336 -363.5
t-115 -549.5q0 -499 262 -765.5t760 -266.5q142 0 287.5 33.5t244.5 69.5l73 -224q-95 -46 -275 -84t-338 -38q-623 0 -954 331.5t-331 951.5q0 289 86.5 526t246.5 402.5t396 255.5t528 90zM1324 1154q-154 0 -245.5 -116.5t-91.5 -289.5q0 -79 10 -146t34 -127t61 -102
t94 -66.5t130 -24.5q190 0 280.5 115t90.5 351q0 226 -91 317t-272 89z" />
    <glyph glyph-name="A" unicode="A" horiz-adv-x="1988" 
d="M411 0h-336l753 2048h333l753 -2048h-337l-172 496h-822zM982 1642l-305 -878h634l-305 878h-24z" />
    <glyph glyph-name="B" unicode="B" horiz-adv-x="1817" 
d="M987 0h-772v2048h732q164 0 292.5 -42t208.5 -117t121 -173.5t41 -216.5q0 -181 -92 -284.5t-249 -143.5v-19q78 -7 150.5 -44t130.5 -99.5t92.5 -156.5t34.5 -204q0 -120 -41.5 -219t-124.5 -173t-216.5 -115t-307.5 -41zM532 1776v-613h397q169 0 271 84.5t102 230.5
q0 132 -88 215t-270 83h-412zM1371 568q0 146 -103 246t-280 100h-456v-642h443q203 0 299.5 80.5t96.5 215.5z" />
    <glyph glyph-name="C" unicode="C" horiz-adv-x="2028" 
d="M1890 1407l-312 -21q-44 191 -187 295t-334 104q-128 0 -235 -48.5t-187 -142t-124.5 -240t-44.5 -331.5q0 -186 44.5 -332t124.5 -239t187 -141t235 -48q191 0 332.5 103t185.5 292l313 -21q-43 -207 -162.5 -358.5t-291.5 -229t-377 -77.5q-195 0 -361.5 73t-286.5 207
t-188 332.5t-68 438.5q0 241 68 440t188 332.5t286.5 207t361.5 73.5q206 0 378 -78t292 -230.5t163 -360.5z" />
    <glyph glyph-name="D" unicode="D" horiz-adv-x="2004" 
d="M876 0h-661v2048h680q448 0 702 -271.5t254 -749.5q0 -482 -257.5 -754.5t-717.5 -272.5zM877 1770h-345v-1492h327q338 0 508.5 191.5t170.5 557.5q0 362 -168 552.5t-493 190.5z" />
    <glyph glyph-name="E" unicode="E" horiz-adv-x="1675" 
d="M1504 272v-272h-1289v2048h1278v-272h-961v-614h845v-273h-845v-617h972z" />
    <glyph glyph-name="F" unicode="F" horiz-adv-x="1653" 
d="M1353 1162v-273h-821v-889h-317v2048h1273v-272h-956v-614h821z" />
    <glyph glyph-name="G" unicode="G" horiz-adv-x="2063" 
d="M1902 1042v-259q0 -182 -64.5 -334.5t-177.5 -256.5t-267 -162t-331 -58q-197 0 -364 72.5t-288 206t-189 332t-68 440.5t67.5 441t187 332.5t284 206.5t357.5 73q304 0 526 -173t313 -486l-321 -21q-61 189 -199.5 289t-318.5 100q-124 0 -229 -48.5t-184.5 -141
t-124.5 -239.5t-45 -333t45.5 -332.5t126 -239t188.5 -140.5t236 -48q232 0 382 144.5t150 375.5h-467v259h775z" />
    <glyph glyph-name="H" unicode="H" horiz-adv-x="2042" 
d="M532 2048v-886h978v886h317v-2048h-317v889h-978v-889h-317v2048h317z" />
    <glyph glyph-name="I" unicode="I" horiz-adv-x="747" 
d="M532 2048v-2048h-317v2048h317z" />
    <glyph glyph-name="J" unicode="J" horiz-adv-x="1484" 
d="M970 598v1450h316v-1450q0 -293 -172 -459.5t-458 -166.5q-131 0 -243.5 38t-196 109t-131.5 180t-48 242h312q1 -139 91.5 -219.5t226.5 -80.5q48 0 91 11t82.5 37.5t67.5 66.5t45 102t17 140z" />
    <glyph glyph-name="K" unicode="K" horiz-adv-x="1904" 
d="M1444 0l-660 893l-252 -280v-613h-317v2048h317v-965h25l873 965h415l-863 -932l843 -1116h-381z" />
    <glyph glyph-name="L" unicode="L" horiz-adv-x="1579" 
d="M1444 272v-272h-1229v2048h317v-1776h912z" />
    <glyph glyph-name="M" unicode="M" horiz-adv-x="2495" 
d="M215 2048h379l644 -1557h24l638 1557h380v-2048h-306v1471h-19l-582 -1450h-252l-581 1452h-19v-1473h-306v2048z" />
    <glyph glyph-name="N" unicode="N" horiz-adv-x="2039" 
d="M1824 2048v-2048h-309l-964 1494h-19v-1494h-317v2048h310l966 -1499h19v1499h314z" />
    <glyph glyph-name="O" unicode="O" horiz-adv-x="2111" 
d="M1958 1023q0 -241 -68 -440t-188 -332.5t-285.5 -206t-359.5 -72.5q-195 0 -361 72.5t-286.5 206t-188.5 332.5t-68 440q0 242 68 441t188.5 332.5t286.5 206.5t361 73q194 0 359.5 -73t285.5 -206.5t188 -332.5t68 -441zM1645 1023q0 186 -45 333t-124.5 240t-186 141
t-232.5 48q-127 0 -233.5 -48.5t-187 -141t-125.5 -239.5t-45 -333t45 -332.5t125.5 -239t187 -140.5t233.5 -48q126 0 232.5 48t186 140.5t124.5 239t45 332.5z" />
    <glyph glyph-name="P" unicode="P" horiz-adv-x="1788" 
d="M936 728h-404v-728h-317v2048h718q181 0 317.5 -48.5t219.5 -138t124 -207t41 -263.5t-41.5 -265t-124.5 -209t-218.5 -139.5t-314.5 -49.5zM532 1776v-776h404q105 0 181 29t120 83t64.5 123t20.5 156q0 385 -389 385h-401z" />
    <glyph glyph-name="Q" unicode="Q" horiz-adv-x="2111" 
d="M1958 1023q0 -280 -89 -497.5t-249 -354.5l267 -363h-322l-167 228q-158 -64 -341 -64q-195 0 -361 72.5t-286.5 206t-188.5 332.5t-68 440q0 242 68 441t188.5 332.5t286.5 206.5t361 73q194 0 359.5 -73t285.5 -206.5t188 -332.5t68 -441zM943 660h307l187 -250
q208 202 208 613q0 186 -45 333t-124.5 240t-186 141t-232.5 48q-127 0 -233.5 -48.5t-187 -141t-125.5 -239.5t-45 -333t45 -332.5t125.5 -239t187 -140.5t233.5 -48q85 0 165 23z" />
    <glyph glyph-name="R" unicode="R" horiz-adv-x="1788" 
d="M1353 0l-394 782h-427v-782h-317v2048h717q178 0 314.5 -48t220.5 -134t126 -199.5t42 -250.5q0 -207 -93 -350.5t-265 -219.5l434 -846h-358zM532 1776v-717h381q409 0 409 353q0 59 -11.5 110t-39.5 98.5t-71.5 81.5t-111.5 54t-156 20h-400z" />
    <glyph glyph-name="S" unicode="S" horiz-adv-x="1784" 
d="M1311 1494q-20 149 -127 228.5t-283 79.5q-181 0 -293.5 -82.5t-112.5 -212.5q0 -110 95.5 -181.5t297.5 -130.5l159 -46q298 -88 442.5 -226.5t144.5 -357.5q0 -268 -201 -433t-544 -165q-328 0 -537 161t-222 444h318q12 -160 134 -245t307 -85q196 0 317.5 90.5
t121.5 231.5q0 120 -94 191.5t-319 139.5l-184 53q-543 159 -543 555q0 169 94.5 300.5t258 202t366.5 70.5q307 0 502.5 -161.5t205.5 -420.5h-304z" />
    <glyph glyph-name="T" unicode="T" horiz-adv-x="1812" 
d="M1694 2048v-272h-630v-1776h-316v1776h-630v272h1576z" />
    <glyph glyph-name="U" unicode="U" horiz-adv-x="2044" 
d="M1513 2048h317v-1355q0 -169 -62.5 -307.5t-171.5 -229.5t-255.5 -140t-316.5 -49t-317.5 49t-257 140t-172 229.5t-62.5 307.5v1355h317v-1350q0 -136 67.5 -238t178 -152.5t246.5 -50.5t245.5 50.5t176.5 152.5t67 238v1350z" />
    <glyph glyph-name="V" unicode="V" horiz-adv-x="1988" 
d="M408 2048l574 -1642h24l575 1642h333l-753 -2048h-333l-753 2048h333z" />
    <glyph glyph-name="W" unicode="W" horiz-adv-x="2744" 
d="M381 2048l401 -1575h19l410 1575h321l411 -1576h18l402 1576h305l-547 -2048h-325l-416 1521h-16l-416 -1521h-325l-548 2048h306z" />
    <glyph glyph-name="X" unicode="X" horiz-adv-x="1862" 
d="M446 2048l477 -793h16l477 793h366l-629 -1024l634 -1024h-369l-479 784h-16l-479 -784h-369l644 1024l-639 1024h366z" />
    <glyph glyph-name="Y" unicode="Y" horiz-adv-x="1967" 
d="M427 2048l545 -928h24l544 928h355l-753 -1224v-824h-317v824l-753 1224h355z" />
    <glyph glyph-name="Z" unicode="Z" horiz-adv-x="1780" 
d="M1623 272v-272h-1457v209l1064 1567h-1072v272h1457v-209l-1065 -1567h1073z" />
    <glyph glyph-name="bracketleft" unicode="[" horiz-adv-x="974" 
d="M840 2275v-259h-285v-2217h285v-257h-573v2733h573z" />
    <glyph glyph-name="backslash" unicode="\" horiz-adv-x="1064" 
d="M91 2048h284l596 -2356h-284z" />
    <glyph glyph-name="bracketright" unicode="]" horiz-adv-x="974" 
d="M134 2275h574v-2733h-574v257h285v2217h-285v259z" />
    <glyph glyph-name="asciicircum" unicode="^" horiz-adv-x="1279" 
d="M887 1004l-247 635l-244 -635h-282l411 1000h232l410 -1000h-280z" />
    <glyph glyph-name="underscore" unicode="_" horiz-adv-x="1285" 
d="M1277 0v-260h-1269v260h1269z" />
    <glyph glyph-name="grave" unicode="`" horiz-adv-x="849" 
d="M465 2112l269 -416h-276l-370 416h377z" />
    <glyph glyph-name="a" unicode="a" horiz-adv-x="1576" 
d="M1082 0v191h-14q-21 -40 -55 -77t-85 -71.5t-125.5 -55t-161.5 -20.5q-143 0 -258 53.5t-184.5 161.5t-69.5 253q0 94 31.5 168.5t84.5 124.5t132.5 86t165 56t192.5 31q24 3 57.5 6.5t56.5 5.5t52 5.5t48.5 7.5t41 9t35.5 12.5t26 16.5t17.5 21t5.5 27v13
q0 143 -73 210.5t-201 67.5q-133 0 -222 -60.5t-122 -149.5l-291 67q35 102 100 179.5t149.5 124t180.5 69.5t203 23q57 0 110.5 -6t113 -22.5t110.5 -42.5t98 -68t80.5 -96.5t53 -131t19.5 -168.5v-1021h-302zM1075 536v209q-32 -37 -329 -75q-73 -9 -127.5 -25
t-98.5 -43.5t-66.5 -70.5t-22.5 -101q0 -101 75 -157t198 -56q166 0 268.5 94.5t102.5 224.5z" />
    <glyph glyph-name="b" unicode="b" horiz-adv-x="1696" 
d="M193 2048h308v-730h18q19 33 38.5 60t55.5 62.5t77.5 59t104.5 40t136 16.5q136 0 252.5 -54t201.5 -153t133.5 -249.5t48.5 -334.5t-47.5 -334t-132 -250.5t-200.5 -155t-253 -54.5q-283 0 -415 239h-25v-210h-301v2048zM1268 768q0 238 -102.5 382.5t-296.5 144.5
q-129 0 -217.5 -68t-129.5 -184.5t-41 -274.5q0 -159 41.5 -278t130.5 -189t216 -70q192 0 295.5 148.5t103.5 388.5z" />
    <glyph glyph-name="c" unicode="c" horiz-adv-x="1577" 
d="M1462 1062l-295 -26q-29 115 -113.5 187t-219.5 72q-189 0 -297 -142.5t-108 -384.5q0 -246 107.5 -391.5t297.5 -145.5q126 0 212.5 66t117.5 183l297 -24q-39 -217 -207.5 -352t-419.5 -135q-214 0 -375 102t-245.5 282.5t-84.5 414.5q0 229 85.5 408t245.5 279.5
t371 100.5q251 0 423 -135t208 -359z" />
    <glyph glyph-name="d" unicode="d" horiz-adv-x="1696" 
d="M1503 0h-301v210h-23q-132 -239 -418 -239q-136 0 -252 54.5t-200.5 155t-132 250.5t-47.5 334t48.5 334.5t133.5 249.5t201 153t252 54q279 0 415 -238h16v730h308v-2048zM427 768q0 -240 104 -388.5t296 -148.5q96 0 170.5 40t121.5 112t71 169.5t24 215.5
q0 241 -98 384t-289 143q-194 0 -297 -144.5t-103 -382.5z" />
    <glyph glyph-name="e" unicode="e" horiz-adv-x="1641" 
d="M857 -31q-337 0 -532.5 212t-195.5 571q0 176 49.5 324.5t140.5 254.5t224 165.5t294 59.5q109 0 206 -26.5t183.5 -85.5t149 -145t98.5 -213.5t36 -283.5v-129h-1079q18 -214 127.5 -328t297.5 -114q266 0 350 227l284 -78q-25 -85 -77.5 -158t-130 -130t-187.5 -90
t-238 -33zM836 1295q-158 0 -262.5 -102t-135.5 -287h772q0 171 -101.5 280t-272.5 109z" />
    <glyph glyph-name="f" unicode="f" horiz-adv-x="1039" 
d="M302 0v1284h-229v252h229v106q0 106 36.5 190t99.5 136.5t144.5 80t174.5 27.5q144 0 252 -41l-70 -248q-74 23 -132 23q-103 0 -150 -51t-47 -155v-68h325v-252h-325v-1284h-308z" />
    <glyph glyph-name="g" unicode="g" horiz-adv-x="1696" 
d="M1202 1533h301v-1519q0 -148 -54 -263t-150 -186.5t-220 -108t-271 -36.5q-218 0 -376 78t-236 193l190 190l49.5 -50.5t60.5 -50.5t81.5 -50t99 -32.5t125.5 -14.5q177 0 287.5 89.5t109.5 265.5v217h-22q-132 -228 -416 -228q-133 0 -247 48.5t-200.5 140.5t-135.5 236
t-49 325q0 180 48.5 327.5t133.5 246t201 152t252 53.5q279 0 415 -238h23v215zM427 780q0 -230 104 -362.5t296 -132.5q189 0 288 131t99 364q0 232 -99 373.5t-288 141.5q-193 0 -296.5 -143t-103.5 -372z" />
    <glyph glyph-name="h" unicode="h" horiz-adv-x="1628" 
d="M501 892v-892h-308v2048h303v-711h16q65 96 176.5 157.5t259.5 61.5q220 0 353.5 -151t133.5 -434v-971h-307v972q0 147 -74.5 229.5t-209.5 82.5q-146 0 -244.5 -101.5t-98.5 -290.5z" />
    <glyph glyph-name="i" unicode="i" horiz-adv-x="704" 
d="M351 1712q-84 0 -138.5 53t-54.5 129q0 73 55 127.5t138 54.5t138 -54.5t55 -127.5q0 -76 -54.5 -129t-138.5 -53zM506 1536v-1536h-308v1536h308z" />
    <glyph glyph-name="j" unicode="j" horiz-adv-x="758" 
d="M406 1712q-84 0 -138.5 53t-54.5 129q0 73 55 127.5t138 54.5t138 -54.5t55 -127.5q0 -76 -54.5 -129t-138.5 -53zM253 1536h308v-1628q0 -233 -129 -360.5t-364 -127.5h-86v265h61q111 0 160.5 58.5t49.5 167.5v1625z" />
    <glyph glyph-name="k" unicode="k" horiz-adv-x="1528" 
d="M1155 0l-495 686l-159 -175v-511h-308v2048h308v-1145h25l555 633h369l-586 -655l637 -881h-346z" />
    <glyph glyph-name="l" unicode="l" horiz-adv-x="694" 
d="M501 2048v-2048h-308v2048h308z" />
    <glyph glyph-name="m" unicode="m" horiz-adv-x="2416" 
d="M1362 960v-960h-305v990q0 151 -68 222.5t-189 71.5q-123 0 -211 -95t-88 -256v-933h-308v1536h304v-229h15q48 102 155.5 175.5t244.5 73.5q136 0 236 -70t153 -186h16q46 103 167 179.5t273 76.5q99 0 182 -33t147.5 -100t100.5 -177.5t36 -255.5v-990h-308v995
q0 79 -24 137.5t-64 90t-84.5 46.5t-93.5 15q-135 0 -211 -86.5t-76 -237.5z" />
    <glyph glyph-name="n" unicode="n" horiz-adv-x="1642" 
d="M501 879v-879h-308v1536h296v-229h16q61 113 174.5 181t267.5 68q107 0 196.5 -34.5t158.5 -104t108 -183.5t39 -263v-971h-307v955q0 151 -83.5 240t-215.5 89q-140 0 -241 -108t-101 -297z" />
    <glyph glyph-name="o" unicode="o" horiz-adv-x="1667" 
d="M834 -31q-211 0 -371.5 99.5t-247 279.5t-86.5 415t86.5 415t247 279t371.5 99t371.5 -99t247 -279t86.5 -415t-86.5 -415t-247 -279.5t-371.5 -99.5zM834 231q102 0 181 41.5t127 115.5t72.5 168.5t24.5 206.5t-24.5 206.5t-72.5 168t-127 115.5t-181 42
q-103 0 -182 -42t-127 -115.5t-72 -168t-24 -206.5t24 -206.5t72 -168.5t127 -115.5t182 -41.5z" />
    <glyph glyph-name="p" unicode="p" horiz-adv-x="1696" 
d="M193 -576v2112h301v-218h25q19 33 38.5 60t55.5 62.5t77.5 59t104.5 40t136 16.5q136 0 252.5 -54t201.5 -153t133.5 -249.5t48.5 -334.5t-47.5 -334t-132 -250.5t-200.5 -155t-253 -54.5q-283 0 -415 239h-18v-786h-308zM1268 768q0 238 -102.5 382.5t-296.5 144.5
q-129 0 -217.5 -68t-129.5 -184.5t-41 -274.5q0 -159 41.5 -278t130.5 -189t216 -70q192 0 295.5 148.5t103.5 388.5z" />
    <glyph glyph-name="q" unicode="q" horiz-adv-x="1696" 
d="M1503 1536v-2112h-308v786h-16q-132 -239 -418 -239q-136 0 -252 54.5t-200.5 155t-132 250.5t-47.5 334t48.5 334.5t133.5 249.5t201 153t252 54q279 0 415 -238h23v218h301zM427 768q0 -240 104 -388.5t296 -148.5q96 0 170.5 40t121.5 112t71 169.5t24 215.5
q0 241 -98 384t-289 143q-194 0 -297 -144.5t-103 -382.5z" />
    <glyph glyph-name="r" unicode="r" horiz-adv-x="1123" 
d="M1096 1505l-99 -275q-61 32 -137 32q-80 0 -148.5 -34.5t-113.5 -91t-70.5 -126t-26.5 -141.5v-869h-308v1536h304v-242h18q33 113 140.5 189t232.5 76q115 0 208 -54z" />
    <glyph glyph-name="s" unicode="s" horiz-adv-x="1489" 
d="M1330 1157l-279 -48q-10 35 -29.5 67.5t-53.5 65.5t-89 52.5t-124 19.5q-122 0 -205.5 -57t-83.5 -143q0 -72 60 -124.5t170 -78.5l255 -59q196 -45 300 -149t104 -260q0 -208 -172.5 -341t-455.5 -133q-137 0 -247 32t-185.5 91t-125 134t-75.5 167l289 62
q37 -111 125 -176.5t226 -65.5q136 0 221.5 60t85.5 146q0 73 -52 115.5t-153 66.5l-262 63q-200 49 -307.5 160t-107.5 271q0 207 168.5 334t435.5 127q234 0 375 -103t192 -296z" />
    <glyph glyph-name="t" unicode="t" horiz-adv-x="1015" 
d="M886 1536v-252h-300v-830q0 -62 14 -103.5t41.5 -61.5t56.5 -27.5t69 -7.5q48 0 101 12l55 -253q-85 -33 -220 -33q-82 0 -157.5 27t-135.5 77.5t-96 130.5t-36 178v891h-213v252h213v328h308v-328h300z" />
    <glyph glyph-name="u" unicode="u" horiz-adv-x="1642" 
d="M1142 644v892h307v-1536h-296v199h-16q-67 -95 -179.5 -157t-262.5 -62q-73 0 -142.5 20.5t-135.5 66t-115 112t-79 166t-30 220.5v971h308v-966q0 -150 83 -234t216 -84q67 0 127 24.5t109 71.5t77.5 123.5t28.5 172.5z" />
    <glyph glyph-name="v" unicode="v" horiz-adv-x="1600" 
d="M1517 1536l-567 -1536h-301l-566 1536h325l385 -1138h16l383 1138h325z" />
    <glyph glyph-name="w" unicode="w" horiz-adv-x="2261" 
d="M2165 1536l-438 -1536h-277l-308 1075h-24l-307 -1075h-276l-439 1536h309l275 -1094h17l299 1094h271l296 -1089h17l276 1089h309z" />
    <glyph glyph-name="x" unicode="x" horiz-adv-x="1535" 
d="M447 1536l321 -568l323 568h333l-466 -768l471 -768h-333l-328 545l-327 -545h-335l466 768l-460 768h335z" />
    <glyph glyph-name="y" unicode="y" horiz-adv-x="1600" 
d="M606 -111l42 112l-565 1535h325l383 -1124h18l383 1124h325l-655 -1775q-62 -166 -181.5 -262t-298.5 -96q-113 0 -191 33l72 254q137 -35 211 6t132 193z" />
    <glyph glyph-name="z" unicode="z" horiz-adv-x="1530" 
d="M1376 265v-265h-1210v219l800 1052h-802v265h1193v-211l-799 -1060h818z" />
    <glyph glyph-name="braceleft" unicode="{" horiz-adv-x="974" 
d="M883 -304l-65 -192q-110 32 -192 81t-132.5 107.5t-81 134.5t-42 152t-11.5 169v276q0 145 -65.5 226t-202.5 81v242q268 0 268 303v280q0 92 11.5 167.5t42 151.5t81 134.5t132.5 107.5t192 79l65 -188q-70 -23 -119.5 -67t-77 -104.5t-39.5 -128.5t-12 -152v-280
q0 -304 -213 -424q213 -120 213 -428v-276q0 -84 12 -152t39.5 -128.5t77 -104.5t119.5 -67z" />
    <glyph glyph-name="bar" unicode="|" horiz-adv-x="813" 
d="M547 2048v-2432h-280v2432h280z" />
    <glyph glyph-name="braceright" unicode="}" horiz-adv-x="974" 
d="M70 -304q70 23 119.5 67t77 104.5t39.5 128.5t12 152v276q0 308 213 428q-213 120 -213 424v280q0 84 -12 152t-39.5 128.5t-77 104.5t-119.5 67l65 188q110 -30 192 -79t132.5 -107.5t81 -134.5t42 -151.5t11.5 -167.5v-280q0 -303 268 -303v-242q-137 0 -202.5 -81
t-65.5 -226v-276q0 -93 -11.5 -169t-42 -152t-81 -134.5t-132.5 -107.5t-192 -81z" />
    <glyph glyph-name="asciitilde" unicode="~" horiz-adv-x="1726" 
d="M1330 1149h252q2 -235 -114 -373.5t-302 -138.5q-200 0 -367 176q-59 66 -108 94.5t-106 28.5q-85 0 -134 -59t-55 -174h-252q2 235 120.5 370.5t301.5 135.5q189 0 361 -173q70 -70 116 -99t104 -29q83 0 133 59t50 182z" />
    <glyph glyph-name="nbspace" unicode="&#xa0;" horiz-adv-x="784" 
 />
    <glyph glyph-name="exclamdown" unicode="&#xa1;" horiz-adv-x="789" 
d="M395 1558q88 0 148.5 -59t60.5 -145q0 -87 -60.5 -147.5t-148.5 -60.5q-90 0 -149.5 60t-59.5 148q0 87 59.5 145.5t149.5 58.5zM564 -519h-336l31 1453h273z" />
    <glyph glyph-name="cent" unicode="&#xa2;" horiz-adv-x="1577" 
d="M1462 1062l-295 -26q-29 115 -113.5 187t-219.5 72q-189 0 -297 -142.5t-108 -384.5q0 -246 107.5 -391.5t297.5 -145.5q126 0 212.5 66t117.5 183l297 -24q-34 -190 -168.5 -319t-339.5 -159v-314h-238v314q-272 41 -429 255t-157 535q0 315 158.5 527.5t427.5 252.5
v264h238v-265q205 -32 341.5 -161t167.5 -324z" />
    <glyph glyph-name="sterling" unicode="&#xa3;" horiz-adv-x="1791" 
d="M1162 804h-453l8 -222q10 -198 -83 -310h941v-272h-1392v272h99q39 2 66 32.5t39 79t16.5 94t4.5 95.5l-7 231h-225v270h216l-12 369q-4 151 43 272.5t131.5 199.5t197 119.5t241.5 41.5q144 0 265.5 -49.5t199.5 -131.5t113.5 -192.5t16.5 -228.5l-297 44
q13 137 -72.5 213t-214.5 76q-63 0 -119 -22t-101.5 -65t-72 -114.5t-26.5 -162.5l14 -369h463v-270z" />
    <glyph glyph-name="currency" unicode="&#xa4;" horiz-adv-x="2050" 
d="M204 836q0 289 158 514l-195 201l170 178l196 -199q215 166 488 166q277 0 493 -170l197 203l174 -178l-201 -204q156 -226 156 -511q0 -274 -144 -494l189 -189l-174 -178l-178 183q-224 -186 -512 -186q-286 0 -507 183l-177 -180l-170 178l183 185q-146 222 -146 498z
M435 836q0 -171 78.5 -315.5t213.5 -229t294 -84.5q158 0 292.5 84.5t212 229t77.5 315.5q0 173 -78 317.5t-211.5 228t-292.5 83.5q-160 0 -294.5 -83.5t-213 -228t-78.5 -317.5z" />
    <glyph glyph-name="yen" unicode="&#xa5;" horiz-adv-x="1550" 
d="M1357 638v-206h-426v-432h-316v432h-438v206h438v190h-438v206h345l-483 1014h338l398 -914l398 914h339l-484 -1014h329v-206h-426v-190h426z" />
    <glyph glyph-name="brokenbar" unicode="&#xa6;" horiz-adv-x="813" 
d="M547 2048v-940h-280v940h280zM267 560h280v-944h-280v944z" />
    <glyph glyph-name="section" unicode="&#xa7;" horiz-adv-x="1572" 
d="M1305 1555h-283q0 114 -61.5 184t-182.5 70q-107 0 -170 -55t-63 -133q0 -41 18.5 -79.5t50.5 -69.5t64.5 -54t69.5 -43l382 -209q41 -22 73 -42.5t79 -62t77 -86.5t51 -113t18 -144q-4 -112 -84 -204.5t-181 -124.5l-2 -4q151 -133 151 -342q0 -147 -74.5 -252.5
t-193.5 -155.5t-267 -50q-253 0 -411 143.5t-158 385.5h286q0 -125 78.5 -194.5t205.5 -67.5q105 2 177 51t72 140q0 38 -13.5 72.5t-31.5 57.5t-49.5 47.5t-52 37t-55.5 31.5l-381 205q-310 167 -299 452q4 112 82 206.5t184 125.5v7q-149 149 -149 336q0 198 145 326.5
t371 128.5q238 0 382.5 -145.5t144.5 -375.5zM1160 709q5 134 -175 231l-365 198q-30 19 -65.5 9.5t-66.5 -33t-52.5 -67t-22.5 -92.5q-3 -74 44.5 -130.5t133.5 -102.5l352 -191q28 -17 65 -7.5t70 32t57 64t25 89.5z" />
    <glyph glyph-name="dieresis" unicode="&#xa8;" horiz-adv-x="1540" 
d="M486 1742q-70 0 -120.5 49.5t-50.5 116.5q0 71 50 119.5t121 48.5q74 0 122 -48t48 -120q0 -68 -48.5 -117t-121.5 -49zM1056 1742q-71 0 -121.5 49.5t-50.5 116.5q0 71 50 119.5t122 48.5q73 0 121.5 -48t48.5 -120q0 -68 -49 -117t-121 -49z" />
    <glyph glyph-name="copyright" unicode="&#xa9;" horiz-adv-x="2303" 
d="M176 1004q0 213 77.5 404.5t209 327.5t311.5 216t378 80q160 0 308.5 -50.5t268.5 -144.5t210.5 -220t139.5 -284t49 -329q0 -215 -77 -407t-208 -328.5t-311 -216.5t-380 -80q-198 0 -378 80t-311.5 216.5t-209 328.5t-77.5 407zM344 1004q0 -179 64 -339.5t173 -274
t258 -180t313 -66.5q166 0 315 66.5t257.5 180t172 273.5t63.5 340q0 143 -40.5 274.5t-115 236.5t-174 183t-223 120t-255.5 42q-164 0 -313 -66.5t-258 -179.5t-173 -272.5t-64 -337.5zM1380 820h216q0 -212 -123 -322t-339 -110q-219 0 -349.5 146.5t-130.5 385.5v164
q0 239 130.5 385.5t349.5 146.5q216 0 339 -110t123 -322h-214q0 129 -62 188.5t-186 59.5q-128 0 -197 -95t-69 -253v-164q0 -158 69 -253t197 -95q125 0 185.5 58t60.5 190z" />
    <glyph glyph-name="ordfeminine" unicode="&#xaa;" horiz-adv-x="1279" 
d="M840 971q-15 51 -22 95q-103 -114 -278 -114q-163 0 -253 84.5t-90 227.5q0 155 118.5 237t352.5 82h140v69q0 176 -160 176q-91 0 -141 -35t-50 -101l-237 19q0 141 117.5 231t310.5 90q185 0 292.5 -97.5t107.5 -282.5v-432q0 -146 36 -249h-244zM600 1151q54 0 112 25
t96 61v186h-140q-113 0 -170.5 -43.5t-57.5 -108.5q0 -120 160 -120z" />
    <glyph glyph-name="guillemotleft" unicode="&#xab;" horiz-adv-x="1361" 
d="M750 201h-230l-395 579v28l395 580h230l-362 -594zM1276 201h-230l-395 579v28l395 580h230l-362 -594z" />
    <glyph glyph-name="logicalnot" unicode="&#xac;" horiz-adv-x="1535" 
d="M1344 1108v-592h-276v356h-872v236h1148z" />
    <glyph glyph-name="softhyphen" unicode="&#xad;" horiz-adv-x="1301" 
d="M1119 1001v-255h-937v255h937z" />
    <glyph glyph-name="registered" unicode="&#xae;" horiz-adv-x="2303" 
d="M176 1004q0 213 77.5 404.5t209 327.5t311.5 216t378 80q160 0 308.5 -50.5t268.5 -144.5t210.5 -220t139.5 -284t49 -329q0 -215 -77 -407t-208 -328.5t-311 -216.5t-380 -80q-198 0 -378 80t-311.5 216.5t-209 328.5t-77.5 407zM344 1004q0 -179 64 -339.5t173 -274
t258 -180t313 -66.5q166 0 315 66.5t257.5 180t172 273.5t63.5 340q0 143 -40.5 274.5t-115 236.5t-174 183t-223 120t-255.5 42q-164 0 -313 -66.5t-258 -179.5t-173 -272.5t-64 -337.5zM1172 900h-216v-464h-208v1168h386q210 0 328 -91t118 -265q0 -163 -165 -249
q161 -73 161 -291v-76q0 -110 24 -176v-20h-212q-20 44 -20 196v76q0 99 -45 145.5t-151 46.5zM956 1420v-336h197q94 0 158.5 42.5t64.5 117.5q0 98 -54 137t-188 39h-178z" />
    <glyph glyph-name="macron" unicode="&#xaf;" horiz-adv-x="1361" 
d="M1154 1993v-214h-944v214h944z" />
    <glyph glyph-name="degree" unicode="&#xb0;" horiz-adv-x="1197" 
d="M600 1125q-90 0 -172.5 35.5t-143 95t-96.5 142.5t-36 173q0 185 132 317t316 132q185 0 315 -131.5t130 -317.5q0 -185 -130 -315.5t-315 -130.5zM600 1339q96 0 164.5 68.5t68.5 165.5t-69 166.5t-164 69.5q-96 0 -165.5 -69.5t-69.5 -166.5q0 -96 69.5 -165t165.5 -69
z" />
    <glyph glyph-name="plusminus" unicode="&#xb1;" horiz-adv-x="1731" 
d="M1506 1155v-265h-505v-432h-271v432h-506v265h506v448h271v-448h505zM1504 262v-262h-1277v262h1277z" />
    <glyph glyph-name="twosuperior" unicode="&#xb2;" horiz-adv-x="1279" 
d="M1186 1121v-205h-841v171l395 365q156 134 156 231q0 59 -39 95t-108 36q-86 0 -130 -46t-44 -118h-254q0 154 114 260t303 106q195 0 303.5 -87.5t108.5 -245.5q0 -74 -34.5 -141t-90 -123.5t-155.5 -139.5l-197 -158h513z" />
    <glyph glyph-name="threesuperior" unicode="&#xb3;" horiz-adv-x="1279" 
d="M589 1380v177h119q85 0 128.5 36t43.5 98q0 54 -39.5 88.5t-120.5 34.5q-67 0 -111.5 -28.5t-44.5 -76.5h-253q0 142 115.5 224.5t287.5 82.5q192 0 306 -80.5t114 -228.5q0 -79 -48 -140t-136 -94q204 -57 204 -253q0 -149 -123.5 -234.5t-316.5 -85.5
q-80 0 -152.5 19.5t-133 58t-96.5 104t-36 150.5h255q0 -53 48 -89.5t127 -36.5q85 0 129.5 37.5t44.5 96.5q0 140 -192 140h-119z" />
    <glyph glyph-name="acute" unicode="&#xb4;" horiz-adv-x="860" 
d="M178 1696l250 416h317l-331 -416h-236z" />
    <glyph glyph-name="mu" unicode="&#xb5;" horiz-adv-x="1645" 
d="M1158 692v844h294v-1536h-266l-13 161q-133 -189 -353 -189q-200 0 -324 171v-715h-303v2108h303v-847q0 -111 26 -196.5t71.5 -137t103.5 -77.5t126 -26q148 0 241.5 115t93.5 325z" />
    <glyph glyph-name="paragraph" unicode="&#xb6;" horiz-adv-x="1279" 
d="M1181 0h-288v716h-114q-161 0 -290 48t-213 134.5t-128.5 204t-44.5 257.5q0 139 44.5 256t128.5 203.5t213 135.5t290 49h402v-2004z" />
    <glyph glyph-name="periodcentered" unicode="&#xb7;" horiz-adv-x="789" 
d="M392 818q-84 0 -143 59t-59 144q0 83 59.5 141t142.5 58t142.5 -58.5t59.5 -140.5q0 -85 -59 -144t-143 -59z" />
    <glyph glyph-name="cedilla" unicode="&#xb8;" horiz-adv-x="849" 
d="M285 5h238l-16 -77q88 -14 147.5 -71t59.5 -165q0 -140 -115.5 -223.5t-330.5 -83.5l-9 188q189 0 189 120q0 62 -46 86t-161 33z" />
    <glyph glyph-name="onesuperior" unicode="&#xb9;" horiz-adv-x="1023" 
d="M765 1999v-1083h-250v786l-278 -67v201l504 163h24z" />
    <glyph glyph-name="ordmasculine" unicode="&#xba;" horiz-adv-x="1279" 
d="M164 1436v107q0 216 130 352.5t346 136.5q219 0 347.5 -136t128.5 -353v-107q0 -216 -128 -350.5t-344 -134.5q-219 0 -349.5 134.5t-130.5 350.5zM404 1543v-107q0 -128 62 -206t178 -78q113 0 172.5 78t59.5 206v107q0 127 -60.5 206t-175.5 79q-113 0 -174.5 -79.5
t-61.5 -205.5z" />
    <glyph glyph-name="guillemotright" unicode="&#xbb;" horiz-adv-x="1361" 
d="M86 201l361 593l-361 593h229l396 -580v-27l-396 -579h-229zM613 201l361 593l-361 593h229l396 -580v-27l-396 -579h-229z" />
    <glyph glyph-name="onequarter" unicode="&#xbc;" horiz-adv-x="2221" 
d="M690 1995v-1083h-250v786l-278 -67v201l504 163h24zM1661 1728l-976 -1564l-170 97l976 1567zM2038 433v-206h-134v-227h-254v227h-494l-12 165l503 692h257v-651h134zM1393 433h257v332l-17 -27z" />
    <glyph glyph-name="onehalf" unicode="&#xbd;" horiz-adv-x="2303" 
d="M738 1999v-1083h-250v786l-278 -67v201l504 163h24zM1662 1728l-976 -1564l-170 97l976 1567zM2197 205v-205h-841v171l395 365q156 134 156 231q0 59 -39 95t-108 36q-86 0 -130 -46t-44 -118h-254q0 154 114 260t303 106q195 0 303.5 -87.5t108.5 -245.5
q0 -74 -34.5 -141t-90 -123.5t-155.5 -139.5l-197 -158h513z" />
    <glyph glyph-name="threequarters" unicode="&#xbe;" horiz-adv-x="2303" 
d="M588 1380v177h119q85 0 128.5 36t43.5 98q0 54 -39.5 88.5t-120.5 34.5q-67 0 -111.5 -28.5t-44.5 -76.5h-253q0 142 115.5 224.5t287.5 82.5q192 0 306 -80.5t114 -228.5q0 -79 -48 -140t-136 -94q204 -57 204 -253q0 -149 -123.5 -234.5t-316.5 -85.5
q-80 0 -152.5 19.5t-133 58t-96.5 104t-36 150.5h255q0 -53 48 -89.5t127 -36.5q85 0 129.5 37.5t44.5 96.5q0 140 -192 140h-119zM1899 1728l-976 -1564l-170 97l976 1567zM2245 433v-206h-134v-227h-254v227h-494l-12 165l503 692h257v-651h134zM1600 433h257v332l-17 -27
z" />
    <glyph glyph-name="questiondown" unicode="&#xbf;" horiz-adv-x="1535" 
d="M826 1553q90 0 150 -59t60 -146q0 -88 -60 -147.5t-150 -59.5q-87 0 -147.5 60t-60.5 147t60.5 146t147.5 59zM686 931h285q0 -129 -26 -232t-67.5 -169t-91.5 -120.5t-100.5 -97.5t-92 -87t-67.5 -103t-26 -131q0 -134 74.5 -209t202.5 -75q56 0 105 17t89 51.5t64 93
t25 135.5h313q0 -133 -46 -239t-127 -174.5t-189 -104.5t-234 -36q-272 0 -427 147.5t-155 395.5q0 97 27 176t70 134t95 104.5l104 99.5t95.5 106t71 137.5t28.5 180.5z" />
    <glyph glyph-name="Agrave" unicode="&#xc0;" horiz-adv-x="1988" 
d="M899 2607l269 -416h-276l-370 416h377zM411 0h-336l753 2048h333l753 -2048h-337l-172 496h-822zM982 1642l-305 -878h634l-305 878h-24z" />
    <glyph glyph-name="Aacute" unicode="&#xc1;" horiz-adv-x="1988" 
d="M843 2191l250 416h317l-331 -416h-236zM411 0h-336l753 2048h333l753 -2048h-337l-172 496h-822zM982 1642l-305 -878h634l-305 878h-24z" />
    <glyph glyph-name="Acircumflex" unicode="&#xc2;" horiz-adv-x="1988" 
d="M765 2271h-252v15l388 381h184l390 -381v-15h-251l-230 222zM411 0h-336l753 2048h333l753 -2048h-337l-172 496h-822zM982 1642l-305 -878h634l-305 878h-24z" />
    <glyph glyph-name="Atilde" unicode="&#xc3;" horiz-adv-x="1988" 
d="M1296 2640l202 -16q0 -154 -87.5 -253t-220.5 -99q-60 0 -112.5 19.5t-84 42.5t-77.5 42.5t-95 19.5q-54 0 -89 -40t-35 -103l-206 10q0 151 88 254t220 103q50 0 101 -19t87 -42.5t85 -42.5t96 -19q54 0 91 40.5t37 102.5zM411 0h-336l753 2048h333l753 -2048h-337
l-172 496h-822zM982 1642l-305 -878h634l-305 878h-24z" />
    <glyph glyph-name="Adieresis" unicode="&#xc4;" horiz-adv-x="1988" 
d="M710 2254q-70 0 -120.5 49.5t-50.5 116.5q0 71 50 119.5t121 48.5q74 0 122 -48t48 -120q0 -68 -48.5 -117t-121.5 -49zM1280 2254q-71 0 -121.5 49.5t-50.5 116.5q0 71 50 119.5t122 48.5q73 0 121.5 -48t48.5 -120q0 -68 -49 -117t-121 -49zM411 0h-336l753 2048h333
l753 -2048h-337l-172 496h-822zM982 1642l-305 -878h634l-305 878h-24z" />
    <glyph glyph-name="Aring" unicode="&#xc5;" horiz-adv-x="1988" 
d="M649 2513q0 136 100 232.5t246 96.5q145 0 244.5 -96.5t99.5 -232.5q0 -135 -98.5 -227t-245.5 -92t-246.5 92t-99.5 227zM819 2513q0 -70 50 -122t126 -52t126.5 52t50.5 122q0 72 -50.5 125.5t-126.5 53.5t-126 -53.5t-50 -125.5zM411 0h-336l753 2048h333l753 -2048
h-337l-172 496h-822zM982 1642l-305 -878h634l-305 878h-24z" />
    <glyph glyph-name="AE" unicode="&#xc6;" horiz-adv-x="2815" 
d="M2668 266v-266h-1213l-20 498h-734l-268 -498h-367l1155 2048h1363v-266h-894l24 -613h758v-265h-747l25 -638h918zM845 764h579l-41 998z" />
    <glyph glyph-name="Ccedilla" unicode="&#xc7;" horiz-adv-x="2028" 
d="M1890 1407l-312 -21q-44 191 -187 295t-334 104q-128 0 -235 -48.5t-187 -142t-124.5 -240t-44.5 -331.5q0 -186 44.5 -332t124.5 -239t187 -141t235 -48q191 0 332.5 103t185.5 292l313 -21q-57 -279 -248.5 -452t-462.5 -206l-13 -62q88 -14 147.5 -71t59.5 -165
q0 -140 -115.5 -223.5t-330.5 -83.5l-9 188q189 0 189 120q0 62 -46 86t-161 33l41 178q-173 21 -317.5 102.5t-248.5 213.5t-162 319t-58 409q0 241 68 440t188 332.5t286.5 207t361.5 73.5q206 0 378 -78t292 -230.5t163 -360.5z" />
    <glyph glyph-name="Egrave" unicode="&#xc8;" horiz-adv-x="1675" 
d="M780 2607l269 -416h-276l-370 416h377zM1504 272v-272h-1289v2048h1278v-272h-961v-614h845v-273h-845v-617h972z" />
    <glyph glyph-name="Eacute" unicode="&#xc9;" horiz-adv-x="1675" 
d="M724 2191l250 416h317l-331 -416h-236zM1504 272v-272h-1289v2048h1278v-272h-961v-614h845v-273h-845v-617h972z" />
    <glyph glyph-name="Ecircumflex" unicode="&#xca;" horiz-adv-x="1675" 
d="M646 2271h-252v15l388 381h184l390 -381v-15h-251l-230 222zM1504 272v-272h-1289v2048h1278v-272h-961v-614h845v-273h-845v-617h972z" />
    <glyph glyph-name="Edieresis" unicode="&#xcb;" horiz-adv-x="1675" 
d="M591 2227q-70 0 -120.5 49.5t-50.5 116.5q0 71 50 119.5t121 48.5q74 0 122 -48t48 -120q0 -68 -48.5 -117t-121.5 -49zM1161 2227q-71 0 -121.5 49.5t-50.5 116.5q0 71 50 119.5t122 48.5q73 0 121.5 -48t48.5 -120q0 -68 -49 -117t-121 -49zM1504 272v-272h-1289v2048
h1278v-272h-961v-614h845v-273h-845v-617h972z" />
    <glyph glyph-name="Igrave" unicode="&#xcc;" horiz-adv-x="747" 
d="M267 2607l269 -416h-276l-370 416h377zM532 2048v-2048h-317v2048h317z" />
    <glyph glyph-name="Iacute" unicode="&#xcd;" horiz-adv-x="747" 
d="M211 2191l250 416h317l-331 -416h-236zM532 2048v-2048h-317v2048h317z" />
    <glyph glyph-name="Icircumflex" unicode="&#xce;" horiz-adv-x="747" 
d="M133 2271h-252v15l388 381h184l390 -381v-15h-251l-230 222zM532 2048v-2048h-317v2048h317z" />
    <glyph glyph-name="Idieresis" unicode="&#xcf;" horiz-adv-x="935" 
d="M183 2254q-70 0 -120.5 49.5t-50.5 116.5q0 71 50 119.5t121 48.5q74 0 122 -48t48 -120q0 -68 -48.5 -117t-121.5 -49zM753 2254q-71 0 -121.5 49.5t-50.5 116.5q0 71 50 119.5t122 48.5q73 0 121.5 -48t48.5 -120q0 -68 -49 -117t-121 -49zM624 2048v-2048h-317v2048
h317z" />
    <glyph glyph-name="Eth" unicode="&#xd0;" horiz-adv-x="2034" 
d="M906 0h-661v917h-189v209h189v922h680q448 0 702 -271.5t254 -749.5q0 -482 -257.5 -754.5t-717.5 -272.5zM972 1126v-209h-410v-639h327q338 0 508.5 191.5t170.5 557.5q0 362 -168 552.5t-493 190.5h-345v-644h410z" />
    <glyph glyph-name="Ntilde" unicode="&#xd1;" horiz-adv-x="2039" 
d="M1338 2591l202 -16q0 -154 -87.5 -253t-220.5 -99q-60 0 -112.5 19.5t-84 42.5t-77.5 42.5t-95 19.5q-54 0 -89 -40t-35 -103l-206 10q0 151 88 254t220 103q50 0 101 -19t87 -42.5t85 -42.5t96 -19q54 0 91 40.5t37 102.5zM1824 2048v-2048h-309l-964 1494h-19v-1494
h-317v2048h310l966 -1499h19v1499h314z" />
    <glyph glyph-name="Ograve" unicode="&#xd2;" horiz-adv-x="2111" 
d="M962 2607l269 -416h-276l-370 416h377zM1958 1023q0 -241 -68 -440t-188 -332.5t-285.5 -206t-359.5 -72.5q-195 0 -361 72.5t-286.5 206t-188.5 332.5t-68 440q0 242 68 441t188.5 332.5t286.5 206.5t361 73q194 0 359.5 -73t285.5 -206.5t188 -332.5t68 -441z
M1645 1023q0 186 -45 333t-124.5 240t-186 141t-232.5 48q-127 0 -233.5 -48.5t-187 -141t-125.5 -239.5t-45 -333t45 -332.5t125.5 -239t187 -140.5t233.5 -48q126 0 232.5 48t186 140.5t124.5 239t45 332.5z" />
    <glyph glyph-name="Oacute" unicode="&#xd3;" horiz-adv-x="2111" 
d="M906 2191l250 416h317l-331 -416h-236zM1958 1023q0 -241 -68 -440t-188 -332.5t-285.5 -206t-359.5 -72.5q-195 0 -361 72.5t-286.5 206t-188.5 332.5t-68 440q0 242 68 441t188.5 332.5t286.5 206.5t361 73q194 0 359.5 -73t285.5 -206.5t188 -332.5t68 -441z
M1645 1023q0 186 -45 333t-124.5 240t-186 141t-232.5 48q-127 0 -233.5 -48.5t-187 -141t-125.5 -239.5t-45 -333t45 -332.5t125.5 -239t187 -140.5t233.5 -48q126 0 232.5 48t186 140.5t124.5 239t45 332.5z" />
    <glyph glyph-name="Ocircumflex" unicode="&#xd4;" horiz-adv-x="2111" 
d="M828 2271h-252v15l388 381h184l390 -381v-15h-251l-230 222zM1958 1023q0 -241 -68 -440t-188 -332.5t-285.5 -206t-359.5 -72.5q-195 0 -361 72.5t-286.5 206t-188.5 332.5t-68 440q0 242 68 441t188.5 332.5t286.5 206.5t361 73q194 0 359.5 -73t285.5 -206.5
t188 -332.5t68 -441zM1645 1023q0 186 -45 333t-124.5 240t-186 141t-232.5 48q-127 0 -233.5 -48.5t-187 -141t-125.5 -239.5t-45 -333t45 -332.5t125.5 -239t187 -140.5t233.5 -48q126 0 232.5 48t186 140.5t124.5 239t45 332.5z" />
    <glyph glyph-name="Otilde" unicode="&#xd5;" horiz-adv-x="2111" 
d="M1357 2640l202 -16q0 -154 -87.5 -253t-220.5 -99q-60 0 -112.5 19.5t-84 42.5t-77.5 42.5t-95 19.5q-54 0 -89 -40t-35 -103l-206 10q0 151 88 254t220 103q50 0 101 -19t87 -42.5t85 -42.5t96 -19q54 0 91 40.5t37 102.5zM1958 1023q0 -241 -68 -440t-188 -332.5
t-285.5 -206t-359.5 -72.5q-195 0 -361 72.5t-286.5 206t-188.5 332.5t-68 440q0 242 68 441t188.5 332.5t286.5 206.5t361 73q194 0 359.5 -73t285.5 -206.5t188 -332.5t68 -441zM1645 1023q0 186 -45 333t-124.5 240t-186 141t-232.5 48q-127 0 -233.5 -48.5t-187 -141
t-125.5 -239.5t-45 -333t45 -332.5t125.5 -239t187 -140.5t233.5 -48q126 0 232.5 48t186 140.5t124.5 239t45 332.5z" />
    <glyph glyph-name="Odieresis" unicode="&#xd6;" horiz-adv-x="2111" 
d="M771 2254q-70 0 -120.5 49.5t-50.5 116.5q0 71 50 119.5t121 48.5q74 0 122 -48t48 -120q0 -68 -48.5 -117t-121.5 -49zM1341 2254q-71 0 -121.5 49.5t-50.5 116.5q0 71 50 119.5t122 48.5q73 0 121.5 -48t48.5 -120q0 -68 -49 -117t-121 -49zM1958 1023q0 -241 -68 -440
t-188 -332.5t-285.5 -206t-359.5 -72.5q-195 0 -361 72.5t-286.5 206t-188.5 332.5t-68 440q0 242 68 441t188.5 332.5t286.5 206.5t361 73q194 0 359.5 -73t285.5 -206.5t188 -332.5t68 -441zM1645 1023q0 186 -45 333t-124.5 240t-186 141t-232.5 48q-127 0 -233.5 -48.5
t-187 -141t-125.5 -239.5t-45 -333t45 -332.5t125.5 -239t187 -140.5t233.5 -48q126 0 232.5 48t186 140.5t124.5 239t45 332.5z" />
    <glyph glyph-name="multiply" unicode="&#xd7;" horiz-adv-x="1731" 
d="M433 267l-185 187l433 442l-444 453l185 187l444 -452l443 452l186 -187l-445 -453l434 -442l-186 -187l-432 441z" />
    <glyph glyph-name="Oslash" unicode="&#xd8;" horiz-adv-x="2111" 
d="M429 -89l-167 114l151 223q-125 139 -192.5 335.5t-67.5 439.5q0 242 68 441t188.5 332.5t286.5 206.5t361 73q280 0 492 -145l137 202l167 -114l-151 -223q123 -138 189.5 -334.5t66.5 -438.5q0 -241 -68 -440t-188 -332.5t-285.5 -206t-359.5 -72.5q-280 0 -491 143z
M466 1023q0 -315 126 -510l790 1170q-138 102 -325 102q-127 0 -233.5 -48.5t-187 -141t-125.5 -239.5t-45 -333zM1645 1023q0 311 -122 507l-790 -1168q139 -99 324 -99q126 0 232.5 48t186 140.5t124.5 239t45 332.5z" />
    <glyph glyph-name="Ugrave" unicode="&#xd9;" horiz-adv-x="2044" 
d="M927 2607l269 -416h-276l-370 416h377zM1513 2048h317v-1355q0 -169 -62.5 -307.5t-171.5 -229.5t-255.5 -140t-316.5 -49t-317.5 49t-257 140t-172 229.5t-62.5 307.5v1355h317v-1350q0 -136 67.5 -238t178 -152.5t246.5 -50.5t245.5 50.5t176.5 152.5t67 238v1350z" />
    <glyph glyph-name="Uacute" unicode="&#xda;" horiz-adv-x="2044" 
d="M871 2191l250 416h317l-331 -416h-236zM1513 2048h317v-1355q0 -169 -62.5 -307.5t-171.5 -229.5t-255.5 -140t-316.5 -49t-317.5 49t-257 140t-172 229.5t-62.5 307.5v1355h317v-1350q0 -136 67.5 -238t178 -152.5t246.5 -50.5t245.5 50.5t176.5 152.5t67 238v1350z" />
    <glyph glyph-name="Ucircumflex" unicode="&#xdb;" horiz-adv-x="2044" 
d="M793 2271h-252v15l388 381h184l390 -381v-15h-251l-230 222zM1513 2048h317v-1355q0 -169 -62.5 -307.5t-171.5 -229.5t-255.5 -140t-316.5 -49t-317.5 49t-257 140t-172 229.5t-62.5 307.5v1355h317v-1350q0 -136 67.5 -238t178 -152.5t246.5 -50.5t245.5 50.5
t176.5 152.5t67 238v1350z" />
    <glyph glyph-name="Udieresis" unicode="&#xdc;" horiz-adv-x="2044" 
d="M738 2227q-70 0 -120.5 49.5t-50.5 116.5q0 71 50 119.5t121 48.5q74 0 122 -48t48 -120q0 -68 -48.5 -117t-121.5 -49zM1308 2227q-71 0 -121.5 49.5t-50.5 116.5q0 71 50 119.5t122 48.5q73 0 121.5 -48t48.5 -120q0 -68 -49 -117t-121 -49zM1513 2048h317v-1355
q0 -169 -62.5 -307.5t-171.5 -229.5t-255.5 -140t-316.5 -49t-317.5 49t-257 140t-172 229.5t-62.5 307.5v1355h317v-1350q0 -136 67.5 -238t178 -152.5t246.5 -50.5t245.5 50.5t176.5 152.5t67 238v1350z" />
    <glyph glyph-name="Yacute" unicode="&#xdd;" horiz-adv-x="1967" 
d="M833 2191l250 416h317l-331 -416h-236zM427 2048l545 -928h24l544 928h355l-753 -1224v-824h-317v824l-753 1224h355z" />
    <glyph glyph-name="Thorn" unicode="&#xde;" horiz-adv-x="1791" 
d="M204 2048h317v-406h354q166 0 300.5 -46.5t222 -128t134 -191t46.5 -236.5t-46.5 -236.5t-134 -191t-222 -128t-300.5 -46.5h-354v-438h-317v2048zM875 1378h-354v-677h354q195 0 297.5 89t102.5 246q0 158 -102.5 250t-297.5 92z" />
    <glyph glyph-name="germandbls" unicode="&#xdf;" horiz-adv-x="1697" 
d="M496 1497v-1497h-303v1497q0 303 149.5 463t408.5 160q87 0 167 -17.5t151.5 -56t124 -94.5t83 -138.5t30.5 -182.5q0 -72 -16.5 -135.5t-40.5 -109l-47.5 -86.5t-40 -86.5t-16.5 -90.5q0 -50 24.5 -93t63.5 -76.5t86.5 -67.5t95 -74t86.5 -86.5t63.5 -114.5t24.5 -149
q0 -228 -149.5 -359t-418.5 -131q-124 0 -235.5 28.5t-174.5 70.5l99 242q154 -84 292 -84q141 0 215 64.5t74 161.5q0 58 -25.5 107.5t-65.5 87t-89 73.5l-98 74.5t-89 81.5t-65.5 103.5t-25.5 132.5q0 61 18.5 118t45 101.5l53 88.5t45 96t18.5 105q0 111 -76 169.5
t-187 58.5q-127 0 -191 -86t-64 -269z" />
    <glyph glyph-name="agrave" unicode="&#xe0;" horiz-adv-x="1576" 
d="M701 2123l269 -416h-276l-370 416h377zM1082 0v191h-14q-21 -40 -55 -77t-85 -71.5t-125.5 -55t-161.5 -20.5q-143 0 -258 53.5t-184.5 161.5t-69.5 253q0 94 31.5 168.5t84.5 124.5t132.5 86t165 56t192.5 31q24 3 57.5 6.5t56.5 5.5t52 5.5t48.5 7.5t41 9t35.5 12.5
t26 16.5t17.5 21t5.5 27v13q0 143 -73 210.5t-201 67.5q-133 0 -222 -60.5t-122 -149.5l-291 67q35 102 100 179.5t149.5 124t180.5 69.5t203 23q57 0 110.5 -6t113 -22.5t110.5 -42.5t98 -68t80.5 -96.5t53 -131t19.5 -168.5v-1021h-302zM1075 536v209q-32 -37 -329 -75
q-73 -9 -127.5 -25t-98.5 -43.5t-66.5 -70.5t-22.5 -101q0 -101 75 -157t198 -56q166 0 268.5 94.5t102.5 224.5z" />
    <glyph glyph-name="aacute" unicode="&#xe1;" horiz-adv-x="1576" 
d="M645 1707l250 416h317l-331 -416h-236zM1082 0v191h-14q-21 -40 -55 -77t-85 -71.5t-125.5 -55t-161.5 -20.5q-143 0 -258 53.5t-184.5 161.5t-69.5 253q0 94 31.5 168.5t84.5 124.5t132.5 86t165 56t192.5 31q24 3 57.5 6.5t56.5 5.5t52 5.5t48.5 7.5t41 9t35.5 12.5
t26 16.5t17.5 21t5.5 27v13q0 143 -73 210.5t-201 67.5q-133 0 -222 -60.5t-122 -149.5l-291 67q35 102 100 179.5t149.5 124t180.5 69.5t203 23q57 0 110.5 -6t113 -22.5t110.5 -42.5t98 -68t80.5 -96.5t53 -131t19.5 -168.5v-1021h-302zM1075 536v209q-32 -37 -329 -75
q-73 -9 -127.5 -25t-98.5 -43.5t-66.5 -70.5t-22.5 -101q0 -101 75 -157t198 -56q166 0 268.5 94.5t102.5 224.5z" />
    <glyph glyph-name="acircumflex" unicode="&#xe2;" horiz-adv-x="1576" 
d="M567 1787h-252v15l388 381h184l390 -381v-15h-251l-230 222zM1082 0v191h-14q-21 -40 -55 -77t-85 -71.5t-125.5 -55t-161.5 -20.5q-143 0 -258 53.5t-184.5 161.5t-69.5 253q0 94 31.5 168.5t84.5 124.5t132.5 86t165 56t192.5 31q24 3 57.5 6.5t56.5 5.5t52 5.5
t48.5 7.5t41 9t35.5 12.5t26 16.5t17.5 21t5.5 27v13q0 143 -73 210.5t-201 67.5q-133 0 -222 -60.5t-122 -149.5l-291 67q35 102 100 179.5t149.5 124t180.5 69.5t203 23q57 0 110.5 -6t113 -22.5t110.5 -42.5t98 -68t80.5 -96.5t53 -131t19.5 -168.5v-1021h-302zM1075 536
v209q-32 -37 -329 -75q-73 -9 -127.5 -25t-98.5 -43.5t-66.5 -70.5t-22.5 -101q0 -101 75 -157t198 -56q166 0 268.5 94.5t102.5 224.5z" />
    <glyph glyph-name="atilde" unicode="&#xe3;" horiz-adv-x="1579" 
d="M1061 2108l202 -16q0 -154 -87.5 -253t-220.5 -99q-60 0 -112.5 19.5t-84 42.5t-77.5 42.5t-95 19.5q-54 0 -89 -40t-35 -103l-206 10q0 151 88 254t220 103q50 0 101 -19t87 -42.5t85 -42.5t96 -19q54 0 91 40.5t37 102.5zM1082 0v191h-14q-21 -40 -55 -77t-85 -71.5
t-125.5 -55t-161.5 -20.5q-143 0 -258 53.5t-184.5 161.5t-69.5 253q0 94 31.5 168.5t84.5 124.5t132.5 86t165 56t192.5 31q24 3 57.5 6.5t56.5 5.5t52 5.5t48.5 7.5t41 9t35.5 12.5t26 16.5t17.5 21t5.5 27v13q0 143 -73 210.5t-201 67.5q-133 0 -222 -60.5t-122 -149.5
l-291 67q35 102 100 179.5t149.5 124t180.5 69.5t203 23q57 0 110.5 -6t113 -22.5t110.5 -42.5t98 -68t80.5 -96.5t53 -131t19.5 -168.5v-1021h-302zM1075 536v209q-32 -37 -329 -75q-73 -9 -127.5 -25t-98.5 -43.5t-66.5 -70.5t-22.5 -101q0 -101 75 -157t198 -56
q166 0 268.5 94.5t102.5 224.5z" />
    <glyph glyph-name="adieresis" unicode="&#xe4;" horiz-adv-x="1579" 
d="M497 1742q-70 0 -120.5 49.5t-50.5 116.5q0 71 50 119.5t121 48.5q74 0 122 -48t48 -120q0 -68 -48.5 -117t-121.5 -49zM1067 1742q-71 0 -121.5 49.5t-50.5 116.5q0 71 50 119.5t122 48.5q73 0 121.5 -48t48.5 -120q0 -68 -49 -117t-121 -49zM1082 0v191h-14
q-21 -40 -55 -77t-85 -71.5t-125.5 -55t-161.5 -20.5q-143 0 -258 53.5t-184.5 161.5t-69.5 253q0 94 31.5 168.5t84.5 124.5t132.5 86t165 56t192.5 31q24 3 57.5 6.5t56.5 5.5t52 5.5t48.5 7.5t41 9t35.5 12.5t26 16.5t17.5 21t5.5 27v13q0 143 -73 210.5t-201 67.5
q-133 0 -222 -60.5t-122 -149.5l-291 67q35 102 100 179.5t149.5 124t180.5 69.5t203 23q57 0 110.5 -6t113 -22.5t110.5 -42.5t98 -68t80.5 -96.5t53 -131t19.5 -168.5v-1021h-302zM1075 536v209q-32 -37 -329 -75q-73 -9 -127.5 -25t-98.5 -43.5t-66.5 -70.5t-22.5 -101
q0 -101 75 -157t198 -56q166 0 268.5 94.5t102.5 224.5z" />
    <glyph glyph-name="aring" unicode="&#xe5;" horiz-adv-x="1576" 
d="M451 2029q0 136 100 232.5t246 96.5q145 0 244.5 -96.5t99.5 -232.5q0 -135 -98.5 -227t-245.5 -92t-246.5 92t-99.5 227zM621 2029q0 -70 50 -122t126 -52t126.5 52t50.5 122q0 72 -50.5 125.5t-126.5 53.5t-126 -53.5t-50 -125.5zM1082 0v191h-14q-21 -40 -55 -77
t-85 -71.5t-125.5 -55t-161.5 -20.5q-143 0 -258 53.5t-184.5 161.5t-69.5 253q0 94 31.5 168.5t84.5 124.5t132.5 86t165 56t192.5 31q24 3 57.5 6.5t56.5 5.5t52 5.5t48.5 7.5t41 9t35.5 12.5t26 16.5t17.5 21t5.5 27v13q0 143 -73 210.5t-201 67.5q-133 0 -222 -60.5
t-122 -149.5l-291 67q35 102 100 179.5t149.5 124t180.5 69.5t203 23q57 0 110.5 -6t113 -22.5t110.5 -42.5t98 -68t80.5 -96.5t53 -131t19.5 -168.5v-1021h-302zM1075 536v209q-32 -37 -329 -75q-73 -9 -127.5 -25t-98.5 -43.5t-66.5 -70.5t-22.5 -101q0 -101 75 -157
t198 -56q166 0 268.5 94.5t102.5 224.5z" />
    <glyph glyph-name="ae" unicode="&#xe6;" horiz-adv-x="2553" 
d="M169 1160q35 102 100 179.5t149.5 124t180.5 69.5t202 23q166 0 287 -54.5t187 -148.5q178 203 476 203q109 0 206 -26.5t183.5 -85.5t149 -145t98.5 -213.5t36 -283.5v-99l-1072 -92q30 -184 137 -282t281 -98q266 0 350 227l284 -78q-51 -177 -217 -294t-415 -117
q-395 0 -565 315h-7q-6 -31 -29.5 -70t-68.5 -83t-104 -80t-145.5 -60t-183.5 -24q-110 0 -206 30t-170.5 87t-118 147.5t-43.5 203.5q0 94 31.5 168.5t84.5 124.5t132.5 86t165 56t192.5 31q24 3 58 6.5t57 5.5t51.5 5.5t48.5 7.5t41.5 9t35 12.5t25.5 16.5t17.5 21t5.5 27
v13q0 142 -75 207.5t-203 65.5q-132 0 -218.5 -60.5t-123.5 -152.5zM1750 1295q-170 0 -278.5 -120t-127.5 -333l780 64q0 171 -101.5 280t-272.5 109zM1077 536v209q-32 -37 -329 -75q-151 -19 -232.5 -73.5t-81.5 -166.5q0 -101 75 -157t198 -56q165 0 267.5 94.5
t102.5 224.5z" />
    <glyph glyph-name="ccedilla" unicode="&#xe7;" horiz-adv-x="1577" 
d="M1462 1062l-295 -26q-29 115 -113.5 187t-219.5 72q-189 0 -297 -142.5t-108 -384.5q0 -246 107.5 -391.5t297.5 -145.5q126 0 212.5 66t117.5 183l297 -24q-34 -191 -171 -320.5t-345 -158.5l-10 -49q88 -14 147.5 -71t59.5 -165q0 -140 -115.5 -223.5t-330.5 -83.5
l-9 188q189 0 189 120q0 62 -46 86t-161 33l38 167q-269 43 -423.5 256.5t-154.5 532.5q0 229 85.5 408t245.5 279.5t371 100.5q251 0 423 -135t208 -359z" />
    <glyph glyph-name="egrave" unicode="&#xe8;" horiz-adv-x="1641" 
d="M731 2123l269 -416h-276l-370 416h377zM857 -31q-337 0 -532.5 212t-195.5 571q0 176 49.5 324.5t140.5 254.5t224 165.5t294 59.5q109 0 206 -26.5t183.5 -85.5t149 -145t98.5 -213.5t36 -283.5v-129h-1079q18 -214 127.5 -328t297.5 -114q266 0 350 227l284 -78
q-25 -85 -77.5 -158t-130 -130t-187.5 -90t-238 -33zM836 1295q-158 0 -262.5 -102t-135.5 -287h772q0 171 -101.5 280t-272.5 109z" />
    <glyph glyph-name="eacute" unicode="&#xe9;" horiz-adv-x="1641" 
d="M675 1707l250 416h317l-331 -416h-236zM857 -31q-337 0 -532.5 212t-195.5 571q0 176 49.5 324.5t140.5 254.5t224 165.5t294 59.5q109 0 206 -26.5t183.5 -85.5t149 -145t98.5 -213.5t36 -283.5v-129h-1079q18 -214 127.5 -328t297.5 -114q266 0 350 227l284 -78
q-25 -85 -77.5 -158t-130 -130t-187.5 -90t-238 -33zM836 1295q-158 0 -262.5 -102t-135.5 -287h772q0 171 -101.5 280t-272.5 109z" />
    <glyph glyph-name="ecircumflex" unicode="&#xea;" horiz-adv-x="1641" 
d="M597 1787h-252v15l388 381h184l390 -381v-15h-251l-230 222zM857 -31q-337 0 -532.5 212t-195.5 571q0 176 49.5 324.5t140.5 254.5t224 165.5t294 59.5q109 0 206 -26.5t183.5 -85.5t149 -145t98.5 -213.5t36 -283.5v-129h-1079q18 -214 127.5 -328t297.5 -114
q266 0 350 227l284 -78q-25 -85 -77.5 -158t-130 -130t-187.5 -90t-238 -33zM836 1295q-158 0 -262.5 -102t-135.5 -287h772q0 171 -101.5 280t-272.5 109z" />
    <glyph glyph-name="edieresis" unicode="&#xeb;" horiz-adv-x="1639" 
d="M536 1742q-70 0 -120.5 49.5t-50.5 116.5q0 71 50 119.5t121 48.5q74 0 122 -48t48 -120q0 -68 -48.5 -117t-121.5 -49zM1106 1742q-71 0 -121.5 49.5t-50.5 116.5q0 71 50 119.5t122 48.5q73 0 121.5 -48t48.5 -120q0 -68 -49 -117t-121 -49zM857 -31q-337 0 -532.5 212
t-195.5 571q0 176 49.5 324.5t140.5 254.5t224 165.5t294 59.5q109 0 206 -26.5t183.5 -85.5t149 -145t98.5 -213.5t36 -283.5v-129h-1079q18 -214 127.5 -328t297.5 -114q266 0 350 227l284 -78q-25 -85 -77.5 -158t-130 -130t-187.5 -90t-238 -33zM836 1295
q-158 0 -262.5 -102t-135.5 -287h772q0 171 -101.5 280t-272.5 109z" />
    <glyph glyph-name="igrave" unicode="&#xec;" horiz-adv-x="704" 
d="M264 2115l269 -416h-276l-370 416h377zM506 1536v-1536h-308v1536h308z" />
    <glyph glyph-name="iacute" unicode="&#xed;" horiz-adv-x="704" 
d="M208 1699l250 416h317l-331 -416h-236zM506 1536v-1536h-308v1536h308z" />
    <glyph glyph-name="icircumflex" unicode="&#xee;" horiz-adv-x="704" 
d="M130 1779h-252v15l388 381h184l390 -381v-15h-251l-230 222zM506 1536v-1536h-308v1536h308z" />
    <glyph glyph-name="idieresis" unicode="&#xef;" horiz-adv-x="755" 
d="M93 1742q-70 0 -120.5 49.5t-50.5 116.5q0 71 50 119.5t121 48.5q74 0 122 -48t48 -120q0 -68 -48.5 -117t-121.5 -49zM663 1742q-71 0 -121.5 49.5t-50.5 116.5q0 71 50 119.5t122 48.5q73 0 121.5 -48t48.5 -120q0 -68 -49 -117t-121 -49zM532 1536v-1536h-308v1536
h308z" />
    <glyph glyph-name="eth" unicode="&#xf0;" horiz-adv-x="1601" 
d="M801 -32q-202 0 -355.5 94.5t-235 261.5t-81.5 380q0 156 45.5 291.5t122.5 228.5t179.5 148.5t216.5 61.5q137 5 244.5 -54t166.5 -150h20q-115 265 -311 453l-347 -173l-86 173l272 136q-113 83 -243 152l136 205q188 -97 350 -236l310 155l86 -174l-246 -123
q197 -210 312.5 -474.5t115.5 -571.5q0 -368 -182.5 -576t-489.5 -208zM807 226q183 0 283.5 127.5t100.5 340.5q0 101 -23.5 189.5t-69 158.5t-120.5 110.5t-171 40.5q-180 0 -279 -134.5t-99 -353.5q0 -103 23 -189t68.5 -151.5t118.5 -102t168 -36.5z" />
    <glyph glyph-name="ntilde" unicode="&#xf1;" horiz-adv-x="1642" 
d="M1079 2108l202 -16q0 -154 -87.5 -253t-220.5 -99q-60 0 -112.5 19.5t-84 42.5t-77.5 42.5t-95 19.5q-54 0 -89 -40t-35 -103l-206 10q0 151 88 254t220 103q50 0 101 -19t87 -42.5t85 -42.5t96 -19q54 0 91 40.5t37 102.5zM501 879v-879h-308v1536h296v-229h16
q61 113 174.5 181t267.5 68q107 0 196.5 -34.5t158.5 -104t108 -183.5t39 -263v-971h-307v955q0 151 -83.5 240t-215.5 89q-140 0 -241 -108t-101 -297z" />
    <glyph glyph-name="ograve" unicode="&#xf2;" horiz-adv-x="1667" 
d="M728 2123l269 -416h-276l-370 416h377zM834 -31q-211 0 -371.5 99.5t-247 279.5t-86.5 415t86.5 415t247 279t371.5 99t371.5 -99t247 -279t86.5 -415t-86.5 -415t-247 -279.5t-371.5 -99.5zM834 231q102 0 181 41.5t127 115.5t72.5 168.5t24.5 206.5t-24.5 206.5
t-72.5 168t-127 115.5t-181 42q-103 0 -182 -42t-127 -115.5t-72 -168t-24 -206.5t24 -206.5t72 -168.5t127 -115.5t182 -41.5z" />
    <glyph glyph-name="oacute" unicode="&#xf3;" horiz-adv-x="1667" 
d="M672 1707l250 416h317l-331 -416h-236zM834 -31q-211 0 -371.5 99.5t-247 279.5t-86.5 415t86.5 415t247 279t371.5 99t371.5 -99t247 -279t86.5 -415t-86.5 -415t-247 -279.5t-371.5 -99.5zM834 231q102 0 181 41.5t127 115.5t72.5 168.5t24.5 206.5t-24.5 206.5
t-72.5 168t-127 115.5t-181 42q-103 0 -182 -42t-127 -115.5t-72 -168t-24 -206.5t24 -206.5t72 -168.5t127 -115.5t182 -41.5z" />
    <glyph glyph-name="ocircumflex" unicode="&#xf4;" horiz-adv-x="1667" 
d="M594 1787h-252v15l388 381h184l390 -381v-15h-251l-230 222zM834 -31q-211 0 -371.5 99.5t-247 279.5t-86.5 415t86.5 415t247 279t371.5 99t371.5 -99t247 -279t86.5 -415t-86.5 -415t-247 -279.5t-371.5 -99.5zM834 231q102 0 181 41.5t127 115.5t72.5 168.5
t24.5 206.5t-24.5 206.5t-72.5 168t-127 115.5t-181 42q-103 0 -182 -42t-127 -115.5t-72 -168t-24 -206.5t24 -206.5t72 -168.5t127 -115.5t182 -41.5z" />
    <glyph glyph-name="otilde" unicode="&#xf5;" horiz-adv-x="1667" 
d="M1135 2108l202 -16q0 -154 -87.5 -253t-220.5 -99q-60 0 -112.5 19.5t-84 42.5t-77.5 42.5t-95 19.5q-54 0 -89 -40t-35 -103l-206 10q0 151 88 254t220 103q50 0 101 -19t87 -42.5t85 -42.5t96 -19q54 0 91 40.5t37 102.5zM834 -31q-211 0 -371.5 99.5t-247 279.5
t-86.5 415t86.5 415t247 279t371.5 99t371.5 -99t247 -279t86.5 -415t-86.5 -415t-247 -279.5t-371.5 -99.5zM834 231q102 0 181 41.5t127 115.5t72.5 168.5t24.5 206.5t-24.5 206.5t-72.5 168t-127 115.5t-181 42q-103 0 -182 -42t-127 -115.5t-72 -168t-24 -206.5
t24 -206.5t72 -168.5t127 -115.5t182 -41.5z" />
    <glyph glyph-name="odieresis" unicode="&#xf6;" horiz-adv-x="1667" 
d="M549 1742q-70 0 -120.5 49.5t-50.5 116.5q0 71 50 119.5t121 48.5q74 0 122 -48t48 -120q0 -68 -48.5 -117t-121.5 -49zM1119 1742q-71 0 -121.5 49.5t-50.5 116.5q0 71 50 119.5t122 48.5q73 0 121.5 -48t48.5 -120q0 -68 -49 -117t-121 -49zM834 -31
q-211 0 -371.5 99.5t-247 279.5t-86.5 415t86.5 415t247 279t371.5 99t371.5 -99t247 -279t86.5 -415t-86.5 -415t-247 -279.5t-371.5 -99.5zM834 231q102 0 181 41.5t127 115.5t72.5 168.5t24.5 206.5t-24.5 206.5t-72.5 168t-127 115.5t-181 42q-103 0 -182 -42
t-127 -115.5t-72 -168t-24 -206.5t24 -206.5t72 -168.5t127 -115.5t182 -41.5z" />
    <glyph glyph-name="divide" unicode="&#xf7;" horiz-adv-x="1731" 
d="M672 1421q0 81 51.5 131.5t142.5 50.5q88 0 140.5 -51t52.5 -131q0 -78 -52.5 -128t-140.5 -50q-91 0 -142.5 49.5t-51.5 128.5zM1506 1028v-262h-1280v262h1280zM672 366q0 81 51.5 132.5t142.5 51.5q88 0 140.5 -52t52.5 -132q0 -78 -52.5 -128t-140.5 -50
q-91 0 -142.5 49.5t-51.5 128.5z" />
    <glyph glyph-name="oslash" unicode="&#xf8;" horiz-adv-x="1667" 
d="M380 -89l-167 114l109 162q-193 220 -193 576q0 235 86.5 415t247 279t371.5 99q197 0 353 -88l98 145l167 -114l-108 -159q195 -217 195 -577q0 -235 -86.5 -415t-247 -279.5t-371.5 -99.5q-199 0 -354 90zM429 763q0 -190 65 -321l541 800q-86 53 -201 53
q-103 0 -182 -42t-127 -115.5t-72 -168t-24 -206.5zM834 231q102 0 181 41.5t127 115.5t72.5 168.5t24.5 206.5q0 191 -66 322l-541 -801q86 -53 202 -53z" />
    <glyph glyph-name="ugrave" unicode="&#xf9;" horiz-adv-x="1642" 
d="M720 2123l269 -416h-276l-370 416h377zM1142 644v892h307v-1536h-296v199h-16q-67 -95 -179.5 -157t-262.5 -62q-73 0 -142.5 20.5t-135.5 66t-115 112t-79 166t-30 220.5v971h308v-966q0 -150 83 -234t216 -84q67 0 127 24.5t109 71.5t77.5 123.5t28.5 172.5z" />
    <glyph glyph-name="uacute" unicode="&#xfa;" horiz-adv-x="1642" 
d="M664 1707l250 416h317l-331 -416h-236zM1142 644v892h307v-1536h-296v199h-16q-67 -95 -179.5 -157t-262.5 -62q-73 0 -142.5 20.5t-135.5 66t-115 112t-79 166t-30 220.5v971h308v-966q0 -150 83 -234t216 -84q67 0 127 24.5t109 71.5t77.5 123.5t28.5 172.5z" />
    <glyph glyph-name="ucircumflex" unicode="&#xfb;" horiz-adv-x="1642" 
d="M586 1787h-252v15l388 381h184l390 -381v-15h-251l-230 222zM1142 644v892h307v-1536h-296v199h-16q-67 -95 -179.5 -157t-262.5 -62q-73 0 -142.5 20.5t-135.5 66t-115 112t-79 166t-30 220.5v971h308v-966q0 -150 83 -234t216 -84q67 0 127 24.5t109 71.5t77.5 123.5
t28.5 172.5z" />
    <glyph glyph-name="udieresis" unicode="&#xfc;" horiz-adv-x="1642" 
d="M536 1742q-70 0 -120.5 49.5t-50.5 116.5q0 71 50 119.5t121 48.5q74 0 122 -48t48 -120q0 -68 -48.5 -117t-121.5 -49zM1106 1742q-71 0 -121.5 49.5t-50.5 116.5q0 71 50 119.5t122 48.5q73 0 121.5 -48t48.5 -120q0 -68 -49 -117t-121 -49zM1142 644v892h307v-1536
h-296v199h-16q-67 -95 -179.5 -157t-262.5 -62q-73 0 -142.5 20.5t-135.5 66t-115 112t-79 166t-30 220.5v971h308v-966q0 -150 83 -234t216 -84q67 0 127 24.5t109 71.5t77.5 123.5t28.5 172.5z" />
    <glyph glyph-name="yacute" unicode="&#xfd;" horiz-adv-x="1600" 
d="M634 1707l250 416h317l-331 -416h-236zM606 -111l42 112l-565 1535h325l383 -1124h18l383 1124h325l-655 -1775q-62 -166 -181.5 -262t-298.5 -96q-113 0 -191 33l72 254q137 -35 211 6t132 193z" />
    <glyph glyph-name="thorn" unicode="&#xfe;" horiz-adv-x="1696" 
d="M193 2048h308v-730h18q19 33 38.5 60t55.5 62.5t77.5 59t104.5 40t136 16.5q136 0 252.5 -54t201.5 -153t133.5 -249.5t48.5 -334.5t-47.5 -334t-132 -250.5t-200.5 -155t-253 -54.5q-283 0 -415 239h-18v-786h-308v2624zM1268 768q0 238 -102.5 382.5t-296.5 144.5
q-129 0 -217.5 -68t-129.5 -184.5t-41 -274.5q0 -159 41.5 -278t130.5 -189t216 -70q192 0 295.5 148.5t103.5 388.5z" />
    <glyph glyph-name="ydieresis" unicode="&#xff;" horiz-adv-x="1535" 
d="M483 1742q-70 0 -120.5 49.5t-50.5 116.5q0 71 50 119.5t121 48.5q74 0 122 -48t48 -120q0 -68 -48.5 -117t-121.5 -49zM1053 1742q-71 0 -121.5 49.5t-50.5 116.5q0 71 50 119.5t122 48.5q73 0 121.5 -48t48.5 -120q0 -68 -49 -117t-121 -49zM606 -111l42 112l-565 1535
h325l383 -1124h18l383 1124h325l-655 -1775q-62 -166 -181.5 -262t-298.5 -96q-113 0 -191 33l72 254q137 -35 211 6t132 193z" />
    <glyph glyph-name="Amacron" unicode="&#x100;" horiz-adv-x="1988" 
d="M1473 2494v-214h-944v214h944zM411 0h-336l753 2048h333l753 -2048h-337l-172 496h-822zM982 1642l-305 -878h634l-305 878h-24z" />
    <glyph glyph-name="amacron" unicode="&#x101;" horiz-adv-x="1576" 
d="M1275 2010v-214h-944v214h944zM1082 0v191h-14q-21 -40 -55 -77t-85 -71.5t-125.5 -55t-161.5 -20.5q-143 0 -258 53.5t-184.5 161.5t-69.5 253q0 94 31.5 168.5t84.5 124.5t132.5 86t165 56t192.5 31q24 3 57.5 6.5t56.5 5.5t52 5.5t48.5 7.5t41 9t35.5 12.5t26 16.5
t17.5 21t5.5 27v13q0 143 -73 210.5t-201 67.5q-133 0 -222 -60.5t-122 -149.5l-291 67q35 102 100 179.5t149.5 124t180.5 69.5t203 23q57 0 110.5 -6t113 -22.5t110.5 -42.5t98 -68t80.5 -96.5t53 -131t19.5 -168.5v-1021h-302zM1075 536v209q-32 -37 -329 -75
q-73 -9 -127.5 -25t-98.5 -43.5t-66.5 -70.5t-22.5 -101q0 -101 75 -157t198 -56q166 0 268.5 94.5t102.5 224.5z" />
    <glyph glyph-name="Abreve" unicode="&#x102;" horiz-adv-x="1988" 
d="M1188 2570h249q0 -171 -120.5 -278.5t-322.5 -107.5q-200 0 -319.5 107.5t-119.5 278.5h247q0 -82 47 -135.5t145 -53.5q99 0 146.5 53.5t47.5 135.5zM411 0h-336l753 2048h333l753 -2048h-337l-172 496h-822zM982 1642l-305 -878h634l-305 878h-24z" />
    <glyph glyph-name="abreve" unicode="&#x103;" horiz-adv-x="1576" 
d="M990 2086h249q0 -171 -120.5 -278.5t-322.5 -107.5q-200 0 -319.5 107.5t-119.5 278.5h247q0 -82 47 -135.5t145 -53.5q99 0 146.5 53.5t47.5 135.5zM1082 0v191h-14q-21 -40 -55 -77t-85 -71.5t-125.5 -55t-161.5 -20.5q-143 0 -258 53.5t-184.5 161.5t-69.5 253
q0 94 31.5 168.5t84.5 124.5t132.5 86t165 56t192.5 31q24 3 57.5 6.5t56.5 5.5t52 5.5t48.5 7.5t41 9t35.5 12.5t26 16.5t17.5 21t5.5 27v13q0 143 -73 210.5t-201 67.5q-133 0 -222 -60.5t-122 -149.5l-291 67q35 102 100 179.5t149.5 124t180.5 69.5t203 23
q57 0 110.5 -6t113 -22.5t110.5 -42.5t98 -68t80.5 -96.5t53 -131t19.5 -168.5v-1021h-302zM1075 536v209q-32 -37 -329 -75q-73 -9 -127.5 -25t-98.5 -43.5t-66.5 -70.5t-22.5 -101q0 -101 75 -157t198 -56q166 0 268.5 94.5t102.5 224.5z" />
    <glyph glyph-name="Aogonek" unicode="&#x104;" horiz-adv-x="1988" 
d="M411 0h-336l753 2048h333l753 -2048h-82q-109 -72 -166 -136.5t-57 -140.5q0 -46 22.5 -70t76.5 -24q62 0 123 33l28 -193q-96 -60 -225 -60q-127 0 -208.5 72t-81.5 201q0 202 225 342l-164 472h-822zM982 1642l-305 -878h634l-305 878h-24z" />
    <glyph glyph-name="aogonek" unicode="&#x105;" horiz-adv-x="1576" 
d="M1407 -531q-96 -60 -225 -60q-127 0 -208.5 72t-81.5 201q0 184 190 318v191h-14q-21 -40 -55 -77t-85 -71.5t-125.5 -55t-161.5 -20.5q-143 0 -258 53.5t-184.5 161.5t-69.5 253q0 94 31.5 168.5t84.5 124.5t132.5 86t165 56t192.5 31q24 3 57.5 6.5t56.5 5.5t52 5.5
t48.5 7.5t41 9t35.5 12.5t26 16.5t17.5 21t5.5 27v13q0 143 -73 210.5t-201 67.5q-133 0 -222 -60.5t-122 -149.5l-291 67q35 102 100 179.5t149.5 124t180.5 69.5t203 23q57 0 110.5 -6t113 -22.5t110.5 -42.5t98 -68t80.5 -96.5t53 -131t19.5 -168.5v-1021h-4
q-109 -72 -166 -136.5t-57 -140.5q0 -46 22.5 -70t76.5 -24q62 0 123 33zM1075 536v209q-32 -37 -329 -75q-73 -9 -127.5 -25t-98.5 -43.5t-66.5 -70.5t-22.5 -101q0 -101 75 -157t198 -56q166 0 268.5 94.5t102.5 224.5z" />
    <glyph glyph-name="Cacute" unicode="&#x106;" horiz-adv-x="2028" 
d="M906 2191l250 416h317l-331 -416h-236zM1890 1407l-312 -21q-44 191 -187 295t-334 104q-128 0 -235 -48.5t-187 -142t-124.5 -240t-44.5 -331.5q0 -186 44.5 -332t124.5 -239t187 -141t235 -48q191 0 332.5 103t185.5 292l313 -21q-43 -207 -162.5 -358.5t-291.5 -229
t-377 -77.5q-195 0 -361.5 73t-286.5 207t-188 332.5t-68 438.5q0 241 68 440t188 332.5t286.5 207t361.5 73.5q206 0 378 -78t292 -230.5t163 -360.5z" />
    <glyph glyph-name="cacute" unicode="&#x107;" horiz-adv-x="1577" 
d="M676 1707l250 416h317l-331 -416h-236zM1462 1062l-295 -26q-29 115 -113.5 187t-219.5 72q-189 0 -297 -142.5t-108 -384.5q0 -246 107.5 -391.5t297.5 -145.5q126 0 212.5 66t117.5 183l297 -24q-39 -217 -207.5 -352t-419.5 -135q-214 0 -375 102t-245.5 282.5
t-84.5 414.5q0 229 85.5 408t245.5 279.5t371 100.5q251 0 423 -135t208 -359z" />
    <glyph glyph-name="Ccircumflex" unicode="&#x108;" horiz-adv-x="2028" 
d="M828 2271h-252v15l388 381h184l390 -381v-15h-251l-230 222zM1890 1407l-312 -21q-44 191 -187 295t-334 104q-128 0 -235 -48.5t-187 -142t-124.5 -240t-44.5 -331.5q0 -186 44.5 -332t124.5 -239t187 -141t235 -48q191 0 332.5 103t185.5 292l313 -21
q-43 -207 -162.5 -358.5t-291.5 -229t-377 -77.5q-195 0 -361.5 73t-286.5 207t-188 332.5t-68 438.5q0 241 68 440t188 332.5t286.5 207t361.5 73.5q206 0 378 -78t292 -230.5t163 -360.5z" />
    <glyph glyph-name="ccircumflex" unicode="&#x109;" horiz-adv-x="1577" 
d="M598 1787h-252v15l388 381h184l390 -381v-15h-251l-230 222zM1462 1062l-295 -26q-29 115 -113.5 187t-219.5 72q-189 0 -297 -142.5t-108 -384.5q0 -246 107.5 -391.5t297.5 -145.5q126 0 212.5 66t117.5 183l297 -24q-39 -217 -207.5 -352t-419.5 -135q-214 0 -375 102
t-245.5 282.5t-84.5 414.5q0 229 85.5 408t245.5 279.5t371 100.5q251 0 423 -135t208 -359z" />
    <glyph glyph-name="Cdotaccent" unicode="&#x10a;" horiz-adv-x="2028" 
d="M880 2404q0 75 47 122.5t130 47.5t131 -47.5t48 -122.5q0 -72 -48 -118t-131 -46t-130 46t-47 118zM1890 1407l-312 -21q-44 191 -187 295t-334 104q-128 0 -235 -48.5t-187 -142t-124.5 -240t-44.5 -331.5q0 -186 44.5 -332t124.5 -239t187 -141t235 -48
q191 0 332.5 103t185.5 292l313 -21q-43 -207 -162.5 -358.5t-291.5 -229t-377 -77.5q-195 0 -361.5 73t-286.5 207t-188 332.5t-68 438.5q0 241 68 440t188 332.5t286.5 207t361.5 73.5q206 0 378 -78t292 -230.5t163 -360.5z" />
    <glyph glyph-name="cdotaccent" unicode="&#x10b;" horiz-adv-x="1577" 
d="M650 1920q0 75 47 122.5t130 47.5t131 -47.5t48 -122.5q0 -72 -48 -118t-131 -46t-130 46t-47 118zM1462 1062l-295 -26q-29 115 -113.5 187t-219.5 72q-189 0 -297 -142.5t-108 -384.5q0 -246 107.5 -391.5t297.5 -145.5q126 0 212.5 66t117.5 183l297 -24
q-39 -217 -207.5 -352t-419.5 -135q-214 0 -375 102t-245.5 282.5t-84.5 414.5q0 229 85.5 408t245.5 279.5t371 100.5q251 0 423 -135t208 -359z" />
    <glyph glyph-name="Ccaron" unicode="&#x10c;" horiz-adv-x="2028" 
d="M828 2599l229 -222l230 222h251v-15l-390 -381h-184l-388 381v15h252zM1890 1407l-312 -21q-44 191 -187 295t-334 104q-128 0 -235 -48.5t-187 -142t-124.5 -240t-44.5 -331.5q0 -186 44.5 -332t124.5 -239t187 -141t235 -48q191 0 332.5 103t185.5 292l313 -21
q-43 -207 -162.5 -358.5t-291.5 -229t-377 -77.5q-195 0 -361.5 73t-286.5 207t-188 332.5t-68 438.5q0 241 68 440t188 332.5t286.5 207t361.5 73.5q206 0 378 -78t292 -230.5t163 -360.5z" />
    <glyph glyph-name="ccaron" unicode="&#x10d;" horiz-adv-x="1577" 
d="M598 2115l229 -222l230 222h251v-15l-390 -381h-184l-388 381v15h252zM1462 1062l-295 -26q-29 115 -113.5 187t-219.5 72q-189 0 -297 -142.5t-108 -384.5q0 -246 107.5 -391.5t297.5 -145.5q126 0 212.5 66t117.5 183l297 -24q-39 -217 -207.5 -352t-419.5 -135
q-214 0 -375 102t-245.5 282.5t-84.5 414.5q0 229 85.5 408t245.5 279.5t371 100.5q251 0 423 -135t208 -359z" />
    <glyph glyph-name="Dcaron" unicode="&#x10e;" horiz-adv-x="2004" 
d="M599 2599l229 -222l230 222h251v-15l-390 -381h-184l-388 381v15h252zM876 0h-661v2048h680q448 0 702 -271.5t254 -749.5q0 -482 -257.5 -754.5t-717.5 -272.5zM877 1770h-345v-1492h327q338 0 508.5 191.5t170.5 557.5q0 362 -168 552.5t-493 190.5z" />
    <glyph glyph-name="dcaron" unicode="&#x10f;" horiz-adv-x="1846" 
d="M1899 2142v-158q-2 -152 -45.5 -302t-125.5 -258l-208 63q113 263 113 486v169h266zM1503 0h-301v210h-23q-132 -239 -418 -239q-136 0 -252 54.5t-200.5 155t-132 250.5t-47.5 334t48.5 334.5t133.5 249.5t201 153t252 54q279 0 415 -238h16v730h308v-2048zM427 768
q0 -240 104 -388.5t296 -148.5q96 0 170.5 40t121.5 112t71 169.5t24 215.5q0 241 -98 384t-289 143q-194 0 -297 -144.5t-103 -382.5z" />
    <glyph glyph-name="Dcroat" unicode="&#x110;" horiz-adv-x="2034" 
d="M906 0h-661v917h-189v209h189v922h680q448 0 702 -271.5t254 -749.5q0 -482 -257.5 -754.5t-717.5 -272.5zM972 1126v-209h-410v-639h327q338 0 508.5 191.5t170.5 557.5q0 362 -168 552.5t-493 190.5h-345v-644h410z" />
    <glyph glyph-name="dcroat" unicode="&#x111;" horiz-adv-x="1736" 
d="M1503 0h-301v210h-23q-132 -239 -418 -239q-136 0 -252 54.5t-200.5 155t-132 250.5t-47.5 334t48.5 334.5t133.5 249.5t201 153t252 54q279 0 415 -238h16v381h-385v209h385v140h308v-140h223v-209h-223v-1699zM427 768q0 -240 104 -388.5t296 -148.5q96 0 170.5 40
t121.5 112t71 169.5t24 215.5q0 241 -98 384t-289 143q-194 0 -297 -144.5t-103 -382.5z" />
    <glyph glyph-name="Emacron" unicode="&#x112;" horiz-adv-x="1675" 
d="M1354 2494v-214h-944v214h944zM1504 272v-272h-1289v2048h1278v-272h-961v-614h845v-273h-845v-617h972z" />
    <glyph glyph-name="emacron" unicode="&#x113;" horiz-adv-x="1641" 
d="M1305 2010v-214h-944v214h944zM857 -31q-337 0 -532.5 212t-195.5 571q0 176 49.5 324.5t140.5 254.5t224 165.5t294 59.5q109 0 206 -26.5t183.5 -85.5t149 -145t98.5 -213.5t36 -283.5v-129h-1079q18 -214 127.5 -328t297.5 -114q266 0 350 227l284 -78
q-25 -85 -77.5 -158t-130 -130t-187.5 -90t-238 -33zM836 1295q-158 0 -262.5 -102t-135.5 -287h772q0 171 -101.5 280t-272.5 109z" />
    <glyph glyph-name="Ebreve" unicode="&#x114;" horiz-adv-x="1675" 
d="M1069 2570h249q0 -171 -120.5 -278.5t-322.5 -107.5q-200 0 -319.5 107.5t-119.5 278.5h247q0 -82 47 -135.5t145 -53.5q99 0 146.5 53.5t47.5 135.5zM1504 272v-272h-1289v2048h1278v-272h-961v-614h845v-273h-845v-617h972z" />
    <glyph glyph-name="ebreve" unicode="&#x115;" horiz-adv-x="1641" 
d="M1020 2086h249q0 -171 -120.5 -278.5t-322.5 -107.5q-200 0 -319.5 107.5t-119.5 278.5h247q0 -82 47 -135.5t145 -53.5q99 0 146.5 53.5t47.5 135.5zM857 -31q-337 0 -532.5 212t-195.5 571q0 176 49.5 324.5t140.5 254.5t224 165.5t294 59.5q109 0 206 -26.5
t183.5 -85.5t149 -145t98.5 -213.5t36 -283.5v-129h-1079q18 -214 127.5 -328t297.5 -114q266 0 350 227l284 -78q-25 -85 -77.5 -158t-130 -130t-187.5 -90t-238 -33zM836 1295q-158 0 -262.5 -102t-135.5 -287h772q0 171 -101.5 280t-272.5 109z" />
    <glyph glyph-name="Edotaccent" unicode="&#x116;" horiz-adv-x="1675" 
d="M698 2404q0 75 47 122.5t130 47.5t131 -47.5t48 -122.5q0 -72 -48 -118t-131 -46t-130 46t-47 118zM1504 272v-272h-1289v2048h1278v-272h-961v-614h845v-273h-845v-617h972z" />
    <glyph glyph-name="edotaccent" unicode="&#x117;" horiz-adv-x="1641" 
d="M649 1920q0 75 47 122.5t130 47.5t131 -47.5t48 -122.5q0 -72 -48 -118t-131 -46t-130 46t-47 118zM857 -31q-337 0 -532.5 212t-195.5 571q0 176 49.5 324.5t140.5 254.5t224 165.5t294 59.5q109 0 206 -26.5t183.5 -85.5t149 -145t98.5 -213.5t36 -283.5v-129h-1079
q18 -214 127.5 -328t297.5 -114q266 0 350 227l284 -78q-25 -85 -77.5 -158t-130 -130t-187.5 -90t-238 -33zM836 1295q-158 0 -262.5 -102t-135.5 -287h772q0 171 -101.5 280t-272.5 109z" />
    <glyph glyph-name="Eogonek" unicode="&#x118;" horiz-adv-x="1675" 
d="M1504 272v-272h-111q-109 -72 -166 -136.5t-57 -140.5q0 -46 22.5 -70t76.5 -24q62 0 123 33l28 -193q-96 -60 -225 -60q-127 0 -208.5 72t-81.5 201q0 185 189 318h-879v2048h1278v-272h-961v-614h845v-273h-845v-617h972z" />
    <glyph glyph-name="eogonek" unicode="&#x119;" horiz-adv-x="1641" 
d="M1269 -453q-96 -60 -225 -60q-127 0 -208.5 72t-81.5 201q0 115 73 209q-214 7 -372 105t-242 272.5t-84 405.5q0 176 49.5 324.5t140.5 254.5t224 165.5t294 59.5q109 0 206 -26.5t183.5 -85.5t149 -145t98.5 -213.5t36 -283.5v-129h-1079q18 -214 127.5 -328
t297.5 -114q266 0 350 227l284 -78q-33 -112 -113 -203.5t-202 -145.5q-76 -57 -116 -112t-40 -118q0 -46 22.5 -70t76.5 -24q62 0 123 33zM836 1295q-158 0 -262.5 -102t-135.5 -287h772q0 171 -101.5 280t-272.5 109z" />
    <glyph glyph-name="Ecaron" unicode="&#x11a;" horiz-adv-x="1675" 
d="M646 2599l229 -222l230 222h251v-15l-390 -381h-184l-388 381v15h252zM1504 272v-272h-1289v2048h1278v-272h-961v-614h845v-273h-845v-617h972z" />
    <glyph glyph-name="ecaron" unicode="&#x11b;" horiz-adv-x="1641" 
d="M597 2115l229 -222l230 222h251v-15l-390 -381h-184l-388 381v15h252zM857 -31q-337 0 -532.5 212t-195.5 571q0 176 49.5 324.5t140.5 254.5t224 165.5t294 59.5q109 0 206 -26.5t183.5 -85.5t149 -145t98.5 -213.5t36 -283.5v-129h-1079q18 -214 127.5 -328t297.5 -114
q266 0 350 227l284 -78q-25 -85 -77.5 -158t-130 -130t-187.5 -90t-238 -33zM836 1295q-158 0 -262.5 -102t-135.5 -287h772q0 171 -101.5 280t-272.5 109z" />
    <glyph glyph-name="Gcircumflex" unicode="&#x11c;" horiz-adv-x="2063" 
d="M822 2271h-252v15l388 381h184l390 -381v-15h-251l-230 222zM1902 1042v-259q0 -182 -64.5 -334.5t-177.5 -256.5t-267 -162t-331 -58q-197 0 -364 72.5t-288 206t-189 332t-68 440.5t67.5 441t187 332.5t284 206.5t357.5 73q304 0 526 -173t313 -486l-321 -21
q-61 189 -199.5 289t-318.5 100q-124 0 -229 -48.5t-184.5 -141t-124.5 -239.5t-45 -333t45.5 -332.5t126 -239t188.5 -140.5t236 -48q232 0 382 144.5t150 375.5h-467v259h775z" />
    <glyph glyph-name="gcircumflex" unicode="&#x11d;" horiz-adv-x="1696" 
d="M623 1787h-252v15l388 381h184l390 -381v-15h-251l-230 222zM1202 1533h301v-1519q0 -148 -54 -263t-150 -186.5t-220 -108t-271 -36.5q-218 0 -376 78t-236 193l190 190l49.5 -50.5t60.5 -50.5t81.5 -50t99 -32.5t125.5 -14.5q177 0 287.5 89.5t109.5 265.5v217h-22
q-132 -228 -416 -228q-133 0 -247 48.5t-200.5 140.5t-135.5 236t-49 325q0 180 48.5 327.5t133.5 246t201 152t252 53.5q279 0 415 -238h23v215zM427 780q0 -230 104 -362.5t296 -132.5q189 0 288 131t99 364q0 232 -99 373.5t-288 141.5q-193 0 -296.5 -143t-103.5 -372z
" />
    <glyph glyph-name="Gbreve" unicode="&#x11e;" horiz-adv-x="2063" 
d="M1245 2570h249q0 -171 -120.5 -278.5t-322.5 -107.5q-200 0 -319.5 107.5t-119.5 278.5h247q0 -82 47 -135.5t145 -53.5q99 0 146.5 53.5t47.5 135.5zM1902 1042v-259q0 -182 -64.5 -334.5t-177.5 -256.5t-267 -162t-331 -58q-197 0 -364 72.5t-288 206t-189 332
t-68 440.5t67.5 441t187 332.5t284 206.5t357.5 73q304 0 526 -173t313 -486l-321 -21q-61 189 -199.5 289t-318.5 100q-124 0 -229 -48.5t-184.5 -141t-124.5 -239.5t-45 -333t45.5 -332.5t126 -239t188.5 -140.5t236 -48q232 0 382 144.5t150 375.5h-467v259h775z" />
    <glyph glyph-name="gbreve" unicode="&#x11f;" horiz-adv-x="1696" 
d="M1046 2086h249q0 -171 -120.5 -278.5t-322.5 -107.5q-200 0 -319.5 107.5t-119.5 278.5h247q0 -82 47 -135.5t145 -53.5q99 0 146.5 53.5t47.5 135.5zM1202 1533h301v-1519q0 -148 -54 -263t-150 -186.5t-220 -108t-271 -36.5q-218 0 -376 78t-236 193l190 190
l49.5 -50.5t60.5 -50.5t81.5 -50t99 -32.5t125.5 -14.5q177 0 287.5 89.5t109.5 265.5v217h-22q-132 -228 -416 -228q-133 0 -247 48.5t-200.5 140.5t-135.5 236t-49 325q0 180 48.5 327.5t133.5 246t201 152t252 53.5q279 0 415 -238h23v215zM427 780q0 -230 104 -362.5
t296 -132.5q189 0 288 131t99 364q0 232 -99 373.5t-288 141.5q-193 0 -296.5 -143t-103.5 -372z" />
    <glyph glyph-name="Gdotaccent" unicode="&#x120;" horiz-adv-x="2063" 
d="M874 2404q0 75 47 122.5t130 47.5t131 -47.5t48 -122.5q0 -72 -48 -118t-131 -46t-130 46t-47 118zM1902 1042v-259q0 -182 -64.5 -334.5t-177.5 -256.5t-267 -162t-331 -58q-197 0 -364 72.5t-288 206t-189 332t-68 440.5t67.5 441t187 332.5t284 206.5t357.5 73
q304 0 526 -173t313 -486l-321 -21q-61 189 -199.5 289t-318.5 100q-124 0 -229 -48.5t-184.5 -141t-124.5 -239.5t-45 -333t45.5 -332.5t126 -239t188.5 -140.5t236 -48q232 0 382 144.5t150 375.5h-467v259h775z" />
    <glyph glyph-name="gdotaccent" unicode="&#x121;" horiz-adv-x="1696" 
d="M675 1920q0 75 47 122.5t130 47.5t131 -47.5t48 -122.5q0 -72 -48 -118t-131 -46t-130 46t-47 118zM1202 1533h301v-1519q0 -148 -54 -263t-150 -186.5t-220 -108t-271 -36.5q-218 0 -376 78t-236 193l190 190l49.5 -50.5t60.5 -50.5t81.5 -50t99 -32.5t125.5 -14.5
q177 0 287.5 89.5t109.5 265.5v217h-22q-132 -228 -416 -228q-133 0 -247 48.5t-200.5 140.5t-135.5 236t-49 325q0 180 48.5 327.5t133.5 246t201 152t252 53.5q279 0 415 -238h23v215zM427 780q0 -230 104 -362.5t296 -132.5q189 0 288 131t99 364q0 232 -99 373.5
t-288 141.5q-193 0 -296.5 -143t-103.5 -372z" />
    <glyph glyph-name="Gcommaaccent" unicode="&#x122;" horiz-adv-x="2063" 
d="M1902 1042v-259q0 -182 -64.5 -334.5t-177.5 -256.5t-267 -162t-331 -58q-197 0 -364 72.5t-288 206t-189 332t-68 440.5t67.5 441t187 332.5t284 206.5t357.5 73q304 0 526 -173t313 -486l-321 -21q-61 189 -199.5 289t-318.5 100q-124 0 -229 -48.5t-184.5 -141
t-124.5 -239.5t-45 -333t45.5 -332.5t126 -239t188.5 -140.5t236 -48q232 0 382 144.5t150 375.5h-467v259h775zM1185 -135v-158q-2 -152 -45.5 -302t-125.5 -258l-208 63q113 263 113 486v169h266z" />
    <glyph glyph-name="gcommaaccent" unicode="&#x123;" horiz-adv-x="1696" 
d="M702 1739v181q0 127 60.5 250.5t140.5 186.5l177 -118q-87 -151 -87 -333l-1 -167h-290zM1202 1533h301v-1519q0 -148 -54 -263t-150 -186.5t-220 -108t-271 -36.5q-218 0 -376 78t-236 193l190 190l49.5 -50.5t60.5 -50.5t81.5 -50t99 -32.5t125.5 -14.5
q177 0 287.5 89.5t109.5 265.5v217h-22q-132 -228 -416 -228q-133 0 -247 48.5t-200.5 140.5t-135.5 236t-49 325q0 180 48.5 327.5t133.5 246t201 152t252 53.5q279 0 415 -238h23v215zM427 780q0 -230 104 -362.5t296 -132.5q189 0 288 131t99 364q0 232 -99 373.5
t-288 141.5q-193 0 -296.5 -143t-103.5 -372z" />
    <glyph glyph-name="Hcircumflex" unicode="&#x124;" horiz-adv-x="2042" 
d="M814 2271h-252v15l388 381h184l390 -381v-15h-251l-230 222zM532 2048v-886h978v886h317v-2048h-317v889h-978v-889h-317v2048h317z" />
    <glyph glyph-name="hcircumflex" unicode="&#x125;" horiz-adv-x="1628" 
d="M664 2312h-252v15l388 381h184l390 -381v-15h-251l-230 222zM501 892v-892h-308v2048h303v-711h16q65 96 176.5 157.5t259.5 61.5q220 0 353.5 -151t133.5 -434v-971h-307v972q0 147 -74.5 229.5t-209.5 82.5q-146 0 -244.5 -101.5t-98.5 -290.5z" />
    <glyph glyph-name="Hbar" unicode="&#x126;" horiz-adv-x="2006" 
d="M535 2048v-403h978v403h317v-403h157v-220h-157v-1425h-317v889h-978v-889h-318v1425h-162v220h162v403h318zM535 1162h978v263h-978v-263z" />
    <glyph glyph-name="hbar" unicode="&#x127;" horiz-adv-x="1658" 
d="M531 892v-892h-308v1701h-264v209h264v138h303v-138h349v-209h-349v-364h16q65 96 176.5 157.5t259.5 61.5q220 0 353.5 -151t133.5 -434v-971h-307v972q0 147 -74.5 229.5t-209.5 82.5q-146 0 -244.5 -101.5t-98.5 -290.5z" />
    <glyph glyph-name="Itilde" unicode="&#x128;" horiz-adv-x="747" 
d="M663 2591l202 -16q0 -154 -87.5 -253t-220.5 -99q-60 0 -112.5 19.5t-84 42.5t-77.5 42.5t-95 19.5q-54 0 -89 -40t-35 -103l-206 10q0 151 88 254t220 103q50 0 101 -19t87 -42.5t85 -42.5t96 -19q54 0 91 40.5t37 102.5zM532 2048v-2048h-317v2048h317z" />
    <glyph glyph-name="itilde" unicode="&#x129;" horiz-adv-x="851" 
d="M727 2108l202 -16q0 -154 -87.5 -253t-220.5 -99q-60 0 -112.5 19.5t-84 42.5t-77.5 42.5t-95 19.5q-54 0 -89 -40t-35 -103l-206 10q0 151 88 254t220 103q50 0 101 -19t87 -42.5t85 -42.5t96 -19q54 0 91 40.5t37 102.5zM581 1536v-1536h-308v1536h308z" />
    <glyph glyph-name="Imacron" unicode="&#x12a;" horiz-adv-x="747" 
d="M841 2494v-214h-944v214h944zM532 2048v-2048h-317v2048h317z" />
    <glyph glyph-name="imacron" unicode="&#x12b;" horiz-adv-x="704" 
d="M838 2002v-214h-944v214h944zM506 1536v-1536h-308v1536h308z" />
    <glyph glyph-name="Ibreve" unicode="&#x12c;" horiz-adv-x="747" 
d="M556 2570h249q0 -171 -120.5 -278.5t-322.5 -107.5q-200 0 -319.5 107.5t-119.5 278.5h247q0 -82 47 -135.5t145 -53.5q99 0 146.5 53.5t47.5 135.5zM532 2048v-2048h-317v2048h317z" />
    <glyph glyph-name="ibreve" unicode="&#x12d;" horiz-adv-x="704" 
d="M553 2078h249q0 -171 -120.5 -278.5t-322.5 -107.5q-200 0 -319.5 107.5t-119.5 278.5h247q0 -82 47 -135.5t145 -53.5q99 0 146.5 53.5t47.5 135.5zM506 1536v-1536h-308v1536h308z" />
    <glyph glyph-name="Iogonek" unicode="&#x12e;" horiz-adv-x="747" 
d="M532 2048v-2048h-53q-100 -68 -153.5 -130.5t-53.5 -135.5q0 -46 22.5 -70t76.5 -24q62 0 123 33l28 -193q-96 -60 -225 -60q-127 0 -208.5 72t-81.5 201q0 193 208 331v2024h317z" />
    <glyph glyph-name="iogonek" unicode="&#x12f;" horiz-adv-x="704" 
d="M351 1712q-84 0 -138.5 53t-54.5 129q0 73 55 127.5t138 54.5t138 -54.5t55 -127.5q0 -76 -54.5 -129t-138.5 -53zM506 1536v-1536h-34q-109 -72 -166 -136.5t-57 -140.5q0 -46 22.5 -70t76.5 -24q62 0 123 33l28 -193q-96 -60 -225 -60q-127 0 -208.5 72t-81.5 201
q0 195 214 335v1519h308z" />
    <glyph glyph-name="Idotaccent" unicode="&#x130;" horiz-adv-x="747" 
d="M185 2404q0 75 47 122.5t130 47.5t131 -47.5t48 -122.5q0 -72 -48 -118t-131 -46t-130 46t-47 118zM532 2048v-2048h-317v2048h317z" />
    <glyph glyph-name="dotlessi" unicode="&#x131;" horiz-adv-x="704" 
d="M506 1536v-1536h-308v1536h308z" />
    <glyph glyph-name="IJ" unicode="&#x132;" horiz-adv-x="2487" 
d="M788 2048v-2048h-317v2048h317zM1973 598v1450h316v-1450q0 -293 -172 -459.5t-458 -166.5q-131 0 -243.5 38t-196 109t-131.5 180t-48 242h312q1 -139 91.5 -219.5t226.5 -80.5q48 0 91 11t82.5 37.5t67.5 66.5t45 102t17 140z" />
    <glyph glyph-name="ij" unicode="&#x133;" horiz-adv-x="1718" 
d="M607 1712q-84 0 -138.5 53t-54.5 129q0 73 55 127.5t138 54.5t138 -54.5t55 -127.5q0 -76 -54.5 -129t-138.5 -53zM1366 1712q-84 0 -138.5 53t-54.5 129q0 73 55 127.5t138 54.5t138 -54.5t55 -127.5q0 -76 -54.5 -129t-138.5 -53zM762 1536v-1536h-308v1536h308z
M1213 1536h308v-1628q0 -233 -129 -360.5t-364 -127.5h-86v265h61q111 0 160.5 58.5t49.5 167.5v1625z" />
    <glyph glyph-name="Jcircumflex" unicode="&#x134;" horiz-adv-x="1484" 
d="M896 2271h-252v15l388 381h184l390 -381v-15h-251l-230 222zM970 598v1450h316v-1450q0 -293 -172 -459.5t-458 -166.5q-131 0 -243.5 38t-196 109t-131.5 180t-48 242h312q1 -139 91.5 -219.5t226.5 -80.5q48 0 91 11t82.5 37.5t67.5 66.5t45 102t17 140z" />
    <glyph glyph-name="jcircumflex" unicode="&#x135;" horiz-adv-x="758" 
d="M179 1725h-252v15l388 381h184l390 -381v-15h-251l-230 222zM253 1536h308v-1628q0 -233 -129 -360.5t-364 -127.5h-86v265h61q111 0 160.5 58.5t49.5 167.5v1625z" />
    <glyph glyph-name="Kcommaaccent" unicode="&#x136;" horiz-adv-x="1904" 
d="M1444 0l-660 893l-252 -280v-613h-317v2048h317v-965h25l873 965h415l-863 -932l843 -1116h-381zM1060 -42v-158q-2 -152 -45.5 -302t-125.5 -258l-208 63q113 263 113 486v169h266z" />
    <glyph glyph-name="kcommaaccent" unicode="&#x137;" horiz-adv-x="1528" 
d="M1155 0l-495 686l-159 -175v-511h-308v2048h308v-1145h25l555 633h369l-586 -655l637 -881h-346zM891 -124v-158q-2 -152 -45.5 -302t-125.5 -258l-208 63q113 263 113 486v169h266z" />
    <glyph glyph-name="kgreenlandic" unicode="&#x138;" horiz-adv-x="1791" 
d="M1155 0l-458 593h-149v-593h-330v1488h330v-596h116l468 596h406l-576 -720l611 -768h-418z" />
    <glyph glyph-name="Lacute" unicode="&#x139;" horiz-adv-x="1579" 
d="M224 2191l250 416h317l-331 -416h-236zM1444 272v-272h-1229v2048h317v-1776h912z" />
    <glyph glyph-name="lacute" unicode="&#x13a;" horiz-adv-x="694" 
d="M195 2225l250 416h317l-331 -416h-236zM501 2048v-2048h-308v2048h308z" />
    <glyph glyph-name="Lcommaaccent" unicode="&#x13b;" horiz-adv-x="1579" 
d="M1444 272v-272h-1229v2048h317v-1776h912zM970 -108v-158q-2 -152 -45.5 -302t-125.5 -258l-208 63q113 263 113 486v169h266z" />
    <glyph glyph-name="lcommaaccent" unicode="&#x13c;" horiz-adv-x="694" 
d="M501 2048v-2048h-308v2048h308zM458 -113v-158q-2 -152 -45.5 -302t-125.5 -258l-208 63q113 263 113 486v169h266z" />
    <glyph glyph-name="Lcaron" unicode="&#x13d;" horiz-adv-x="1579" 
d="M1444 272v-272h-1229v2048h317v-1776h912zM1156 2031v-158q-2 -152 -45.5 -302t-125.5 -258l-208 63q113 263 113 486v169h266z" />
    <glyph glyph-name="lcaron" unicode="&#x13e;" horiz-adv-x="844" 
d="M953 2142v-158q-2 -152 -45.5 -302t-125.5 -258l-208 63q113 263 113 486v169h266zM501 2048v-2048h-308v2048h308z" />
    <glyph glyph-name="Ldot" unicode="&#x13f;" horiz-adv-x="1579" 
d="M1444 272v-272h-1229v2048h317v-1776h912zM804 1144q0 75 47 122.5t130 47.5t131 -47.5t48 -122.5q0 -72 -48 -118t-131 -46t-130 46t-47 118z" />
    <glyph glyph-name="ldot" unicode="&#x140;" horiz-adv-x="914" 
d="M501 2048v-2048h-308v2048h308zM633 1095q0 75 47 122.5t130 47.5t131 -47.5t48 -122.5q0 -72 -48 -118t-131 -46t-130 46t-47 118z" />
    <glyph glyph-name="L_slash" unicode="&#x141;" horiz-adv-x="1661" 
d="M1499 272v-272h-1229v898l-197 -59v200l197 60v949h317v-853l334 102v-202l-334 -101v-722h912z" />
    <glyph glyph-name="lslash" unicode="&#x142;" horiz-adv-x="694" 
d="M705 1300v-199l-204 -73v-1028h-308v918l-207 -74v199l207 74v931h308v-821z" />
    <glyph glyph-name="Nacute" unicode="&#x143;" horiz-adv-x="2039" 
d="M886 2191l250 416h317l-331 -416h-236zM1824 2048v-2048h-309l-964 1494h-19v-1494h-317v2048h310l966 -1499h19v1499h314z" />
    <glyph glyph-name="nacute" unicode="&#x144;" horiz-adv-x="1642" 
d="M676 1707l250 416h317l-331 -416h-236zM501 879v-879h-308v1536h296v-229h16q61 113 174.5 181t267.5 68q107 0 196.5 -34.5t158.5 -104t108 -183.5t39 -263v-971h-307v955q0 151 -83.5 240t-215.5 89q-140 0 -241 -108t-101 -297z" />
    <glyph glyph-name="Ncommaaccent" unicode="&#x145;" horiz-adv-x="2039" 
d="M1824 2048v-2048h-309l-964 1494h-19v-1494h-317v2048h310l966 -1499h19v1499h314zM1147 -113v-158q-2 -152 -45.5 -302t-125.5 -258l-208 63q113 263 113 486v169h266z" />
    <glyph glyph-name="ncommaaccent" unicode="&#x146;" horiz-adv-x="1642" 
d="M501 879v-879h-308v1536h296v-229h16q61 113 174.5 181t267.5 68q107 0 196.5 -34.5t158.5 -104t108 -183.5t39 -263v-971h-307v955q0 151 -83.5 240t-215.5 89q-140 0 -241 -108t-101 -297zM958 -124v-158q-2 -152 -45.5 -302t-125.5 -258l-208 63q113 263 113 486v169
h266z" />
    <glyph glyph-name="Ncaron" unicode="&#x147;" horiz-adv-x="2039" 
d="M808 2599l229 -222l230 222h251v-15l-390 -381h-184l-388 381v15h252zM1824 2048v-2048h-309l-964 1494h-19v-1494h-317v2048h310l966 -1499h19v1499h314z" />
    <glyph glyph-name="ncaron" unicode="&#x148;" horiz-adv-x="1642" 
d="M598 2115l229 -222l230 222h251v-15l-390 -381h-184l-388 381v15h252zM501 879v-879h-308v1536h296v-229h16q61 113 174.5 181t267.5 68q107 0 196.5 -34.5t158.5 -104t108 -183.5t39 -263v-971h-307v955q0 151 -83.5 240t-215.5 89q-140 0 -241 -108t-101 -297z" />
    <glyph glyph-name="napostrophe" unicode="&#x149;" horiz-adv-x="1642" 
d="M121 2146v-158q-2 -152 -45.5 -302t-125.5 -258l-208 63q113 263 113 486v169h266zM501 879v-879h-308v1536h296v-229h16q61 113 174.5 181t267.5 68q107 0 196.5 -34.5t158.5 -104t108 -183.5t39 -263v-971h-307v955q0 151 -83.5 240t-215.5 89q-140 0 -241 -108
t-101 -297z" />
    <glyph glyph-name="Eng" unicode="&#x14a;" horiz-adv-x="2039" 
d="M1824 2048v-2170q0 -112 -38 -202t-103.5 -147t-152 -87t-185.5 -30q-113 0 -161 12v258q72 -6 93 -6q233 0 233 214v118l-959 1486h-19v-1494h-317v2048h310l966 -1499h19v1499h314z" />
    <glyph glyph-name="eng" unicode="&#x14b;" horiz-adv-x="1642" 
d="M501 879v-879h-308v1536h296v-229h16q61 113 174.5 181t267.5 68q107 0 196.5 -34.5t158.5 -104t108 -183.5t39 -263v-1089q0 -220 -125.5 -343t-327.5 -123q-109 0 -166 15l12 255q57 -11 95 -11q205 0 205 207v1073q0 151 -83.5 240t-215.5 89q-140 0 -241 -108
t-101 -297z" />
    <glyph glyph-name="Omacron" unicode="&#x14c;" horiz-adv-x="2111" 
d="M1536 2494v-214h-944v214h944zM1958 1023q0 -241 -68 -440t-188 -332.5t-285.5 -206t-359.5 -72.5q-195 0 -361 72.5t-286.5 206t-188.5 332.5t-68 440q0 242 68 441t188.5 332.5t286.5 206.5t361 73q194 0 359.5 -73t285.5 -206.5t188 -332.5t68 -441zM1645 1023
q0 186 -45 333t-124.5 240t-186 141t-232.5 48q-127 0 -233.5 -48.5t-187 -141t-125.5 -239.5t-45 -333t45 -332.5t125.5 -239t187 -140.5t233.5 -48q126 0 232.5 48t186 140.5t124.5 239t45 332.5z" />
    <glyph glyph-name="omacron" unicode="&#x14d;" horiz-adv-x="1667" 
d="M1302 2010v-214h-944v214h944zM834 -31q-211 0 -371.5 99.5t-247 279.5t-86.5 415t86.5 415t247 279t371.5 99t371.5 -99t247 -279t86.5 -415t-86.5 -415t-247 -279.5t-371.5 -99.5zM834 231q102 0 181 41.5t127 115.5t72.5 168.5t24.5 206.5t-24.5 206.5t-72.5 168
t-127 115.5t-181 42q-103 0 -182 -42t-127 -115.5t-72 -168t-24 -206.5t24 -206.5t72 -168.5t127 -115.5t182 -41.5z" />
    <glyph glyph-name="Obreve" unicode="&#x14e;" horiz-adv-x="2111" 
d="M1251 2570h249q0 -171 -120.5 -278.5t-322.5 -107.5q-200 0 -319.5 107.5t-119.5 278.5h247q0 -82 47 -135.5t145 -53.5q99 0 146.5 53.5t47.5 135.5zM1958 1023q0 -241 -68 -440t-188 -332.5t-285.5 -206t-359.5 -72.5q-195 0 -361 72.5t-286.5 206t-188.5 332.5
t-68 440q0 242 68 441t188.5 332.5t286.5 206.5t361 73q194 0 359.5 -73t285.5 -206.5t188 -332.5t68 -441zM1645 1023q0 186 -45 333t-124.5 240t-186 141t-232.5 48q-127 0 -233.5 -48.5t-187 -141t-125.5 -239.5t-45 -333t45 -332.5t125.5 -239t187 -140.5t233.5 -48
q126 0 232.5 48t186 140.5t124.5 239t45 332.5z" />
    <glyph glyph-name="obreve" unicode="&#x14f;" horiz-adv-x="1667" 
d="M1017 2086h249q0 -171 -120.5 -278.5t-322.5 -107.5q-200 0 -319.5 107.5t-119.5 278.5h247q0 -82 47 -135.5t145 -53.5q99 0 146.5 53.5t47.5 135.5zM834 -31q-211 0 -371.5 99.5t-247 279.5t-86.5 415t86.5 415t247 279t371.5 99t371.5 -99t247 -279t86.5 -415
t-86.5 -415t-247 -279.5t-371.5 -99.5zM834 231q102 0 181 41.5t127 115.5t72.5 168.5t24.5 206.5t-24.5 206.5t-72.5 168t-127 115.5t-181 42q-103 0 -182 -42t-127 -115.5t-72 -168t-24 -206.5t24 -206.5t72 -168.5t127 -115.5t182 -41.5z" />
    <glyph glyph-name="Ohungarumlaut" unicode="&#x150;" horiz-adv-x="2111" 
d="M1122 2187l308 420h299l-364 -420h-243zM676 2187l238 420h296l-305 -420h-229zM1958 1023q0 -241 -68 -440t-188 -332.5t-285.5 -206t-359.5 -72.5q-195 0 -361 72.5t-286.5 206t-188.5 332.5t-68 440q0 242 68 441t188.5 332.5t286.5 206.5t361 73q194 0 359.5 -73
t285.5 -206.5t188 -332.5t68 -441zM1645 1023q0 186 -45 333t-124.5 240t-186 141t-232.5 48q-127 0 -233.5 -48.5t-187 -141t-125.5 -239.5t-45 -333t45 -332.5t125.5 -239t187 -140.5t233.5 -48q126 0 232.5 48t186 140.5t124.5 239t45 332.5z" />
    <glyph glyph-name="ohungarumlaut" unicode="&#x151;" horiz-adv-x="1667" 
d="M888 1703l308 420h299l-364 -420h-243zM442 1703l238 420h296l-305 -420h-229zM834 -31q-211 0 -371.5 99.5t-247 279.5t-86.5 415t86.5 415t247 279t371.5 99t371.5 -99t247 -279t86.5 -415t-86.5 -415t-247 -279.5t-371.5 -99.5zM834 231q102 0 181 41.5t127 115.5
t72.5 168.5t24.5 206.5t-24.5 206.5t-72.5 168t-127 115.5t-181 42q-103 0 -182 -42t-127 -115.5t-72 -168t-24 -206.5t24 -206.5t72 -168.5t127 -115.5t182 -41.5z" />
    <glyph glyph-name="OE" unicode="&#x152;" horiz-adv-x="2715" 
d="M970 2048h1558v-272h-961v-614h845v-273h-845v-617h972v-272h-1569q-234 0 -415 102.5t-281 288.5t-100 425v420q0 239 99.5 424t280.5 286.5t416 101.5zM970 265h279v1518h-279q-222 0 -345.5 -138.5t-123.5 -408.5v-420q0 -270 125 -410.5t344 -140.5z" />
    <glyph glyph-name="oe" unicode="&#x153;" horiz-adv-x="2743" 
d="M834 -31q-211 0 -371.5 99.5t-247 279.5t-86.5 415t86.5 415t247 279t371.5 99q179 0 321.5 -71.5t235.5 -203.5q93 131 235 203t321 72q109 0 206 -26.5t183.5 -85.5t149 -145t98.5 -213.5t36 -283.5v-129h-1079q18 -214 127.5 -328t297.5 -114q266 0 350 227l284 -78
q-25 -85 -77.5 -158t-130 -130t-187.5 -90t-238 -33q-189 0 -337 70t-243 200q-94 -129 -235.5 -199.5t-317.5 -70.5zM834 231q102 0 181 41.5t127 115.5t72.5 168.5t24.5 206.5t-24.5 206.5t-72.5 168t-127 115.5t-181 42q-103 0 -182 -42t-127 -115.5t-72 -168t-24 -206.5
t24 -206.5t72 -168.5t127 -115.5t182 -41.5zM1946 1295q-158 0 -262.5 -102t-135.5 -287h772q0 171 -101.5 280t-272.5 109z" />
    <glyph glyph-name="Racute" unicode="&#x154;" horiz-adv-x="1788" 
d="M752 2191l250 416h317l-331 -416h-236zM1353 0l-394 782h-427v-782h-317v2048h717q178 0 314.5 -48t220.5 -134t126 -199.5t42 -250.5q0 -207 -93 -350.5t-265 -219.5l434 -846h-358zM532 1776v-717h381q409 0 409 353q0 59 -11.5 110t-39.5 98.5t-71.5 81.5t-111.5 54
t-156 20h-400z" />
    <glyph glyph-name="racute" unicode="&#x155;" horiz-adv-x="1123" 
d="M423 1707l250 416h317l-331 -416h-236zM1096 1505l-99 -275q-61 32 -137 32q-80 0 -148.5 -34.5t-113.5 -91t-70.5 -126t-26.5 -141.5v-869h-308v1536h304v-242h18q33 113 140.5 189t232.5 76q115 0 208 -54z" />
    <glyph glyph-name="Rcommaaccent" unicode="&#x156;" horiz-adv-x="1788" 
d="M1353 0l-394 782h-427v-782h-317v2048h717q178 0 314.5 -48t220.5 -134t126 -199.5t42 -250.5q0 -207 -93 -350.5t-265 -219.5l434 -846h-358zM532 1776v-717h381q409 0 409 353q0 59 -11.5 110t-39.5 98.5t-71.5 81.5t-111.5 54t-156 20h-400zM1006 -119v-158
q-2 -152 -45.5 -302t-125.5 -258l-208 63q113 263 113 486v169h266z" />
    <glyph glyph-name="rcommaaccent" unicode="&#x157;" horiz-adv-x="1123" 
d="M1096 1505l-99 -275q-61 32 -137 32q-80 0 -148.5 -34.5t-113.5 -91t-70.5 -126t-26.5 -141.5v-869h-308v1536h304v-242h18q33 113 140.5 189t232.5 76q115 0 208 -54zM480 -124v-158q-2 -152 -45.5 -302t-125.5 -258l-208 63q113 263 113 486v169h266z" />
    <glyph glyph-name="Rcaron" unicode="&#x158;" horiz-adv-x="1788" 
d="M674 2599l229 -222l230 222h251v-15l-390 -381h-184l-388 381v15h252zM1353 0l-394 782h-427v-782h-317v2048h717q178 0 314.5 -48t220.5 -134t126 -199.5t42 -250.5q0 -207 -93 -350.5t-265 -219.5l434 -846h-358zM532 1776v-717h381q409 0 409 353q0 59 -11.5 110
t-39.5 98.5t-71.5 81.5t-111.5 54t-156 20h-400z" />
    <glyph glyph-name="rcaron" unicode="&#x159;" horiz-adv-x="1123" 
d="M345 2115l229 -222l230 222h251v-15l-390 -381h-184l-388 381v15h252zM1096 1505l-99 -275q-61 32 -137 32q-80 0 -148.5 -34.5t-113.5 -91t-70.5 -126t-26.5 -141.5v-869h-308v1536h304v-242h18q33 113 140.5 189t232.5 76q115 0 208 -54z" />
    <glyph glyph-name="Sacute" unicode="&#x15a;" horiz-adv-x="1784" 
d="M745 2191l250 416h317l-331 -416h-236zM1311 1494q-20 149 -127 228.5t-283 79.5q-181 0 -293.5 -82.5t-112.5 -212.5q0 -110 95.5 -181.5t297.5 -130.5l159 -46q298 -88 442.5 -226.5t144.5 -357.5q0 -268 -201 -433t-544 -165q-328 0 -537 161t-222 444h318
q12 -160 134 -245t307 -85q196 0 317.5 90.5t121.5 231.5q0 120 -94 191.5t-319 139.5l-184 53q-543 159 -543 555q0 169 94.5 300.5t258 202t366.5 70.5q307 0 502.5 -161.5t205.5 -420.5h-304z" />
    <glyph glyph-name="sacute" unicode="&#x15b;" horiz-adv-x="1489" 
d="M604 1707l250 416h317l-331 -416h-236zM1330 1157l-279 -48q-10 35 -29.5 67.5t-53.5 65.5t-89 52.5t-124 19.5q-122 0 -205.5 -57t-83.5 -143q0 -72 60 -124.5t170 -78.5l255 -59q196 -45 300 -149t104 -260q0 -208 -172.5 -341t-455.5 -133q-137 0 -247 32t-185.5 91
t-125 134t-75.5 167l289 62q37 -111 125 -176.5t226 -65.5q136 0 221.5 60t85.5 146q0 73 -52 115.5t-153 66.5l-262 63q-200 49 -307.5 160t-107.5 271q0 207 168.5 334t435.5 127q234 0 375 -103t192 -296z" />
    <glyph glyph-name="Scircumflex" unicode="&#x15c;" horiz-adv-x="1784" 
d="M667 2271h-252v15l388 381h184l390 -381v-15h-251l-230 222zM1311 1494q-20 149 -127 228.5t-283 79.5q-181 0 -293.5 -82.5t-112.5 -212.5q0 -110 95.5 -181.5t297.5 -130.5l159 -46q298 -88 442.5 -226.5t144.5 -357.5q0 -268 -201 -433t-544 -165q-328 0 -537 161
t-222 444h318q12 -160 134 -245t307 -85q196 0 317.5 90.5t121.5 231.5q0 120 -94 191.5t-319 139.5l-184 53q-543 159 -543 555q0 169 94.5 300.5t258 202t366.5 70.5q307 0 502.5 -161.5t205.5 -420.5h-304z" />
    <glyph glyph-name="scircumflex" unicode="&#x15d;" horiz-adv-x="1489" 
d="M526 1787h-252v15l388 381h184l390 -381v-15h-251l-230 222zM1330 1157l-279 -48q-10 35 -29.5 67.5t-53.5 65.5t-89 52.5t-124 19.5q-122 0 -205.5 -57t-83.5 -143q0 -72 60 -124.5t170 -78.5l255 -59q196 -45 300 -149t104 -260q0 -208 -172.5 -341t-455.5 -133
q-137 0 -247 32t-185.5 91t-125 134t-75.5 167l289 62q37 -111 125 -176.5t226 -65.5q136 0 221.5 60t85.5 146q0 73 -52 115.5t-153 66.5l-262 63q-200 49 -307.5 160t-107.5 271q0 207 168.5 334t435.5 127q234 0 375 -103t192 -296z" />
    <glyph glyph-name="Scedilla" unicode="&#x15e;" horiz-adv-x="1784" 
d="M1311 1494q-20 149 -127 228.5t-283 79.5q-181 0 -293.5 -82.5t-112.5 -212.5q0 -110 95.5 -181.5t297.5 -130.5l159 -46q298 -88 442.5 -226.5t144.5 -357.5q0 -241 -164.5 -400.5t-452.5 -190.5l-14 -70q88 -14 147.5 -71t59.5 -165q0 -140 -115.5 -223.5t-330.5 -83.5
l-9 188q189 0 189 120q0 62 -46 86t-161 33l42 184q-285 27 -461 184.5t-188 415.5h318q12 -160 134 -245t307 -85q196 0 317.5 90.5t121.5 231.5q0 120 -94 191.5t-319 139.5l-184 53q-543 159 -543 555q0 169 94.5 300.5t258 202t366.5 70.5q307 0 502.5 -161.5
t205.5 -420.5h-304z" />
    <glyph glyph-name="scedilla" unicode="&#x15f;" horiz-adv-x="1489" 
d="M1330 1157l-279 -48q-10 35 -29.5 67.5t-53.5 65.5t-89 52.5t-124 19.5q-122 0 -205.5 -57t-83.5 -143q0 -72 60 -124.5t170 -78.5l255 -59q196 -45 300 -149t104 -260q0 -179 -129.5 -304.5t-351.5 -158.5l-12 -56q88 -14 147.5 -71t59.5 -165q0 -140 -115.5 -223.5
t-330.5 -83.5l-9 188q189 0 189 120q0 62 -46 86t-161 33l38 165q-224 21 -357 133.5t-183 286.5l289 62q37 -111 125 -176.5t226 -65.5q136 0 221.5 60t85.5 146q0 73 -52 115.5t-153 66.5l-262 63q-200 49 -307.5 160t-107.5 271q0 207 168.5 334t435.5 127
q234 0 375 -103t192 -296z" />
    <glyph glyph-name="Scaron" unicode="&#x160;" horiz-adv-x="1784" 
d="M667 2599l229 -222l230 222h251v-15l-390 -381h-184l-388 381v15h252zM1311 1494q-20 149 -127 228.5t-283 79.5q-181 0 -293.5 -82.5t-112.5 -212.5q0 -110 95.5 -181.5t297.5 -130.5l159 -46q298 -88 442.5 -226.5t144.5 -357.5q0 -268 -201 -433t-544 -165
q-328 0 -537 161t-222 444h318q12 -160 134 -245t307 -85q196 0 317.5 90.5t121.5 231.5q0 120 -94 191.5t-319 139.5l-184 53q-543 159 -543 555q0 169 94.5 300.5t258 202t366.5 70.5q307 0 502.5 -161.5t205.5 -420.5h-304z" />
    <glyph glyph-name="scaron" unicode="&#x161;" horiz-adv-x="1489" 
d="M526 2115l229 -222l230 222h251v-15l-390 -381h-184l-388 381v15h252zM1330 1157l-279 -48q-10 35 -29.5 67.5t-53.5 65.5t-89 52.5t-124 19.5q-122 0 -205.5 -57t-83.5 -143q0 -72 60 -124.5t170 -78.5l255 -59q196 -45 300 -149t104 -260q0 -208 -172.5 -341
t-455.5 -133q-137 0 -247 32t-185.5 91t-125 134t-75.5 167l289 62q37 -111 125 -176.5t226 -65.5q136 0 221.5 60t85.5 146q0 73 -52 115.5t-153 66.5l-262 63q-200 49 -307.5 160t-107.5 271q0 207 168.5 334t435.5 127q234 0 375 -103t192 -296z" />
    <glyph glyph-name="Tcommaaccent" unicode="&#x162;" horiz-adv-x="1812" 
d="M1694 2048v-272h-630v-1776h-40l-14 -67q88 -14 147.5 -71t59.5 -165q0 -140 -115.5 -223.5t-330.5 -83.5l-9 188q189 0 189 120q0 62 -46 86t-161 33l42 183h-38v1776h-630v272h1576z" />
    <glyph glyph-name="tcommaaccent" unicode="&#x163;" horiz-adv-x="1015" 
d="M489 5h61q-121 42 -196.5 141.5t-75.5 246.5v891h-213v252h213v328h308v-328h300v-252h-300v-830q0 -62 14 -103.5t41.5 -61.5t56.5 -27.5t69 -7.5q48 0 101 12l55 -253q-81 -31 -201 -33l-11 -52q88 -14 147.5 -71t59.5 -165q0 -140 -115.5 -223.5t-330.5 -83.5l-9 188
q189 0 189 120q0 62 -46 86t-161 33z" />
    <glyph glyph-name="Tcaron" unicode="&#x164;" horiz-adv-x="1812" 
d="M674 2599l229 -222l230 222h251v-15l-390 -381h-184l-388 381v15h252zM1694 2048v-272h-630v-1776h-316v1776h-630v272h1576z" />
    <glyph glyph-name="tcaron" unicode="&#x165;" horiz-adv-x="1055" 
d="M1067 2321v-158q-2 -152 -45.5 -302t-125.5 -258l-208 63q113 263 113 486v169h266zM886 1536v-252h-300v-830q0 -62 14 -103.5t41.5 -61.5t56.5 -27.5t69 -7.5q48 0 101 12l55 -253q-85 -33 -220 -33q-82 0 -157.5 27t-135.5 77.5t-96 130.5t-36 178v891h-213v252h213
v328h308v-328h300z" />
    <glyph glyph-name="Tbar" unicode="&#x166;" horiz-adv-x="1812" 
d="M1307 1311v-209h-243v-1102h-316v1102h-357v209h357v465h-630v272h1576v-272h-630v-465h243z" />
    <glyph glyph-name="tbar" unicode="&#x167;" horiz-adv-x="1015" 
d="M874 1012v-209h-288v-349q0 -62 14 -103.5t41.5 -61.5t56.5 -27.5t69 -7.5q48 0 101 12l55 -253q-85 -33 -220 -33q-82 0 -157.5 27t-135.5 77.5t-96 130.5t-36 178v410h-320v209h320v272h-213v252h213v328h308v-328h300v-252h-300v-272h288z" />
    <glyph glyph-name="Utilde" unicode="&#x168;" horiz-adv-x="2044" 
d="M1323 2591l202 -16q0 -154 -87.5 -253t-220.5 -99q-60 0 -112.5 19.5t-84 42.5t-77.5 42.5t-95 19.5q-54 0 -89 -40t-35 -103l-206 10q0 151 88 254t220 103q50 0 101 -19t87 -42.5t85 -42.5t96 -19q54 0 91 40.5t37 102.5zM1513 2048h317v-1355q0 -169 -62.5 -307.5
t-171.5 -229.5t-255.5 -140t-316.5 -49t-317.5 49t-257 140t-172 229.5t-62.5 307.5v1355h317v-1350q0 -136 67.5 -238t178 -152.5t246.5 -50.5t245.5 50.5t176.5 152.5t67 238v1350z" />
    <glyph glyph-name="utilde" unicode="&#x169;" horiz-adv-x="1642" 
d="M1086 2108l202 -16q0 -154 -87.5 -253t-220.5 -99q-60 0 -112.5 19.5t-84 42.5t-77.5 42.5t-95 19.5q-54 0 -89 -40t-35 -103l-206 10q0 151 88 254t220 103q50 0 101 -19t87 -42.5t85 -42.5t96 -19q54 0 91 40.5t37 102.5zM1142 644v892h307v-1536h-296v199h-16
q-67 -95 -179.5 -157t-262.5 -62q-73 0 -142.5 20.5t-135.5 66t-115 112t-79 166t-30 220.5v971h308v-966q0 -150 83 -234t216 -84q67 0 127 24.5t109 71.5t77.5 123.5t28.5 172.5z" />
    <glyph glyph-name="Umacron" unicode="&#x16a;" horiz-adv-x="2044" 
d="M1501 2494v-214h-944v214h944zM1513 2048h317v-1355q0 -169 -62.5 -307.5t-171.5 -229.5t-255.5 -140t-316.5 -49t-317.5 49t-257 140t-172 229.5t-62.5 307.5v1355h317v-1350q0 -136 67.5 -238t178 -152.5t246.5 -50.5t245.5 50.5t176.5 152.5t67 238v1350z" />
    <glyph glyph-name="umacron" unicode="&#x16b;" horiz-adv-x="1642" 
d="M1294 2010v-214h-944v214h944zM1142 644v892h307v-1536h-296v199h-16q-67 -95 -179.5 -157t-262.5 -62q-73 0 -142.5 20.5t-135.5 66t-115 112t-79 166t-30 220.5v971h308v-966q0 -150 83 -234t216 -84q67 0 127 24.5t109 71.5t77.5 123.5t28.5 172.5z" />
    <glyph glyph-name="Ubreve" unicode="&#x16c;" horiz-adv-x="2044" 
d="M1216 2570h249q0 -171 -120.5 -278.5t-322.5 -107.5q-200 0 -319.5 107.5t-119.5 278.5h247q0 -82 47 -135.5t145 -53.5q99 0 146.5 53.5t47.5 135.5zM1513 2048h317v-1355q0 -169 -62.5 -307.5t-171.5 -229.5t-255.5 -140t-316.5 -49t-317.5 49t-257 140t-172 229.5
t-62.5 307.5v1355h317v-1350q0 -136 67.5 -238t178 -152.5t246.5 -50.5t245.5 50.5t176.5 152.5t67 238v1350z" />
    <glyph glyph-name="ubreve" unicode="&#x16d;" horiz-adv-x="1642" 
d="M1009 2086h249q0 -171 -120.5 -278.5t-322.5 -107.5q-200 0 -319.5 107.5t-119.5 278.5h247q0 -82 47 -135.5t145 -53.5q99 0 146.5 53.5t47.5 135.5zM1142 644v892h307v-1536h-296v199h-16q-67 -95 -179.5 -157t-262.5 -62q-73 0 -142.5 20.5t-135.5 66t-115 112
t-79 166t-30 220.5v971h308v-966q0 -150 83 -234t216 -84q67 0 127 24.5t109 71.5t77.5 123.5t28.5 172.5z" />
    <glyph glyph-name="Uring" unicode="&#x16e;" horiz-adv-x="2044" 
d="M677 2513q0 136 100 232.5t246 96.5q145 0 244.5 -96.5t99.5 -232.5q0 -135 -98.5 -227t-245.5 -92t-246.5 92t-99.5 227zM847 2513q0 -70 50 -122t126 -52t126.5 52t50.5 122q0 72 -50.5 125.5t-126.5 53.5t-126 -53.5t-50 -125.5zM1513 2048h317v-1355
q0 -169 -62.5 -307.5t-171.5 -229.5t-255.5 -140t-316.5 -49t-317.5 49t-257 140t-172 229.5t-62.5 307.5v1355h317v-1350q0 -136 67.5 -238t178 -152.5t246.5 -50.5t245.5 50.5t176.5 152.5t67 238v1350z" />
    <glyph glyph-name="uring" unicode="&#x16f;" horiz-adv-x="1642" 
d="M470 2029q0 136 100 232.5t246 96.5q145 0 244.5 -96.5t99.5 -232.5q0 -135 -98.5 -227t-245.5 -92t-246.5 92t-99.5 227zM640 2029q0 -70 50 -122t126 -52t126.5 52t50.5 122q0 72 -50.5 125.5t-126.5 53.5t-126 -53.5t-50 -125.5zM1142 644v892h307v-1536h-296v199h-16
q-67 -95 -179.5 -157t-262.5 -62q-73 0 -142.5 20.5t-135.5 66t-115 112t-79 166t-30 220.5v971h308v-966q0 -150 83 -234t216 -84q67 0 127 24.5t109 71.5t77.5 123.5t28.5 172.5z" />
    <glyph glyph-name="Uhungarumlaut" unicode="&#x170;" horiz-adv-x="2044" 
d="M1087 2187l308 420h299l-364 -420h-243zM641 2187l238 420h296l-305 -420h-229zM1513 2048h317v-1355q0 -169 -62.5 -307.5t-171.5 -229.5t-255.5 -140t-316.5 -49t-317.5 49t-257 140t-172 229.5t-62.5 307.5v1355h317v-1350q0 -136 67.5 -238t178 -152.5t246.5 -50.5
t245.5 50.5t176.5 152.5t67 238v1350z" />
    <glyph glyph-name="uhungarumlaut" unicode="&#x171;" horiz-adv-x="1642" 
d="M880 1703l308 420h299l-364 -420h-243zM434 1703l238 420h296l-305 -420h-229zM1142 644v892h307v-1536h-296v199h-16q-67 -95 -179.5 -157t-262.5 -62q-73 0 -142.5 20.5t-135.5 66t-115 112t-79 166t-30 220.5v971h308v-966q0 -150 83 -234t216 -84q67 0 127 24.5
t109 71.5t77.5 123.5t28.5 172.5z" />
    <glyph glyph-name="Uogonek" unicode="&#x172;" horiz-adv-x="2044" 
d="M1513 2048h317v-1355q0 -145 -46 -267.5t-128.5 -211t-194 -147t-246.5 -83.5q-99 -91 -99 -184q0 -46 22.5 -70t76.5 -24q62 0 123 33l28 -193q-96 -60 -225 -60q-127 0 -208.5 72t-81.5 201q0 116 75 212q-153 14 -282 68.5t-225 145t-150 221t-54 287.5v1355h317
v-1350q0 -136 67.5 -238t178 -152.5t246.5 -50.5t245.5 50.5t176.5 152.5t67 238v1350z" />
    <glyph glyph-name="uogonek" unicode="&#x173;" horiz-adv-x="1642" 
d="M1142 644v892h307v-1536h-132q-109 -72 -166 -136.5t-57 -140.5q0 -46 22.5 -70t76.5 -24q62 0 123 33l28 -193q-96 -60 -225 -60q-127 0 -208.5 72t-81.5 201q0 242 324 395v122h-16q-67 -95 -179.5 -157t-262.5 -62q-73 0 -142.5 20.5t-135.5 66t-115 112t-79 166
t-30 220.5v971h308v-966q0 -150 83 -234t216 -84q67 0 127 24.5t109 71.5t77.5 123.5t28.5 172.5z" />
    <glyph glyph-name="Wcircumflex" unicode="&#x174;" horiz-adv-x="2744" 
d="M1143 2271h-252v15l388 381h184l390 -381v-15h-251l-230 222zM381 2048l401 -1575h19l410 1575h321l411 -1576h18l402 1576h305l-547 -2048h-325l-416 1521h-16l-416 -1521h-325l-548 2048h306z" />
    <glyph glyph-name="wcircumflex" unicode="&#x175;" horiz-adv-x="2261" 
d="M901 1787h-252v15l388 381h184l390 -381v-15h-251l-230 222zM2165 1536l-438 -1536h-277l-308 1075h-24l-307 -1075h-276l-439 1536h309l275 -1094h17l299 1094h271l296 -1089h17l276 1089h309z" />
    <glyph glyph-name="Ycircumflex" unicode="&#x176;" horiz-adv-x="1967" 
d="M755 2271h-252v15l388 381h184l390 -381v-15h-251l-230 222zM427 2048l545 -928h24l544 928h355l-753 -1224v-824h-317v824l-753 1224h355z" />
    <glyph glyph-name="ycircumflex" unicode="&#x177;" horiz-adv-x="1600" 
d="M556 1787h-252v15l388 381h184l390 -381v-15h-251l-230 222zM606 -111l42 112l-565 1535h325l383 -1124h18l383 1124h325l-655 -1775q-62 -166 -181.5 -262t-298.5 -96q-113 0 -191 33l72 254q137 -35 211 6t132 193z" />
    <glyph glyph-name="Ydieresis" unicode="&#x178;" horiz-adv-x="1967" 
d="M700 2227q-70 0 -120.5 49.5t-50.5 116.5q0 71 50 119.5t121 48.5q74 0 122 -48t48 -120q0 -68 -48.5 -117t-121.5 -49zM1270 2227q-71 0 -121.5 49.5t-50.5 116.5q0 71 50 119.5t122 48.5q73 0 121.5 -48t48.5 -120q0 -68 -49 -117t-121 -49zM427 2048l545 -928h24
l544 928h355l-753 -1224v-824h-317v824l-753 1224h355z" />
    <glyph glyph-name="Zacute" unicode="&#x179;" horiz-adv-x="1780" 
d="M741 2191l250 416h317l-331 -416h-236zM1623 272v-272h-1457v209l1064 1567h-1072v272h1457v-209l-1065 -1567h1073z" />
    <glyph glyph-name="zacute" unicode="&#x17a;" horiz-adv-x="1530" 
d="M610 1707l250 416h317l-331 -416h-236zM1376 265v-265h-1210v219l800 1052h-802v265h1193v-211l-799 -1060h818z" />
    <glyph glyph-name="Zdotaccent" unicode="&#x17b;" horiz-adv-x="1780" 
d="M715 2404q0 75 47 122.5t130 47.5t131 -47.5t48 -122.5q0 -72 -48 -118t-131 -46t-130 46t-47 118zM1623 272v-272h-1457v209l1064 1567h-1072v272h1457v-209l-1065 -1567h1073z" />
    <glyph glyph-name="zdotaccent" unicode="&#x17c;" horiz-adv-x="1530" 
d="M584 1920q0 75 47 122.5t130 47.5t131 -47.5t48 -122.5q0 -72 -48 -118t-131 -46t-130 46t-47 118zM1376 265v-265h-1210v219l800 1052h-802v265h1193v-211l-799 -1060h818z" />
    <glyph glyph-name="Zcaron" unicode="&#x17d;" horiz-adv-x="1780" 
d="M663 2599l229 -222l230 222h251v-15l-390 -381h-184l-388 381v15h252zM1623 272v-272h-1457v209l1064 1567h-1072v272h1457v-209l-1065 -1567h1073z" />
    <glyph glyph-name="zcaron" unicode="&#x17e;" horiz-adv-x="1530" 
d="M532 2115l229 -222l230 222h251v-15l-390 -381h-184l-388 381v15h252zM1376 265v-265h-1210v219l800 1052h-802v265h1193v-211l-799 -1060h818z" />
    <glyph glyph-name="longs" unicode="&#x17f;" horiz-adv-x="767" 
d="M357 0h-330v1630q0 246 133.5 378t374.5 132q86 0 205 -28l-32 -248q-54 12 -125 12q-110 0 -168 -63.5t-58 -182.5v-1630z" />
    <glyph glyph-name="bbar" unicode="&#x180;" horiz-adv-x="1761" 
d="M260 2048h308v-127h370v-209h-370v-394h18q19 33 38.5 60t55.5 62.5t77.5 59t104.5 40t136 16.5q136 0 252.5 -54t201.5 -153t133.5 -249.5t48.5 -334.5t-47.5 -334t-132 -250.5t-200.5 -155t-253 -54.5q-283 0 -415 239h-25v-210h-301v1712h-238v209h238v127zM1335 768
q0 238 -102.5 382.5t-296.5 144.5q-129 0 -217.5 -68t-129.5 -184.5t-41 -274.5q0 -159 41.5 -278t130.5 -189t216 -70q192 0 295.5 148.5t103.5 388.5z" />
    <glyph glyph-name="Bhook" unicode="&#x181;" horiz-adv-x="2190" 
d="M1360 0h-772v1777h-101q-57 0 -96 -20.5t-58 -58.5t-26 -78.5t-7 -93.5v-92h-289v160q0 201 126.5 327.5t346.5 126.5h836q164 0 292.5 -42t208.5 -117t121 -173.5t41 -216.5q0 -181 -92 -284.5t-249 -143.5v-19q78 -7 150.5 -44t130.5 -99.5t92.5 -156.5t34.5 -204
q0 -120 -41.5 -219t-124.5 -173t-216.5 -115t-307.5 -41zM905 1776v-613h397q169 0 271 84.5t102 230.5q0 63 -20.5 115.5t-62 94t-112 65t-164.5 23.5h-411zM1744 568q0 146 -103 246t-280 100h-456v-642h443q203 0 299.5 80.5t96.5 215.5z" />
    <glyph glyph-name="Btopbar" unicode="&#x182;" horiz-adv-x="1834" 
d="M1484 2048v-272h-952v-548h441q336 0 525 -163t189 -442q0 -280 -190 -451.5t-524 -171.5h-759v2048h1270zM532 266h441q185 0 293 106t108 255q0 143 -107 238t-294 95h-441v-694z" />
    <glyph glyph-name="btopbar" unicode="&#x183;" horiz-adv-x="1751" 
d="M193 2048h1183v-271h-875v-459h18q19 33 38.5 60t55.5 62.5t77.5 59t104.5 40t136 16.5q136 0 252.5 -54t201.5 -153t133.5 -249.5t48.5 -334.5t-47.5 -334t-132 -250.5t-200.5 -155t-253 -54.5q-283 0 -415 239h-25v-210h-301v2048zM1268 768q0 238 -102.5 382.5
t-296.5 144.5q-129 0 -217.5 -68t-129.5 -184.5t-41 -274.5q0 -159 41.5 -278t130.5 -189t216 -70q192 0 295.5 148.5t103.5 388.5z" />
    <glyph glyph-name="Tonesix" unicode="&#x184;" horiz-adv-x="2061" 
d="M29 1776v272h797v-820h441q337 0 526 -163t189 -442q0 -280 -190.5 -451.5t-524.5 -171.5h-758v1776h-480zM826 266h441q185 0 293 106t108 255q0 143 -107 238t-294 95h-441v-694z" />
    <glyph glyph-name="tonesix" unicode="&#x185;" horiz-adv-x="1791" 
d="M338 2112h66v-64h252v-730h18q19 33 38.5 60t55.5 62.5t77.5 59t104.5 40t136 16.5q136 0 252.5 -54t201.5 -153t133.5 -249.5t48.5 -334.5t-47.5 -334t-132 -250.5t-200.5 -155t-253 -54.5q-283 0 -415 239h-25v-210h-301v1440h-10l-237 262v147zM1423 768
q0 238 -102.5 382.5t-296.5 144.5q-129 0 -217.5 -68t-129.5 -184.5t-41 -274.5q0 -159 41.5 -278t130.5 -189t216 -70q192 0 295.5 148.5t103.5 388.5z" />
    <glyph glyph-name="Oopen" unicode="&#x186;" horiz-adv-x="2028" 
d="M143 1407q43 208 163 360.5t292 230.5t378 78q195 0 361.5 -73.5t286.5 -207t188 -332.5t68 -440q0 -240 -68 -438.5t-188 -332.5t-286.5 -207t-361.5 -73q-205 0 -377 77.5t-291.5 229t-162.5 358.5l313 21q44 -189 185.5 -292t332.5 -103q128 0 235 48t187 141
t124.5 239t44.5 332q0 185 -44.5 331.5t-124.5 240t-187 142t-235 48.5q-191 0 -334 -104t-187 -295z" />
    <glyph glyph-name="Chook" unicode="&#x187;" horiz-adv-x="2191" 
d="M1890 1386h-304v1l-8 -1q-44 191 -187 295t-334 104q-128 0 -235 -48.5t-187 -142t-124.5 -240t-44.5 -331.5q0 -186 44.5 -332t124.5 -239t187 -141t235 -48q191 0 332.5 103t185.5 292l313 -21q-43 -207 -162.5 -358.5t-291.5 -229t-377 -77.5q-195 0 -361.5 73
t-286.5 207t-188 332.5t-68 438.5q0 241 68 440t188 332.5t286.5 207t361.5 73.5q347 0 582 -213q59 112 171.5 172.5t253.5 60.5q111 0 160 -12v-255q-56 7 -92 7q-50 0 -91.5 -11.5t-76.5 -36.5t-54.5 -70t-19.5 -108v-224z" />
    <glyph glyph-name="chook" unicode="&#x188;" horiz-adv-x="1732" 
d="M1462 1062l-295 -26q-29 115 -113.5 187t-219.5 72q-189 0 -297 -142.5t-108 -384.5q0 -246 107.5 -391.5t297.5 -145.5q126 0 212.5 66t117.5 183l297 -24q-39 -217 -207.5 -352t-419.5 -135q-214 0 -375 102t-245.5 282.5t-84.5 414.5q0 229 85.5 408t245.5 279.5
t371 100.5q216 0 377 -103q51 113 155.5 173.5t239.5 60.5q95 0 150 -16v-231q-56 9 -86 9q-99 0 -152 -45.5t-53 -156.5v-185z" />
    <glyph glyph-name="Dbar1" unicode="&#x189;" horiz-adv-x="2128" 
d="M1000 0h-661v907h-288v209h288v932h680q448 0 702 -271.5t254 -749.5q0 -482 -257.5 -754.5t-717.5 -272.5zM967 1116v-209h-311v-629h327q338 0 508.5 191.5t170.5 557.5q0 362 -168 552.5t-493 190.5h-345v-654h311z" />
    <glyph glyph-name="Dhook" unicode="&#x18a;" horiz-adv-x="2389" 
d="M1261 0h-661v1770h-113q-58 0 -96.5 -19.5t-57.5 -56t-26 -76t-7 -92.5v-92h-289v160q0 201 126.5 327.5t346.5 126.5h796q448 0 702 -271.5t254 -749.5q0 -482 -257 -754.5t-718 -272.5zM1262 1770h-345v-1492h327q338 0 508.5 191.5t170.5 557.5q0 362 -168 552.5
t-493 190.5z" />
    <glyph glyph-name="Dtopbar" unicode="&#x18b;" horiz-adv-x="1791" 
d="M1632 0h-755q-334 0 -525.5 171.5t-191.5 451.5q0 279 190.5 444.5t526.5 165.5h415v506h-926v279h1266v-2018zM1292 274v684h-415q-187 0 -280.5 -92t-93.5 -239q0 -72 22 -134.5t66 -112t117.5 -78t168.5 -28.5h415z" />
    <glyph glyph-name="dtopbar" unicode="&#x18c;" horiz-adv-x="1669" 
d="M1505 0h-301v210h-23q-132 -239 -417 -239q-137 0 -253 54.5t-200.5 155t-132 250.5t-47.5 334t48.5 334.5t133.5 249.5t201.5 153t252.5 54q278 0 414 -238h16v459h-886v271h1194v-2048zM430 768q0 -240 103.5 -388.5t295.5 -148.5q96 0 171 40t122 112t71 169.5
t24 215.5q0 158 -41 274.5t-129.5 184.5t-217.5 68q-193 0 -296 -144.5t-103 -382.5z" />
    <glyph glyph-name="deltaturn" unicode="&#x18d;" horiz-adv-x="1617" 
d="M1308 -516h-1022v258h588q-72 78 -257 225q-115 98 -196.5 183.5t-151.5 184t-105 204t-35 217.5v28q0 157 46 290.5t131 232t214.5 154t288.5 55.5t288.5 -54.5t215.5 -150t132.5 -226t46.5 -283.5v-28q0 -263 -161.5 -446.5t-431.5 -220.5q-18 -3 -46 -3l74 -67l85 -77
l77 -72l84 -80l69 -69t66 -71v-184zM1162 756v28q0 99 -20 181.5t-61 148t-110.5 102t-161.5 36.5q-91 0 -160.5 -36.5t-111 -102t-62 -148t-20.5 -181.5v-28q0 -150 67.5 -268t167.5 -182q39 -14 102 -14q95 0 167.5 37t116 102.5t65 147t21.5 177.5z" />
    <glyph glyph-name="Eturn" unicode="&#x18e;" horiz-adv-x="1664" 
d="M166 0v272h961v614h-845v273h845v617h-972v272h1289v-2048h-1278z" />
    <glyph glyph-name="Schwa" unicode="&#x18f;" horiz-adv-x="2047" 
d="M1025 -28q-274 0 -464.5 114t-284.5 321t-94 494v195h1343q-2 139 -36.5 253t-103.5 203t-184.5 138.5t-269.5 49.5q-265 0 -507 -95l-68 265q66 39 224.5 80.5t359.5 41.5q222 0 398.5 -70.5t292 -197.5t176.5 -302.5t61 -386.5v-154q0 -206 -66 -384t-179 -301.5
t-268 -193.5t-330 -70zM1025 260q144 0 253 75.5t169 202t74 290.5h-999v-43q0 -115 26.5 -207t83.5 -165t157 -113t236 -40z" />
    <glyph glyph-name="Epsilon1" unicode="&#x190;" horiz-adv-x="1791" 
d="M894 1156h232v-268h-232q-199 0 -296 -78.5t-97 -248.5q0 -158 109.5 -236.5t303.5 -78.5q173 0 277 88t104 222h340q0 -118 -41.5 -216.5t-111 -165.5t-163 -113.5t-195.5 -67.5t-210 -21q-167 0 -302.5 34t-238.5 103.5t-160 184t-57 266.5q0 171 89 289.5t257 176.5
q-148 61 -231 173t-83 261q0 183 91 313t253.5 194.5t381.5 64.5q189 0 346 -66.5t252 -195t95 -296.5h-340q0 127 -98 203.5t-255 76.5q-193 0 -289 -81.5t-96 -213.5q0 -303 365 -303z" />
    <glyph glyph-name="Fhook" unicode="&#x191;" horiz-adv-x="1648" 
d="M1353 1162v-273h-821v-1026q0 -115 -38 -202.5t-103 -137.5t-143 -74.5t-168 -24.5q-119 0 -159 11v251q38 -7 79 -7q215 0 215 187v2182h1273v-272h-956v-614h821z" />
    <glyph glyph-name="florin" unicode="&#x192;" horiz-adv-x="1160" 
d="M984 1488v-241h-284v-1347q0 -242 -121 -371t-343 -129q-100 0 -174 20l20 260q41 -16 132 -16q84 0 129.5 62t45.5 174v1347h-238v241h238v142q0 243 129 376.5t346 133.5q124 0 234 -33l-51 -256q-62 15 -121 15q-111 0 -168.5 -59.5t-57.5 -176.5v-142h284z" />
    <glyph glyph-name="Ghook" unicode="&#x193;" horiz-adv-x="2222" 
d="M1902 1042v-259q0 -182 -64.5 -334.5t-177.5 -256.5t-267 -162t-331 -58q-197 0 -364 72.5t-288 206t-189 332t-68 440.5t67.5 441t187 332.5t284 206.5t357.5 73q340 0 572 -212q55 123 168.5 188.5t270.5 65.5q101 0 160 -16v-254q-67 10 -92 10q-237 0 -237 -206v-256
h-324q-61 189 -199.5 289t-318.5 100q-124 0 -229 -48.5t-184.5 -141t-124.5 -239.5t-45 -333t45.5 -332.5t126 -239t188.5 -140.5t236 -48q232 0 382 144.5t150 375.5h-467v259h775z" />
    <glyph glyph-name="Gamma1" unicode="&#x194;" horiz-adv-x="1873" 
d="M59 2034h352l524 -1249l527 1249h353l-721 -1625l99 -220l87.5 -192t51.5 -133.5t23 -112.5q0 -171 -113.5 -261t-304.5 -90t-306.5 90.5t-115.5 260.5q0 43 23 113t52 134.5l89 194.5l101 224zM833 -244q0 -44 28 -73.5t76 -29.5t75.5 30.5t27.5 72.5q0 47 -22.5 111.5
t-78.5 191.5l-59 -135.5t-31.5 -87.5t-15.5 -80z" />
    <glyph glyph-name="hv" unicode="&#x195;" horiz-adv-x="2539" 
d="M501 892v-892h-308v2048h303v-711h16q65 96 176.5 157.5t259.5 61.5q222 0 354.5 -148.5t132.5 -436.5v-367q0 -85 19 -151.5t48.5 -106.5t70.5 -66t80.5 -35.5t82.5 -9.5q55 0 104 17t95.5 55.5t74.5 115t28 181.5v932h308v-932q0 -306 -164 -469t-446 -163t-445 163
t-163 469v368q0 147 -75.5 229.5t-208.5 82.5q-69 0 -130 -24.5t-109 -72t-76 -123.5t-28 -172z" />
    <glyph glyph-name="Iota1" unicode="&#x196;" horiz-adv-x="1023" 
d="M485 2112v-1630q0 -116 58 -180.5t168 -64.5q58 0 125 15l32 -252q-119 -28 -205 -28q-240 0 -374 133t-134 377v1630h330z" />
    <glyph glyph-name="Istroke" unicode="&#x197;" horiz-adv-x="964" 
d="M940 1181v-209h-295v-972h-317v972h-304v209h304v867h317v-867h295z" />
    <glyph glyph-name="Khook" unicode="&#x198;" horiz-adv-x="1929" 
d="M1444 0l-660 893l-252 -280v-613h-317v2048h317v-965h25l657 725l91 101q87 96 190.5 136.5t208 25.5t204.5 -80l-114 -231q-70 45 -136.5 31.5t-138.5 -94.5l-51 -56l-486 -525l843 -1116h-381z" />
    <glyph glyph-name="khook" unicode="&#x199;" horiz-adv-x="1528" 
d="M1149 0l-481 658l-167 -186v-472h-308v1637q0 115 37 202.5t100.5 137.5t141 74.5t166.5 24.5q111 0 166 -13v-248q-46 8 -86 8q-217 0 -217 -186v-734h20l555 633h374l-588 -656l639 -880h-352z" />
    <glyph glyph-name="lbar" unicode="&#x19a;" horiz-adv-x="991" 
d="M953 1217v-209h-300v-1008h-308v1008h-308v209h308v831h308v-831h300z" />
    <glyph glyph-name="lambdabar" unicode="&#x19b;" horiz-adv-x="1791" 
d="M492 2105q146 0 230 -58t126 -170l142 51v-249l-57 -20l502 -1281q28 -67 58 -97.5t78 -30.5h46l6 -262q-45 -13 -126 -13q-147 0 -230 62t-144 228l-273 720l-344 -985h-359l531 1428l-50 122l-357 -128v247l264 95q-25 41 -59 58.5t-83 17.5q-48 0 -70 -4l-4 248
q73 21 173 21z" />
    <glyph glyph-name="mcapturn" unicode="&#x19c;" horiz-adv-x="2559" 
d="M2039 0l-12 162q-146 -190 -420 -190q-319 0 -429 257q-146 -257 -470 -257q-116 0 -203 31.5t-153 102.5t-100 194.5t-34 298.5v1405h328v-1405q0 -357 237 -357q263 0 339 237q-5 63 -5 120v1405h326v-1405q0 -357 239 -357q258 0 334 230v1532h327v-2004h-304z" />
    <glyph glyph-name="Nhook" unicode="&#x19d;" horiz-adv-x="2039" 
d="M1824 2048v-2048h-309l-964 1494h-19v-1631q0 -115 -38 -202.5t-103 -137.5t-143 -74.5t-168 -24.5q-119 0 -159 11v251q38 -7 79 -7q215 0 215 187v2182h310l966 -1499h19v1499h314z" />
    <glyph glyph-name="nlegrightlong" unicode="&#x19e;" horiz-adv-x="1632" 
d="M495 879v-879h-307v1536h296v-229h16q61 113 174.5 181t267.5 68q107 0 196.5 -34.5t158.5 -104t108 -183.5t39 -263v-1547h-308v1531q0 151 -83.5 240t-215.5 89q-66 0 -127 -26.5t-109 -76t-77 -128t-29 -174.5z" />
    <glyph glyph-name="Obar" unicode="&#x19f;" horiz-adv-x="2111" 
d="M1958 1023q0 -241 -68 -440t-188 -332.5t-285.5 -206t-359.5 -72.5q-195 0 -361 72.5t-286.5 206t-188.5 332.5t-68 440q0 242 68 441t188.5 332.5t286.5 206.5t361 73q194 0 359.5 -73t285.5 -206.5t188 -332.5t68 -441zM1057 1785q-235 0 -394 -160t-190 -462
q135 30 262 31t219 -16.5t204.5 -34.5t219 -23t262.5 18q-13 159 -63 283t-127.5 203t-177 120t-215.5 41zM1057 263q235 0 393 160.5t189 464.5q-115 -26 -223 -31.5t-189.5 5.5t-172.5 25.5l-172 28.5t-189 14.5t-223 -17.5q13 -160 63 -284.5t128 -204t178.5 -120.5
t217.5 -41z" />
    <glyph glyph-name="Ohorn" unicode="&#x1a0;" horiz-adv-x="2154" 
d="M1958 1023q0 -241 -68 -440t-188 -332.5t-285.5 -206t-359.5 -72.5q-195 0 -361 72.5t-286.5 206t-188.5 332.5t-68 440q0 242 68 441t188.5 332.5t286.5 206.5t361 73q188 0 349 -67.5t281 -196.5q186 55 186 366h249q0 -437 -304 -548q140 -256 140 -607zM1645 1023
q0 186 -45 333t-124.5 240t-186 141t-232.5 48q-127 0 -233.5 -48.5t-187 -141t-125.5 -239.5t-45 -333t45 -332.5t125.5 -239t187 -140.5t233.5 -48q126 0 232.5 48t186 140.5t124.5 239t45 332.5z" />
    <glyph glyph-name="ohorn" unicode="&#x1a1;" horiz-adv-x="1713" 
d="M834 -31q-211 0 -371.5 99.5t-247 279.5t-86.5 415t86.5 415t247 279t371.5 99q163 0 296.5 -60t227.5 -172q66 34 90 111.5t24 206.5h230q0 -374 -245 -474q82 -178 82 -405q0 -235 -86.5 -415t-247 -279.5t-371.5 -99.5zM834 231q102 0 181 41.5t127 115.5t72.5 168.5
t24.5 206.5t-24.5 206.5t-72.5 168t-127 115.5t-181 42q-103 0 -182 -42t-127 -115.5t-72 -168t-24 -206.5t24 -206.5t72 -168.5t127 -115.5t182 -41.5z" />
    <glyph glyph-name="OI" unicode="&#x1a2;" horiz-adv-x="2385" 
d="M2247 2004v-2576h-329v2217l-200 -81v-1298q-28 -39 -63.5 -74t-98.5 -77t-138.5 -72t-187 -50.5t-240.5 -20.5q-187 0 -343 63.5t-269 184t-176 304t-63 412.5v132q0 224 63 406.5t175.5 304.5t269 187.5t343.5 65.5q406 0 632 -190l374 162h251zM999 1755
q-246 0 -382 -177.5t-136 -509.5v-132q0 -325 134 -507.5t392 -182.5q86 0 154 12t113 33.5t69 39t48 41.5v1257q-52 56 -139.5 91t-252.5 35z" />
    <glyph glyph-name="oi" unicode="&#x1a3;" horiz-adv-x="1873" 
d="M1776 1488v-2060h-327v1660l-157 -81v-784q-84 -115 -215 -183t-303 -68q-134 0 -245.5 38.5t-190 107t-133 163t-80.5 205t-26 234.5v48q0 155 42 288.5t123.5 237t212.5 163t297 59.5q138 0 252.5 -48.5t196.5 -129.5l311 150h242zM772 237q111 0 191 61v884
q-75 70 -193 70q-79 0 -140.5 -27.5t-99 -73t-61.5 -109.5t-33 -130.5t-9 -143.5v-48q0 -229 86 -356t259 -127z" />
    <glyph glyph-name="Phook" unicode="&#x1a4;" horiz-adv-x="2161" 
d="M1309 728h-404v-728h-317v1777h-101q-57 0 -96 -20.5t-58 -58.5t-26 -78.5t-7 -93.5v-92h-289v160q0 201 126.5 327.5t346.5 126.5h822q181 0 317.5 -48.5t219.5 -138t124 -207t41 -263.5t-41.5 -265t-124.5 -209t-219 -139.5t-314 -49.5zM905 1776v-776h404
q105 0 181 29t120 83t64.5 123t20.5 156q0 385 -389 385h-401z" />
    <glyph glyph-name="phook" unicode="&#x1a5;" horiz-adv-x="1696" 
d="M193 -576v2112q1 99 36.5 174t96.5 119t136 66t163 22q111 0 166 -17v-239q-55 13 -99 13q-174 0 -198 -145v-211h25q19 33 38.5 60t55.5 62.5t77.5 59t104.5 40t136 16.5q136 0 252.5 -54t201.5 -153t133.5 -249.5t48.5 -334.5t-47.5 -334t-132 -250.5t-200.5 -155
t-253 -54.5q-283 0 -415 239h-18v-786h-308zM1268 768q0 238 -102.5 382.5t-296.5 144.5q-129 0 -217.5 -68t-129.5 -184.5t-41 -274.5q0 -159 41.5 -278t130.5 -189t216 -70q192 0 295.5 148.5t103.5 388.5z" />
    <glyph glyph-name="YR" unicode="&#x1a6;" horiz-adv-x="2047" 
d="M1541 -491l-663 1267h-392v-776h-344v2004h1v140h343v-140h358q345 0 532.5 -156t187.5 -449q0 -195 -95 -333t-271 -212l708 -1328v-17h-365zM486 1726v-676h358q183 0 281 92.5t98 242.5q0 161 -93 251t-286 90h-358z" />
    <glyph glyph-name="Tonetwo" unicode="&#x1a7;" horiz-adv-x="1791" 
d="M494 516q0 -125 94.5 -198.5t272.5 -73.5q127 0 223.5 36t156 119t59.5 205h342q0 -122 -44.5 -226.5t-120 -178t-175.5 -125.5t-212 -77t-229 -25q-325 0 -517.5 148t-192.5 400q0 234 158.5 383t501.5 249q223 66 325.5 141t102.5 185q0 125 -92.5 201.5t-270.5 76.5
q-191 0 -287 -91t-96 -246h-342q0 124 50 235.5t140.5 195.5t228.5 133t303 49q316 0 512.5 -156.5t196.5 -399.5q0 -118 -48 -214.5t-140 -169t-206 -126t-265 -98.5q-133 -41 -215.5 -77.5t-130.5 -78.5t-65.5 -87t-17.5 -109z" />
    <glyph glyph-name="tonetwo" unicode="&#x1a8;" horiz-adv-x="1535" 
d="M480 404q0 -82 71 -133t201 -51q58 0 110 13.5t96.5 42t72.5 78.5t31 117h321q0 -94 -41.5 -182.5t-118.5 -159.5t-198.5 -114t-268.5 -43q-270 0 -435.5 126t-165.5 326q0 97 36 171t109 127.5t170 90t233 65.5q178 37 242.5 81t64.5 120q0 80 -64 135t-185 55
q-125 0 -195 -66.5t-70 -159.5h-330q0 204 161.5 338.5t433.5 134.5q128 0 237 -36.5t182 -98t113.5 -143.5t40.5 -172q0 -91 -38 -163.5t-111 -125t-167.5 -88.5t-220.5 -63q-98 -20 -162 -43.5t-97.5 -52.5t-45.5 -58t-12 -68z" />
    <glyph glyph-name="Esh" unicode="&#x1a9;" horiz-adv-x="1791" 
d="M1171 1020v-26l-544 -715h964v-279h-1413v209l632 796l-632 801v212h1363v-281h-913z" />
    <glyph glyph-name="eshlooprev" unicode="&#x1aa;" horiz-adv-x="1617" 
d="M161 1649q0 209 147.5 357t356.5 148q102 0 195 -40t161 -107.5t108.5 -161t40.5 -196.5v-1710q0 -128 46 -185t139 -57q51 0 101 12v-259q-72 -23 -176 -23q-214 0 -327 131.5t-113 380.5v1238q-84 -32 -175 -32q-137 0 -253 68t-183.5 184t-67.5 252zM666 1437
q89 0 146 56t57 160q0 102 -57.5 158.5t-145.5 56.5q-92 0 -150 -56t-58 -159q0 -105 57.5 -160.5t150.5 -55.5z" />
    <glyph glyph-name="tpalatalhook" unicode="&#x1ab;" horiz-adv-x="1021" 
d="M886 1536v-252h-300v-830q0 -62 14 -103.5t41.5 -61.5t56.5 -27.5t69 -7.5q26 0 47 3l109 22v-416q0 -206 -116.5 -322t-305.5 -116q-98 0 -152 15v231q54 -8 88 -8q228 0 228 200v118q-77 6 -145.5 36t-123 80.5t-86.5 127t-32 168.5v891h-213v252h213v328h308v-328h300
z" />
    <glyph glyph-name="Thook" unicode="&#x1ac;" horiz-adv-x="1901" 
d="M1805 2048v-272h-630v-1776h-317v1776h-371q-53 0 -91.5 -19.5t-59 -54.5t-29.5 -75t-9 -87v-93h-274v150q0 207 123 329t340 122h1318z" />
    <glyph glyph-name="thook" unicode="&#x1ad;" horiz-adv-x="1105" 
d="M954 1488v-241h-264v-812q0 -105 40.5 -147t113.5 -42q28 0 119 14v-256q-96 -32 -220 -32q-175 0 -278.5 109t-103.5 336v830h-246v241h246v230q0 116 39.5 203t107 136.5t147.5 73t171 23.5q89 0 167 -21v-220q-42 12 -86 12q-217 0 -217 -207v-230h264z" />
    <glyph glyph-name="Trthook" unicode="&#x1ae;" horiz-adv-x="1812" 
d="M1692 2048v-272h-629v-1913q0 -52 18 -88t51.5 -54t71.5 -25.5t87 -7.5h79v-264h-159q-71 0 -136.5 14.5t-126 47.5t-104.5 82.5t-70.5 124t-26.5 167.5v1916h-630v272h1575z" />
    <glyph glyph-name="Uhorn" unicode="&#x1af;" horiz-adv-x="2366" 
d="M1513 2048h317v-294q52 12 89.5 37t61.5 58.5t38 81.5t19.5 100.5t5.5 121.5h246q0 -278 -107 -429t-353 -182v-849q0 -169 -62.5 -307.5t-171.5 -229.5t-255.5 -140t-316.5 -49t-317.5 49t-257 140t-172 229.5t-62.5 307.5v1355h317v-1350q0 -136 67.5 -238t178 -152.5
t246.5 -50.5t245.5 50.5t176.5 152.5t67 238v1350z" />
    <glyph glyph-name="uhorn" unicode="&#x1b0;" horiz-adv-x="1794" 
d="M1142 644v892h307v-228q43 8 72.5 26t46.5 40.5t25.5 62t10.5 76t2 97.5h221q0 -225 -84.5 -341t-293.5 -138v-1131h-296v199h-16q-67 -95 -179.5 -157t-262.5 -62q-73 0 -142.5 20.5t-135.5 66t-115 112t-79 166t-30 220.5v971h308v-966q0 -150 83 -234t216 -84
q67 0 127 24.5t109 71.5t77.5 123.5t28.5 172.5z" />
    <glyph glyph-name="Upsilon2" unicode="&#x1b1;" horiz-adv-x="1791" 
d="M480 973v-142q0 -284 110.5 -434t309.5 -150q193 0 303.5 150.5t110.5 433.5v142q0 335 -91 521t-255 227v283h696v-278h-297q143 -137 227 -336.5t84 -416.5v-138q0 -252 -98 -448.5t-275 -305.5t-405 -109q-230 0 -409 109t-277.5 305.5t-98.5 448.5v138q0 217 84 416
t227 337h-294v278h684v-283q-159 -41 -247.5 -228.5t-88.5 -519.5z" />
    <glyph glyph-name="Vcursive" unicode="&#x1b2;" horiz-adv-x="1791" 
d="M897 -28q-162 0 -297.5 44.5t-236 129t-156.5 217t-56 300.5v1341h340v-1341q0 -210 106.5 -313.5t299.5 -103.5q191 0 297 103.5t106 313.5v856q0 127 -50.5 178.5t-159.5 51.5q-62 0 -101 -10v268q89 24 174 24q221 0 351 -134.5t130 -377.5v-856q0 -167 -58.5 -300
t-161 -217.5t-237 -129t-290.5 -44.5z" />
    <glyph glyph-name="Yhook" unicode="&#x1b3;" horiz-adv-x="2053" 
d="M427 2048l545 -928h24l360 614l52 87q54 92 125 151.5t148.5 82.5t159.5 16.5t164 -42.5l-74 -247q-80 34 -146.5 11t-120.5 -116l-38 -65l-484 -788v-824h-317v824l-753 1224h355z" />
    <glyph glyph-name="yhook" unicode="&#x1b4;" horiz-adv-x="1696" 
d="M588 -100l39 115l-544 1521h327l362 -1070l307 921l26 79q29 82 63.5 148t84 127t118 98t150.5 44q150 21 295 -59l-51 -226q-97 40 -149 35q-77 -6 -126 -71t-99 -211l-20 -57l-515 -1519q-57 -166 -189 -270.5t-318 -104.5q-111 0 -182 23v262q30 -7 98 -7
q60 0 105.5 9t88.5 32.5t75 68.5t54 112z" />
    <glyph glyph-name="Zbar" unicode="&#x1b5;" horiz-adv-x="1780" 
d="M1623 272v-272h-1457v209l474 698h-212v209h354l448 660h-1072v272h1457v-209l-491 -723h220v-209h-362l-432 -635h1073z" />
    <glyph glyph-name="zbar" unicode="&#x1b6;" horiz-adv-x="1530" 
d="M1376 265v-265h-1210v219l341 449h-199v209h358l300 394h-802v265h1193v-211l-338 -448h205v-209h-362l-304 -403h818z" />
    <glyph glyph-name="Ezh" unicode="&#x1b7;" horiz-adv-x="1873" 
d="M143 96h343q15 -104 42.5 -175t77 -124.5t128 -78.5t189.5 -25q247 0 358 133t111 416q0 302 -117.5 432t-367.5 130h-332v220l620 702h-1018v278h1438v-217l-635 -722q355 -19 553.5 -226t198.5 -597q0 -206 -57.5 -364t-164.5 -258t-254.5 -150.5t-332.5 -50.5
q-179 0 -322 51t-238 143t-150.5 214t-69.5 269z" />
    <glyph glyph-name="Ezhreversed" unicode="&#x1b8;" horiz-adv-x="2047" 
d="M1477 96h341q-14 -147 -70 -269t-151 -214t-238 -143t-322 -51q-185 0 -332.5 50.5t-254.5 150.5t-164.5 258t-57.5 364q0 391 200 597.5t557 225.5l-633 722v217h1432v-278h-1013l617 -702v-220h-332q-251 0 -367.5 -129.5t-116.5 -432.5q0 -283 110.5 -416t354.5 -133
q112 0 191 25t129.5 78.5t77.5 125t42 174.5z" />
    <glyph glyph-name="ezhreversed" unicode="&#x1b9;" horiz-adv-x="1791" 
d="M270 1488h1245v-264h-844l482 -558v-232h-196q-210 0 -313.5 -92.5t-103.5 -296.5q0 -143 99.5 -234t272.5 -91q151 0 246.5 93t95.5 227h327q0 -118 -38.5 -216.5t-103 -165.5t-151 -113.5t-181 -67.5t-195.5 -21q-205 0 -363 68.5t-248.5 203t-90.5 316.5
q0 268 149.5 427.5t426.5 191.5l-517 616z" />
    <glyph glyph-name="ezhtail" unicode="&#x1ba;" horiz-adv-x="1535" 
d="M452 -170q0 -84 73 -133t202 -49q57 0 108 12.5t96.5 40t74 77.5t32.5 118h318q0 -74 -25.5 -146t-78 -135t-126 -111t-175.5 -76t-220 -28q-272 0 -436 124.5t-164 324.5q0 182 135.5 288.5t414.5 163.5q177 36 241 78.5t64 127.5q0 76 -62.5 118t-189.5 42h-274v199
l448 358h-705v264h1199v-194l-452 -405q168 -43 263 -148.5t95 -246.5q0 -78 -27 -142.5t-73.5 -111t-117 -84t-147.5 -62t-175 -45.5q-125 -27 -196 -61t-95.5 -70.5t-24.5 -87.5z" />
    <glyph glyph-name="twostroke" unicode="&#x1bb;" horiz-adv-x="1685" 
d="M1528 272v-272h-1387v230l664 677h-194v209h388q90 107 130.5 191.5t40.5 168.5q0 144 -95 244.5t-252 100.5q-86 0 -151.5 -34t-103.5 -94t-56.5 -133t-18.5 -158h-308q0 105 24.5 203t77 184t127 149.5t182 100.5t235.5 37q284 0 463.5 -165t179.5 -424
q0 -174 -121 -371h174v-209h-330q-66 -77 -141 -153l-458 -470v-12h930z" />
    <glyph glyph-name="Tonefive" unicode="&#x1bc;" horiz-adv-x="1726" 
d="M531 938l-273 63l87 757h-241v276h272l2 14h1104v-283h-837l-72 -571h11q53 49 144.5 84t194.5 35q287 0 464.5 -182.5t177.5 -480.5q0 -144 -45.5 -267t-131.5 -215t-218.5 -144t-297.5 -52q-181 0 -320.5 66t-224.5 197.5t-97 314.5h305q24 -150 112 -234.5t234 -84.5
q165 0 274 117.5t109 300.5q0 102 -30.5 181.5t-84 128.5t-122.5 74t-150 25q-212 0 -346 -120z" />
    <glyph glyph-name="tonefive" unicode="&#x1bd;" horiz-adv-x="1617" 
d="M600 643l-290 19l68 554h-228v272h1231v-272h-697l-39 -294q48 29 130 52t162 25q251 4 391 -130t140 -378q0 -112 -35 -204t-106.5 -162.5t-191 -109.5t-277.5 -39q-111 0 -216.5 28t-194 81.5t-142.5 142.5t-54 201l321 23q2 -96 80.5 -152t205.5 -56q142 0 213 69.5
t71 187.5q0 117 -73 186.5t-208 69.5q-179 0 -261 -114z" />
    <glyph glyph-name="glottalstopbarinv" unicode="&#x1be;" horiz-adv-x="1535" 
d="M1058 404q0 51 -27.5 92.5t-72 72t-97.5 61.5t-106.5 71t-98 90t-72 128.5t-27.5 176.5v151h-245v241h245v361h330v-361h264v-241h-264v-148q0 -72 27.5 -127t71 -89.5t96.5 -64.5l106 -63t96.5 -73t71 -106t27.5 -152q0 -200 -165 -326t-434 -126q-148 0 -270 43
t-199 114t-118.5 159.5t-41.5 182.5h321q3 -68 31 -118.5t73.5 -78.5t97 -41t108.5 -13q128 0 200 50.5t72 133.5z" />
    <glyph glyph-name="wynn" unicode="&#x1bf;" horiz-adv-x="1791" 
d="M1547 729q0 -163 -45.5 -296t-125 -231t-205.5 -179t-267 -138.5t-330 -112.5v-344h-330v2060h305l13 -150q150 178 402 178q186 0 318.5 -95.5t198.5 -264.5t66 -397v-30zM871 1247q-205 0 -297 -174v-1041q643 173 643 697v30q0 103 -20 189.5t-61 154.5t-108.5 106
t-156.5 38z" />
    <glyph glyph-name="pipe" unicode="&#x1c0;" horiz-adv-x="765" 
d="M497 2034v-2034h-229v2034h229z" />
    <glyph glyph-name="pipedbl" unicode="&#x1c1;" horiz-adv-x="1023" 
d="M427 2034v-2034h-229v2034h229zM799 2034v-2034h-229v2034h229z" />
    <glyph glyph-name="pipedblbar" unicode="&#x1c2;" horiz-adv-x="1203" 
d="M1059 817v-209h-341v-608h-229v608h-346v209h346v455h-346v209h346v553h229v-553h341v-209h-341v-455h341z" />
    <glyph glyph-name="exclam1" unicode="&#x1c3;" horiz-adv-x="767" 
d="M547 2048l-32 -1453h-273l-31 1453h336zM378 -29q-90 0 -149.5 58.5t-59.5 145.5q0 88 59.5 148t149.5 60q88 0 148.5 -60.5t60.5 -147.5q0 -86 -60.5 -145t-148.5 -59z" />
    <glyph glyph-name="Dzcaron_" unicode="&#x1c5;" horiz-adv-x="3340" 
d="M876 0h-661v2048h680q448 0 702 -271.5t254 -749.5q0 -482 -257.5 -754.5t-717.5 -272.5zM2355 2048l229 -222l230 222h251v-15l-390 -381h-184l-388 381v15h252zM877 1770h-345v-1492h327q338 0 508.5 191.5t170.5 557.5q0 362 -168 552.5t-493 190.5zM3185 265v-265
h-1210v219l800 1052h-802v265h1193v-211l-799 -1060h818z" />
    <glyph glyph-name="dzcaron" unicode="&#x1c6;" horiz-adv-x="2977" 
d="M1503 0h-301v210h-23q-132 -239 -418 -239q-136 0 -252 54.5t-200.5 155t-132 250.5t-47.5 334t48.5 334.5t133.5 249.5t201 153t252 54q279 0 415 -238h16v730h308v-2048zM2004 2048l229 -222l230 222h251v-15l-390 -381h-184l-388 381v15h252zM2823 265v-265h-1210v219
l800 1052h-802v265h1193v-211l-799 -1060h818zM427 768q0 -240 104 -388.5t296 -148.5q96 0 170.5 40t121.5 112t71 169.5t24 215.5q0 241 -98 384t-289 143q-194 0 -297 -144.5t-103 -382.5z" />
    <glyph glyph-name="LJ" unicode="&#x1c7;" horiz-adv-x="3319" 
d="M1700 272v-272h-1229v2048h317v-1776h912zM2805 598v1450h316v-1450q0 -293 -172 -459.5t-458 -166.5q-131 0 -243.5 38t-196 109t-131.5 180t-48 242h312q1 -139 91.5 -219.5t226.5 -80.5q48 0 91 11t82.5 37.5t67.5 66.5t45 102t17 140z" />
    <glyph glyph-name="Lj" unicode="&#x1c8;" horiz-adv-x="2593" 
d="M2241 1712q-84 0 -138.5 53t-54.5 129q0 73 55 127.5t138 54.5t138 -54.5t55 -127.5q0 -76 -54.5 -129t-138.5 -53zM1700 272v-272h-1229v2048h317v-1776h912zM2088 1536h308v-1628q0 -233 -129 -360.5t-364 -127.5h-86v265h61q111 0 160.5 58.5t49.5 167.5v1625z" />
    <glyph glyph-name="lj" unicode="&#x1c9;" horiz-adv-x="1708" 
d="M1356 1712q-84 0 -138.5 53t-54.5 129q0 73 55 127.5t138 54.5t138 -54.5t55 -127.5q0 -76 -54.5 -129t-138.5 -53zM757 2048v-2048h-308v2048h308zM1203 1536h308v-1628q0 -233 -129 -360.5t-364 -127.5h-86v265h61q111 0 160.5 58.5t49.5 167.5v1625z" />
    <glyph glyph-name="NJ" unicode="&#x1ca;" horiz-adv-x="3779" 
d="M2080 2048v-2048h-309l-964 1494h-19v-1494h-317v2048h310l966 -1499h19v1499h314zM3265 598v1450h316v-1450q0 -293 -172 -459.5t-458 -166.5q-131 0 -243.5 38t-196 109t-131.5 180t-48 242h312q1 -139 91.5 -219.5t226.5 -80.5q48 0 91 11t82.5 37.5t67.5 66.5t45 102
t17 140z" />
    <glyph glyph-name="Nj" unicode="&#x1cb;" horiz-adv-x="3053" 
d="M2701 1712q-84 0 -138.5 53t-54.5 129q0 73 55 127.5t138 54.5t138 -54.5t55 -127.5q0 -76 -54.5 -129t-138.5 -53zM2080 2048v-2048h-309l-964 1494h-19v-1494h-317v2048h310l966 -1499h19v1499h314zM2548 1536h308v-1628q0 -233 -129 -360.5t-364 -127.5h-86v265h61
q111 0 160.5 58.5t49.5 167.5v1625z" />
    <glyph glyph-name="nj" unicode="&#x1cc;" horiz-adv-x="2656" 
d="M2304 1712q-84 0 -138.5 53t-54.5 129q0 73 55 127.5t138 54.5t138 -54.5t55 -127.5q0 -76 -54.5 -129t-138.5 -53zM757 879v-879h-308v1536h296v-229h16q61 113 174.5 181t267.5 68q107 0 196.5 -34.5t158.5 -104t108 -183.5t39 -263v-971h-307v955q0 151 -83.5 240
t-215.5 89q-140 0 -241 -108t-101 -297zM2151 1536h308v-1628q0 -233 -129 -360.5t-364 -127.5h-86v265h61q111 0 160.5 58.5t49.5 167.5v1625z" />
    <glyph glyph-name="Acaron" unicode="&#x1cd;" horiz-adv-x="1988" 
d="M765 2599l229 -222l230 222h251v-15l-390 -381h-184l-388 381v15h252zM411 0h-336l753 2048h333l753 -2048h-337l-172 496h-822zM982 1642l-305 -878h634l-305 878h-24z" />
    <glyph glyph-name="acaron" unicode="&#x1ce;" horiz-adv-x="1576" 
d="M567 2115l229 -222l230 222h251v-15l-390 -381h-184l-388 381v15h252zM1082 0v191h-14q-21 -40 -55 -77t-85 -71.5t-125.5 -55t-161.5 -20.5q-143 0 -258 53.5t-184.5 161.5t-69.5 253q0 94 31.5 168.5t84.5 124.5t132.5 86t165 56t192.5 31q24 3 57.5 6.5t56.5 5.5
t52 5.5t48.5 7.5t41 9t35.5 12.5t26 16.5t17.5 21t5.5 27v13q0 143 -73 210.5t-201 67.5q-133 0 -222 -60.5t-122 -149.5l-291 67q35 102 100 179.5t149.5 124t180.5 69.5t203 23q57 0 110.5 -6t113 -22.5t110.5 -42.5t98 -68t80.5 -96.5t53 -131t19.5 -168.5v-1021h-302z
M1075 536v209q-32 -37 -329 -75q-73 -9 -127.5 -25t-98.5 -43.5t-66.5 -70.5t-22.5 -101q0 -101 75 -157t198 -56q166 0 268.5 94.5t102.5 224.5z" />
    <glyph glyph-name="Icaron" unicode="&#x1cf;" horiz-adv-x="747" 
d="M133 2599l229 -222l230 222h251v-15l-390 -381h-184l-388 381v15h252zM532 2048v-2048h-317v2048h317z" />
    <glyph glyph-name="icaron" unicode="&#x1d0;" horiz-adv-x="704" 
d="M130 2107l229 -222l230 222h251v-15l-390 -381h-184l-388 381v15h252zM506 1536v-1536h-308v1536h308z" />
    <glyph glyph-name="Ocaron" unicode="&#x1d1;" horiz-adv-x="2111" 
d="M828 2599l229 -222l230 222h251v-15l-390 -381h-184l-388 381v15h252zM1958 1023q0 -241 -68 -440t-188 -332.5t-285.5 -206t-359.5 -72.5q-195 0 -361 72.5t-286.5 206t-188.5 332.5t-68 440q0 242 68 441t188.5 332.5t286.5 206.5t361 73q194 0 359.5 -73t285.5 -206.5
t188 -332.5t68 -441zM1645 1023q0 186 -45 333t-124.5 240t-186 141t-232.5 48q-127 0 -233.5 -48.5t-187 -141t-125.5 -239.5t-45 -333t45 -332.5t125.5 -239t187 -140.5t233.5 -48q126 0 232.5 48t186 140.5t124.5 239t45 332.5z" />
    <glyph glyph-name="ocaron" unicode="&#x1d2;" horiz-adv-x="1667" 
d="M594 2115l229 -222l230 222h251v-15l-390 -381h-184l-388 381v15h252zM834 -31q-211 0 -371.5 99.5t-247 279.5t-86.5 415t86.5 415t247 279t371.5 99t371.5 -99t247 -279t86.5 -415t-86.5 -415t-247 -279.5t-371.5 -99.5zM834 231q102 0 181 41.5t127 115.5t72.5 168.5
t24.5 206.5t-24.5 206.5t-72.5 168t-127 115.5t-181 42q-103 0 -182 -42t-127 -115.5t-72 -168t-24 -206.5t24 -206.5t72 -168.5t127 -115.5t182 -41.5z" />
    <glyph glyph-name="Ucaron" unicode="&#x1d3;" horiz-adv-x="2044" 
d="M793 2599l229 -222l230 222h251v-15l-390 -381h-184l-388 381v15h252zM1513 2048h317v-1355q0 -169 -62.5 -307.5t-171.5 -229.5t-255.5 -140t-316.5 -49t-317.5 49t-257 140t-172 229.5t-62.5 307.5v1355h317v-1350q0 -136 67.5 -238t178 -152.5t246.5 -50.5t245.5 50.5
t176.5 152.5t67 238v1350z" />
    <glyph glyph-name="ucaron" unicode="&#x1d4;" horiz-adv-x="1642" 
d="M586 2115l229 -222l230 222h251v-15l-390 -381h-184l-388 381v15h252zM1142 644v892h307v-1536h-296v199h-16q-67 -95 -179.5 -157t-262.5 -62q-73 0 -142.5 20.5t-135.5 66t-115 112t-79 166t-30 220.5v971h308v-966q0 -150 83 -234t216 -84q67 0 127 24.5t109 71.5
t77.5 123.5t28.5 172.5z" />
    <glyph glyph-name="Udieresismacron" unicode="&#x1d5;" horiz-adv-x="2044" 
d="M1495 2867v-216h-943v216h943zM542 2379q0 68 45 112.5t124 44.5t125 -44.5t46 -112.5q0 -67 -46 -110.5t-125 -43.5t-124 43.5t-45 110.5zM1165 2377q0 68 46 112.5t125 44.5q78 0 124 -44.5t46 -112.5q0 -67 -46 -110.5t-124 -43.5q-80 0 -125.5 43.5t-45.5 110.5z
M1513 2048h317v-1355q0 -169 -62.5 -307.5t-171.5 -229.5t-255.5 -140t-316.5 -49t-317.5 49t-257 140t-172 229.5t-62.5 307.5v1355h317v-1350q0 -136 67.5 -238t178 -152.5t246.5 -50.5t245.5 50.5t176.5 152.5t67 238v1350z" />
    <glyph glyph-name="udieresismacron" unicode="&#x1d6;" horiz-adv-x="1642" 
d="M1293 2423v-216h-944v216h944zM333 1892q0 70 46.5 116t125.5 46t126 -46t47 -116q0 -69 -47.5 -115t-125.5 -46q-79 0 -125.5 45.5t-46.5 115.5zM958 1890q0 70 47 116.5t125 46.5t125.5 -46.5t47.5 -116.5q0 -69 -47.5 -115t-125.5 -46t-125 46t-47 115zM1142 644v892
h307v-1536h-296v199h-16q-67 -95 -179.5 -157t-262.5 -62q-73 0 -142.5 20.5t-135.5 66t-115 112t-79 166t-30 220.5v971h308v-966q0 -150 83 -234t216 -84q67 0 127 24.5t109 71.5t77.5 123.5t28.5 172.5z" />
    <glyph glyph-name="Udieresisacute" unicode="&#x1d7;" horiz-adv-x="2044" 
d="M912 2491l175 294h267l-250 -294h-192zM680 2264q-44 22 -59 70t12 92q28 46 79 62t93 -6q47 -23 60 -69t-14 -93q-29 -44 -76 -60.5t-95 4.5zM1252 2264q-44 22 -58.5 70t12.5 92q28 46 78 62t93 -6q47 -23 60 -69t-14 -93q-29 -44 -76 -60.5t-95 4.5zM1513 2048h317
v-1355q0 -169 -62.5 -307.5t-171.5 -229.5t-255.5 -140t-316.5 -49t-317.5 49t-257 140t-172 229.5t-62.5 307.5v1355h317v-1350q0 -136 67.5 -238t178 -152.5t246.5 -50.5t245.5 50.5t176.5 152.5t67 238v1350z" />
    <glyph glyph-name="udieresisacute" unicode="&#x1d8;" horiz-adv-x="1642" 
d="M649 2122l267 415h377l-381 -415h-263zM333 1892q0 70 46.5 116t125.5 46t126 -46t47 -116q0 -69 -47.5 -115t-125.5 -46q-79 0 -125.5 45.5t-46.5 115.5zM958 1890q0 70 47 116.5t125 46.5t125.5 -46.5t47.5 -116.5q0 -69 -47.5 -115t-125.5 -46t-125 46t-47 115z
M1142 644v892h307v-1536h-296v199h-16q-67 -95 -179.5 -157t-262.5 -62q-73 0 -142.5 20.5t-135.5 66t-115 112t-79 166t-30 220.5v971h308v-966q0 -150 83 -234t216 -84q67 0 127 24.5t109 71.5t77.5 123.5t28.5 172.5z" />
    <glyph glyph-name="Udieresiscaron" unicode="&#x1d9;" horiz-adv-x="2044" 
d="M829 2864l192 -165l192 165h282v-23l-368 -306h-212l-365 304v25h279zM542 2379q0 68 45 112.5t124 44.5t125 -44.5t46 -112.5q0 -67 -46 -110.5t-125 -43.5t-124 43.5t-45 110.5zM1165 2377q0 68 46 112.5t125 44.5q78 0 124 -44.5t46 -112.5q0 -67 -46 -110.5
t-124 -43.5q-80 0 -125.5 43.5t-45.5 110.5zM1513 2048h317v-1355q0 -169 -62.5 -307.5t-171.5 -229.5t-255.5 -140t-316.5 -49t-317.5 49t-257 140t-172 229.5t-62.5 307.5v1355h317v-1350q0 -136 67.5 -238t178 -152.5t246.5 -50.5t245.5 50.5t176.5 152.5t67 238v1350z
" />
    <glyph glyph-name="udieresiscaron" unicode="&#x1da;" horiz-adv-x="1642" 
d="M613 2539l202 -214l201 214h281v-14l-380 -383h-203l-379 384v13h278zM333 1892q0 70 46.5 116t125.5 46t126 -46t47 -116q0 -69 -47.5 -115t-125.5 -46q-79 0 -125.5 45.5t-46.5 115.5zM958 1890q0 70 47 116.5t125 46.5t125.5 -46.5t47.5 -116.5q0 -69 -47.5 -115
t-125.5 -46t-125 46t-47 115zM1142 644v892h307v-1536h-296v199h-16q-67 -95 -179.5 -157t-262.5 -62q-73 0 -142.5 20.5t-135.5 66t-115 112t-79 166t-30 220.5v971h308v-966q0 -150 83 -234t216 -84q67 0 127 24.5t109 71.5t77.5 123.5t28.5 172.5z" />
    <glyph glyph-name="Udieresisgrave" unicode="&#x1db;" horiz-adv-x="2044" 
d="M960 2785l175 -294h-193l-250 294h268zM542 2379q0 68 45 112.5t124 44.5t125 -44.5t46 -112.5q0 -67 -46 -110.5t-125 -43.5t-124 43.5t-45 110.5zM1165 2377q0 68 46 112.5t125 44.5q78 0 124 -44.5t46 -112.5q0 -67 -46 -110.5t-124 -43.5q-80 0 -125.5 43.5
t-45.5 110.5zM1513 2048h317v-1355q0 -169 -62.5 -307.5t-171.5 -229.5t-255.5 -140t-316.5 -49t-317.5 49t-257 140t-172 229.5t-62.5 307.5v1355h317v-1350q0 -136 67.5 -238t178 -152.5t246.5 -50.5t245.5 50.5t176.5 152.5t67 238v1350z" />
    <glyph glyph-name="udieresisgrave" unicode="&#x1dc;" horiz-adv-x="1642" 
d="M720 2537l268 -415h-273l-372 415h377zM333 1892q0 70 46.5 116t125.5 46t126 -46t47 -116q0 -69 -47.5 -115t-125.5 -46q-79 0 -125.5 45.5t-46.5 115.5zM958 1890q0 70 47 116.5t125 46.5t125.5 -46.5t47.5 -116.5q0 -69 -47.5 -115t-125.5 -46t-125 46t-47 115z
M1142 644v892h307v-1536h-296v199h-16q-67 -95 -179.5 -157t-262.5 -62q-73 0 -142.5 20.5t-135.5 66t-115 112t-79 166t-30 220.5v971h308v-966q0 -150 83 -234t216 -84q67 0 127 24.5t109 71.5t77.5 123.5t28.5 172.5z" />
    <glyph glyph-name="eturn" unicode="&#x1dd;" horiz-adv-x="1535" 
d="M713 1519q158 0 288.5 -56t218 -154t136 -234t48.5 -295v-55q0 -161 -50.5 -301.5t-137 -239t-207 -155.5t-256.5 -57q-303 0 -462 182.5t-159 490.5v195h941q-14 184 -111 299.5t-267 115.5q-136 0 -232.5 -34t-184.5 -96l-107 216q86 75 222.5 126.5t319.5 51.5z
M753 240q122 0 204.5 99t107.5 258h-607v-36q0 -142 73.5 -231.5t221.5 -89.5z" />
    <glyph glyph-name="Adieresismacron" unicode="&#x1de;" horiz-adv-x="1988" 
d="M1467 2867v-216h-943v216h943zM514 2379q0 68 45 112.5t124 44.5t125 -44.5t46 -112.5q0 -67 -46 -110.5t-125 -43.5t-124 43.5t-45 110.5zM1137 2377q0 68 46 112.5t125 44.5q78 0 124 -44.5t46 -112.5q0 -67 -46 -110.5t-124 -43.5q-80 0 -125.5 43.5t-45.5 110.5z
M411 0h-336l753 2048h333l753 -2048h-337l-172 496h-822zM982 1642l-305 -878h634l-305 878h-24z" />
    <glyph glyph-name="adieresismacron" unicode="&#x1df;" horiz-adv-x="1576" 
d="M1274 2423v-216h-944v216h944zM314 1892q0 70 46.5 116t125.5 46t126 -46t47 -116q0 -69 -47.5 -115t-125.5 -46q-79 0 -125.5 45.5t-46.5 115.5zM939 1890q0 70 47 116.5t125 46.5t125.5 -46.5t47.5 -116.5q0 -69 -47.5 -115t-125.5 -46t-125 46t-47 115zM1082 0v191
h-14q-21 -40 -55 -77t-85 -71.5t-125.5 -55t-161.5 -20.5q-143 0 -258 53.5t-184.5 161.5t-69.5 253q0 94 31.5 168.5t84.5 124.5t132.5 86t165 56t192.5 31q24 3 57.5 6.5t56.5 5.5t52 5.5t48.5 7.5t41 9t35.5 12.5t26 16.5t17.5 21t5.5 27v13q0 143 -73 210.5t-201 67.5
q-133 0 -222 -60.5t-122 -149.5l-291 67q35 102 100 179.5t149.5 124t180.5 69.5t203 23q57 0 110.5 -6t113 -22.5t110.5 -42.5t98 -68t80.5 -96.5t53 -131t19.5 -168.5v-1021h-302zM1075 536v209q-32 -37 -329 -75q-73 -9 -127.5 -25t-98.5 -43.5t-66.5 -70.5t-22.5 -101
q0 -101 75 -157t198 -56q166 0 268.5 94.5t102.5 224.5z" />
    <glyph glyph-name="Adotmacron" unicode="&#x1e0;" horiz-adv-x="1988" 
d="M1467 2867v-217h-943v217h943zM825 2381q0 68 45 112.5t124 44.5t125 -44.5t46 -112.5q0 -67 -45.5 -110.5t-125.5 -43.5q-79 0 -124 43.5t-45 110.5zM411 0h-336l753 2048h333l753 -2048h-337l-172 496h-822zM982 1642l-305 -878h634l-305 878h-24z" />
    <glyph glyph-name="adotmacron" unicode="&#x1e1;" horiz-adv-x="1576" 
d="M1274 2446v-216h-944v216h944zM618 1906q0 73 47.5 120.5t130.5 47.5t131 -47.5t48 -120.5t-48 -120t-131 -47t-130.5 47t-47.5 120zM1082 0v191h-14q-21 -40 -55 -77t-85 -71.5t-125.5 -55t-161.5 -20.5q-143 0 -258 53.5t-184.5 161.5t-69.5 253q0 94 31.5 168.5
t84.5 124.5t132.5 86t165 56t192.5 31q24 3 57.5 6.5t56.5 5.5t52 5.5t48.5 7.5t41 9t35.5 12.5t26 16.5t17.5 21t5.5 27v13q0 143 -73 210.5t-201 67.5q-133 0 -222 -60.5t-122 -149.5l-291 67q35 102 100 179.5t149.5 124t180.5 69.5t203 23q57 0 110.5 -6t113 -22.5
t110.5 -42.5t98 -68t80.5 -96.5t53 -131t19.5 -168.5v-1021h-302zM1075 536v209q-32 -37 -329 -75q-73 -9 -127.5 -25t-98.5 -43.5t-66.5 -70.5t-22.5 -101q0 -101 75 -157t198 -56q166 0 268.5 94.5t102.5 224.5z" />
    <glyph glyph-name="AEmacron" unicode="&#x1e2;" horiz-adv-x="2815" 
d="M1914 2499v-214h-944v214h944zM2668 266v-266h-1213l-20 498h-734l-268 -498h-367l1155 2048h1363v-266h-894l24 -613h758v-265h-747l25 -638h918zM845 764h579l-41 998z" />
    <glyph glyph-name="aemacron" unicode="&#x1e3;" horiz-adv-x="2553" 
d="M1750 2010v-214h-944v214h944zM169 1160q35 102 100 179.5t149.5 124t180.5 69.5t202 23q166 0 287 -54.5t187 -148.5q178 203 476 203q109 0 206 -26.5t183.5 -85.5t149 -145t98.5 -213.5t36 -283.5v-99l-1072 -92q30 -184 137 -282t281 -98q266 0 350 227l284 -78
q-51 -177 -217 -294t-415 -117q-395 0 -565 315h-7q-6 -31 -29.5 -70t-68.5 -83t-104 -80t-145.5 -60t-183.5 -24q-110 0 -206 30t-170.5 87t-118 147.5t-43.5 203.5q0 94 31.5 168.5t84.5 124.5t132.5 86t165 56t192.5 31q24 3 58 6.5t57 5.5t51.5 5.5t48.5 7.5t41.5 9
t35 12.5t25.5 16.5t17.5 21t5.5 27v13q0 142 -75 207.5t-203 65.5q-132 0 -218.5 -60.5t-123.5 -152.5zM1750 1295q-170 0 -278.5 -120t-127.5 -333l780 64q0 171 -101.5 280t-272.5 109zM1077 536v209q-32 -37 -329 -75q-151 -19 -232.5 -73.5t-81.5 -166.5q0 -101 75 -157
t198 -56q165 0 267.5 94.5t102.5 224.5z" />
    <glyph glyph-name="Gbar" unicode="&#x1e4;" horiz-adv-x="2147" 
d="M1902 1042v-259q0 -60 -8 -124h206v-214h-264q-94 -221 -301 -347t-473 -126q-197 0 -364 72.5t-288 206t-189 332t-68 440.5t67.5 441t187 332.5t284 206.5t357.5 73q304 0 526 -173t313 -486l-321 -21q-61 189 -199.5 289t-318.5 100q-124 0 -229 -48.5t-184.5 -141
t-124.5 -239.5t-45 -333t45.5 -332.5t126 -239t188.5 -140.5t236 -48q129 0 237 47.5t180 134.5h-352v214h454q13 56 13 124v27h-467v232h775z" />
    <glyph glyph-name="gbar" unicode="&#x1e5;" horiz-adv-x="1743" 
d="M1202 1533h301v-639h229v-209h-229v-671q0 -148 -54 -263t-150 -186.5t-220 -108t-271 -36.5q-218 0 -376 78t-236 193l190 190l49.5 -50.5t60.5 -50.5t81.5 -50t99 -32.5t125.5 -14.5q177 0 287.5 89.5t109.5 265.5v217h-22q-132 -228 -416 -228q-133 0 -247 48.5
t-200.5 140.5t-135.5 236t-49 325q0 180 48.5 327.5t133.5 246t201 152t252 53.5q279 0 415 -238h23v215zM427 780q0 -230 104 -362.5t296 -132.5q169 0 266 105t116 295h-393v209h391q-23 185 -119.5 293t-260.5 108q-193 0 -296.5 -143t-103.5 -372z" />
    <glyph glyph-name="Gcaron" unicode="&#x1e6;" horiz-adv-x="2063" 
d="M822 2599l229 -222l230 222h251v-15l-390 -381h-184l-388 381v15h252zM1902 1042v-259q0 -182 -64.5 -334.5t-177.5 -256.5t-267 -162t-331 -58q-197 0 -364 72.5t-288 206t-189 332t-68 440.5t67.5 441t187 332.5t284 206.5t357.5 73q304 0 526 -173t313 -486l-321 -21
q-61 189 -199.5 289t-318.5 100q-124 0 -229 -48.5t-184.5 -141t-124.5 -239.5t-45 -333t45.5 -332.5t126 -239t188.5 -140.5t236 -48q232 0 382 144.5t150 375.5h-467v259h775z" />
    <glyph glyph-name="gcaron" unicode="&#x1e7;" horiz-adv-x="1696" 
d="M623 2115l229 -222l230 222h251v-15l-390 -381h-184l-388 381v15h252zM1202 1533h301v-1519q0 -148 -54 -263t-150 -186.5t-220 -108t-271 -36.5q-218 0 -376 78t-236 193l190 190l49.5 -50.5t60.5 -50.5t81.5 -50t99 -32.5t125.5 -14.5q177 0 287.5 89.5t109.5 265.5
v217h-22q-132 -228 -416 -228q-133 0 -247 48.5t-200.5 140.5t-135.5 236t-49 325q0 180 48.5 327.5t133.5 246t201 152t252 53.5q279 0 415 -238h23v215zM427 780q0 -230 104 -362.5t296 -132.5q189 0 288 131t99 364q0 232 -99 373.5t-288 141.5q-193 0 -296.5 -143
t-103.5 -372z" />
    <glyph glyph-name="Kcaron" unicode="&#x1e8;" horiz-adv-x="1904" 
d="M619 2599l229 -222l230 222h251v-15l-390 -381h-184l-388 381v15h252zM1444 0l-660 893l-252 -280v-613h-317v2048h317v-965h25l873 965h415l-863 -932l843 -1116h-381z" />
    <glyph glyph-name="kcaron" unicode="&#x1e9;" horiz-adv-x="1528" 
d="M549 2599l229 -222l230 222h251v-15l-390 -381h-184l-388 381v15h252zM1155 0l-495 686l-159 -175v-511h-308v2048h308v-1145h25l555 633h369l-586 -655l637 -881h-346z" />
    <glyph glyph-name="Oogonek" unicode="&#x1ea;" horiz-adv-x="2111" 
d="M1958 1023q0 -229 -61 -419.5t-169.5 -323t-259 -211.5t-328.5 -94q-90 -62 -138.5 -122.5t-48.5 -129.5q0 -46 22.5 -70t76.5 -24q62 0 123 33l28 -193q-96 -60 -225 -60q-127 0 -208.5 72t-81.5 201q0 179 177 309q-322 66 -517 339t-195 693q0 242 68 441t188.5 332.5
t286.5 206.5t361 73q194 0 359.5 -73t285.5 -206.5t188 -332.5t68 -441zM1645 1023q0 186 -45 333t-124.5 240t-186 141t-232.5 48q-127 0 -233.5 -48.5t-187 -141t-125.5 -239.5t-45 -333t45 -332.5t125.5 -239t187 -140.5t233.5 -48q126 0 232.5 48t186 140.5t124.5 239
t45 332.5z" />
    <glyph glyph-name="oogonek" unicode="&#x1eb;" horiz-adv-x="1667" 
d="M971 -531q-96 -60 -225 -60q-127 0 -208.5 72t-81.5 201q0 180 181 312q-236 63 -372 268t-136 501q0 235 86.5 415t247 279t371.5 99t371.5 -99t247 -279t86.5 -415q0 -336 -172.5 -551t-463.5 -240q-88 -63 -135 -121.5t-47 -127.5q0 -46 22.5 -70t76.5 -24
q62 0 123 33zM834 231q102 0 181 41.5t127 115.5t72.5 168.5t24.5 206.5t-24.5 206.5t-72.5 168t-127 115.5t-181 42q-103 0 -182 -42t-127 -115.5t-72 -168t-24 -206.5t24 -206.5t72 -168.5t127 -115.5t182 -41.5z" />
    <glyph glyph-name="Oogonekmacron" unicode="&#x1ec;" horiz-adv-x="2111" 
d="M1536 2494v-214h-944v214h944zM1958 1023q0 -229 -61 -419.5t-169.5 -323t-259 -211.5t-328.5 -94q-90 -62 -138.5 -122.5t-48.5 -129.5q0 -46 22.5 -70t76.5 -24q62 0 123 33l28 -193q-96 -60 -225 -60q-127 0 -208.5 72t-81.5 201q0 179 177 309q-322 66 -517 339
t-195 693q0 242 68 441t188.5 332.5t286.5 206.5t361 73q194 0 359.5 -73t285.5 -206.5t188 -332.5t68 -441zM1645 1023q0 186 -45 333t-124.5 240t-186 141t-232.5 48q-127 0 -233.5 -48.5t-187 -141t-125.5 -239.5t-45 -333t45 -332.5t125.5 -239t187 -140.5t233.5 -48
q126 0 232.5 48t186 140.5t124.5 239t45 332.5z" />
    <glyph glyph-name="oogonekmacron" unicode="&#x1ed;" horiz-adv-x="1667" 
d="M1302 2010v-214h-944v214h944zM971 -531q-96 -60 -225 -60q-127 0 -208.5 72t-81.5 201q0 180 181 312q-236 63 -372 268t-136 501q0 235 86.5 415t247 279t371.5 99t371.5 -99t247 -279t86.5 -415q0 -336 -172.5 -551t-463.5 -240q-88 -63 -135 -121.5t-47 -127.5
q0 -46 22.5 -70t76.5 -24q62 0 123 33zM834 231q102 0 181 41.5t127 115.5t72.5 168.5t24.5 206.5t-24.5 206.5t-72.5 168t-127 115.5t-181 42q-103 0 -182 -42t-127 -115.5t-72 -168t-24 -206.5t24 -206.5t72 -168.5t127 -115.5t182 -41.5z" />
    <glyph glyph-name="Ezhcaron" unicode="&#x1ee;" horiz-adv-x="1873" 
d="M654 2455l229 -222l230 222h251v-15l-390 -381h-184l-388 381v15h252zM132 96h343q15 -104 42.5 -175t77 -124.5t128 -78.5t189.5 -25q247 0 358 133t111 416q0 302 -117.5 432t-367.5 130h-332v220l620 702h-1018v278h1438v-217l-635 -722q355 -19 553.5 -226
t198.5 -597q0 -206 -57.5 -364t-164.5 -258t-254.5 -150.5t-332.5 -50.5q-179 0 -322 51t-238 143t-150.5 214t-69.5 269z" />
    <glyph glyph-name="ezhcaron" unicode="&#x1ef;" horiz-adv-x="1617" 
d="M589 2092l194 -195l192 195h281v-23l-369 -345h-211l-364 344v24h277zM189 1488h1246v-209l-517 -616q277 -32 426.5 -191.5t149.5 -427.5q0 -182 -90.5 -316.5t-248.5 -203t-362 -68.5q-101 0 -196 21t-181.5 67.5t-151 113.5t-103 165.5t-38.5 216.5h330
q0 -134 94.5 -227t245.5 -93q172 0 273 91.5t101 233.5q0 204 -104.5 296.5t-312.5 92.5h-199v232l482 558h-844v264z" />
    <glyph glyph-name="jcaron" unicode="&#x1f0;" horiz-adv-x="758" 
d="M179 2053l229 -222l230 222h251v-15l-390 -381h-184l-388 381v15h252zM253 1536h308v-1628q0 -233 -129 -360.5t-364 -127.5h-86v265h61q111 0 160.5 58.5t49.5 167.5v1625z" />
    <glyph glyph-name="DZ" unicode="&#x1f1;" horiz-adv-x="4040" 
d="M1132 0h-661v2048h680q448 0 702 -271.5t254 -749.5q0 -482 -257.5 -754.5t-717.5 -272.5zM3883 272v-272h-1457v209l1064 1567h-1072v272h1457v-209l-1065 -1567h1073zM1133 1770h-345v-1492h327q338 0 508.5 191.5t170.5 557.5q0 362 -168 552.5t-493 190.5z" />
    <glyph glyph-name="Dz" unicode="&#x1f2;" horiz-adv-x="3790" 
d="M1132 0h-661v2048h680q448 0 702 -271.5t254 -749.5q0 -482 -257.5 -754.5t-717.5 -272.5zM1133 1770h-345v-1492h327q338 0 508.5 191.5t170.5 557.5q0 362 -168 552.5t-493 190.5zM3636 265v-265h-1210v219l800 1052h-802v265h1193v-211l-799 -1060h818z" />
    <glyph glyph-name="Gacute" unicode="&#x1f4;" horiz-adv-x="2063" 
d="M900 2191l250 416h317l-331 -416h-236zM1902 1042v-259q0 -182 -64.5 -334.5t-177.5 -256.5t-267 -162t-331 -58q-197 0 -364 72.5t-288 206t-189 332t-68 440.5t67.5 441t187 332.5t284 206.5t357.5 73q304 0 526 -173t313 -486l-321 -21q-61 189 -199.5 289t-318.5 100
q-124 0 -229 -48.5t-184.5 -141t-124.5 -239.5t-45 -333t45.5 -332.5t126 -239t188.5 -140.5t236 -48q232 0 382 144.5t150 375.5h-467v259h775z" />
    <glyph glyph-name="gacute" unicode="&#x1f5;" horiz-adv-x="1696" 
d="M701 1707l250 416h317l-331 -416h-236zM1202 1533h301v-1519q0 -148 -54 -263t-150 -186.5t-220 -108t-271 -36.5q-218 0 -376 78t-236 193l190 190l49.5 -50.5t60.5 -50.5t81.5 -50t99 -32.5t125.5 -14.5q177 0 287.5 89.5t109.5 265.5v217h-22q-132 -228 -416 -228
q-133 0 -247 48.5t-200.5 140.5t-135.5 236t-49 325q0 180 48.5 327.5t133.5 246t201 152t252 53.5q279 0 415 -238h23v215zM427 780q0 -230 104 -362.5t296 -132.5q189 0 288 131t99 364q0 232 -99 373.5t-288 141.5q-193 0 -296.5 -143t-103.5 -372z" />
    <glyph glyph-name="uni01F6" unicode="&#x1f6;" horiz-adv-x="3082" 
d="M531 2048v-889h979v889h316v-1385q0 -205 96 -309.5t282 -104.5q369 0 369 414v858h316v-858q0 -335 -184 -513t-501 -178q-212 0 -367 78t-241 234.5t-86 378.5v227h-979v-890h-316v2048h316z" />
    <glyph glyph-name="uni01F7" unicode="&#x1f7;" horiz-adv-x="1873" 
d="M521 2004v-50q150 78 352 78q385 0 604 -219.5t219 -634.5v-72q0 -230 -85 -442.5t-238.5 -383.5t-372 -299.5t-479.5 -196.5v-356h-342v2576h342zM873 1755q-230 0 -352 -159v-1529q165 52 303 136t234.5 186.5t163 222.5t98 244t31.5 250v76q0 290 -113 431.5
t-365 141.5z" />
    <glyph glyph-name="uni01F8" unicode="&#x1f8;" horiz-adv-x="2039" 
d="M942 2607l269 -416h-276l-370 416h377zM1824 2048v-2048h-309l-964 1494h-19v-1494h-317v2048h310l966 -1499h19v1499h314z" />
    <glyph glyph-name="uni01F9" unicode="&#x1f9;" horiz-adv-x="1642" 
d="M732 2123l269 -416h-276l-370 416h377zM501 879v-879h-308v1536h296v-229h16q61 113 174.5 181t267.5 68q107 0 196.5 -34.5t158.5 -104t108 -183.5t39 -263v-971h-307v955q0 151 -83.5 240t-215.5 89q-140 0 -241 -108t-101 -297z" />
    <glyph glyph-name="Aringacute" unicode="&#x1fa;" horiz-adv-x="1988" 
d="M922 2510l223 266h311l-334 -266h-200zM411 0h-336l747 2031q-80 67 -80 174q0 104 74.5 174.5t181.5 70.5q106 0 179.5 -70.5t73.5 -174.5q0 -110 -82 -177l745 -2028h-337l-172 496h-822zM877 2205q0 -50 35.5 -83t85.5 -33t82.5 33t32.5 83q0 55 -32.5 89.5
t-82.5 34.5t-85.5 -35t-35.5 -89zM982 1642l-305 -878h634l-305 878h-24z" />
    <glyph glyph-name="aringacute" unicode="&#x1fb;" horiz-adv-x="1576" 
d="M724 2026l223 266h311l-334 -266h-200zM1082 0v191h-14q-21 -40 -55 -77t-85 -71.5t-125.5 -55t-161.5 -20.5q-143 0 -258 53.5t-184.5 161.5t-69.5 253q0 94 31.5 168.5t84.5 124.5t132.5 86t165 56t192.5 31q24 3 57.5 6.5t56.5 5.5t52 5.5t48.5 7.5t41 9t35.5 12.5
t26 16.5t17.5 21t5.5 27v13q0 143 -73 210.5t-201 67.5q-133 0 -222 -60.5t-122 -149.5l-291 67q55 160 177 254.5t288 126.5q-87 68 -87 180q0 104 74.5 174.5t181.5 70.5q106 0 179.5 -70.5t73.5 -174.5q0 -113 -86 -180q67 -13 124 -36t112.5 -65t94.5 -97.5t62.5 -138
t23.5 -183.5v-1021h-302zM679 1721q0 -50 35.5 -83t85.5 -33t82.5 33t32.5 83q0 55 -32.5 89.5t-82.5 34.5t-85.5 -35t-35.5 -89zM1075 536v209q-32 -37 -329 -75q-73 -9 -127.5 -25t-98.5 -43.5t-66.5 -70.5t-22.5 -101q0 -101 75 -157t198 -56q166 0 268.5 94.5
t102.5 224.5z" />
    <glyph glyph-name="AEacute" unicode="&#x1fc;" horiz-adv-x="2815" 
d="M1284 2196l250 416h317l-331 -416h-236zM2668 266v-266h-1213l-20 498h-734l-268 -498h-367l1155 2048h1363v-266h-894l24 -613h758v-265h-747l25 -638h918zM845 764h579l-41 998z" />
    <glyph glyph-name="aeacute" unicode="&#x1fd;" horiz-adv-x="2553" 
d="M1120 1707l250 416h317l-331 -416h-236zM169 1160q35 102 100 179.5t149.5 124t180.5 69.5t202 23q166 0 287 -54.5t187 -148.5q178 203 476 203q109 0 206 -26.5t183.5 -85.5t149 -145t98.5 -213.5t36 -283.5v-99l-1072 -92q30 -184 137 -282t281 -98q266 0 350 227
l284 -78q-51 -177 -217 -294t-415 -117q-395 0 -565 315h-7q-6 -31 -29.5 -70t-68.5 -83t-104 -80t-145.5 -60t-183.5 -24q-110 0 -206 30t-170.5 87t-118 147.5t-43.5 203.5q0 94 31.5 168.5t84.5 124.5t132.5 86t165 56t192.5 31q24 3 58 6.5t57 5.5t51.5 5.5t48.5 7.5
t41.5 9t35 12.5t25.5 16.5t17.5 21t5.5 27v13q0 142 -75 207.5t-203 65.5q-132 0 -218.5 -60.5t-123.5 -152.5zM1750 1295q-170 0 -278.5 -120t-127.5 -333l780 64q0 171 -101.5 280t-272.5 109zM1077 536v209q-32 -37 -329 -75q-151 -19 -232.5 -73.5t-81.5 -166.5
q0 -101 75 -157t198 -56q165 0 267.5 94.5t102.5 224.5z" />
    <glyph glyph-name="Oslashacute" unicode="&#x1fe;" horiz-adv-x="2111" 
d="M903 2224l250 416h317l-331 -416h-236zM429 -89l-167 114l151 223q-125 139 -192.5 335.5t-67.5 439.5q0 242 68 441t188.5 332.5t286.5 206.5t361 73q280 0 492 -145l137 202l167 -114l-151 -223q123 -138 189.5 -334.5t66.5 -438.5q0 -241 -68 -440t-188 -332.5
t-285.5 -206t-359.5 -72.5q-280 0 -491 143zM466 1023q0 -315 126 -510l790 1170q-138 102 -325 102q-127 0 -233.5 -48.5t-187 -141t-125.5 -239.5t-45 -333zM1645 1023q0 311 -122 507l-790 -1168q139 -99 324 -99q126 0 232.5 48t186 140.5t124.5 239t45 332.5z" />
    <glyph glyph-name="oslashacute" unicode="&#x1ff;" horiz-adv-x="1667" 
d="M640 1704l250 416h317l-331 -416h-236zM380 -89l-167 114l109 162q-193 220 -193 576q0 235 86.5 415t247 279t371.5 99q197 0 353 -88l98 145l167 -114l-108 -159q195 -217 195 -577q0 -235 -86.5 -415t-247 -279.5t-371.5 -99.5q-199 0 -354 90zM429 763
q0 -190 65 -321l541 800q-86 53 -201 53q-103 0 -182 -42t-127 -115.5t-72 -168t-24 -206.5zM834 231q102 0 181 41.5t127 115.5t72.5 168.5t24.5 206.5q0 191 -66 322l-541 -801q86 -53 202 -53z" />
    <glyph glyph-name="Adblgrave" unicode="&#x200;" horiz-adv-x="1988" 
d="M930 2214h-283l-412 365h358zM1339 2214h-263l-337 365h339zM411 0h-336l753 2048h333l753 -2048h-337l-172 496h-822zM982 1642l-305 -878h634l-305 878h-24z" />
    <glyph glyph-name="adblgrave" unicode="&#x201;" horiz-adv-x="1576" 
d="M732 1730h-283l-412 365h358zM1141 1730h-263l-337 365h339zM1082 0v191h-14q-21 -40 -55 -77t-85 -71.5t-125.5 -55t-161.5 -20.5q-143 0 -258 53.5t-184.5 161.5t-69.5 253q0 94 31.5 168.5t84.5 124.5t132.5 86t165 56t192.5 31q24 3 57.5 6.5t56.5 5.5t52 5.5
t48.5 7.5t41 9t35.5 12.5t26 16.5t17.5 21t5.5 27v13q0 143 -73 210.5t-201 67.5q-133 0 -222 -60.5t-122 -149.5l-291 67q35 102 100 179.5t149.5 124t180.5 69.5t203 23q57 0 110.5 -6t113 -22.5t110.5 -42.5t98 -68t80.5 -96.5t53 -131t19.5 -168.5v-1021h-302zM1075 536
v209q-32 -37 -329 -75q-73 -9 -127.5 -25t-98.5 -43.5t-66.5 -70.5t-22.5 -101q0 -101 75 -157t198 -56q166 0 268.5 94.5t102.5 224.5z" />
    <glyph glyph-name="Ainvertedbreve" unicode="&#x202;" horiz-adv-x="1988" 
d="M1437 2256h-250q0 84 -46.5 138t-144.5 54q-100 0 -147 -54t-47 -138h-248q0 173 119.5 280t322.5 107q201 0 321 -107t120 -280zM411 0h-336l753 2048h333l753 -2048h-337l-172 496h-822zM982 1642l-305 -878h634l-305 878h-24z" />
    <glyph glyph-name="ainvertedbreve" unicode="&#x203;" horiz-adv-x="1576" 
d="M1239 1772h-250q0 84 -46.5 138t-144.5 54q-100 0 -147 -54t-47 -138h-248q0 173 119.5 280t322.5 107q201 0 321 -107t120 -280zM1082 0v191h-14q-21 -40 -55 -77t-85 -71.5t-125.5 -55t-161.5 -20.5q-143 0 -258 53.5t-184.5 161.5t-69.5 253q0 94 31.5 168.5
t84.5 124.5t132.5 86t165 56t192.5 31q24 3 57.5 6.5t56.5 5.5t52 5.5t48.5 7.5t41 9t35.5 12.5t26 16.5t17.5 21t5.5 27v13q0 143 -73 210.5t-201 67.5q-133 0 -222 -60.5t-122 -149.5l-291 67q35 102 100 179.5t149.5 124t180.5 69.5t203 23q57 0 110.5 -6t113 -22.5
t110.5 -42.5t98 -68t80.5 -96.5t53 -131t19.5 -168.5v-1021h-302zM1075 536v209q-32 -37 -329 -75q-73 -9 -127.5 -25t-98.5 -43.5t-66.5 -70.5t-22.5 -101q0 -101 75 -157t198 -56q166 0 268.5 94.5t102.5 224.5z" />
    <glyph glyph-name="Edblgrave" unicode="&#x204;" horiz-adv-x="1675" 
d="M811 2214h-283l-412 365h358zM1220 2214h-263l-337 365h339zM1504 272v-272h-1289v2048h1278v-272h-961v-614h845v-273h-845v-617h972z" />
    <glyph glyph-name="edblgrave" unicode="&#x205;" horiz-adv-x="1641" 
d="M762 1730h-283l-412 365h358zM1171 1730h-263l-337 365h339zM857 -31q-337 0 -532.5 212t-195.5 571q0 176 49.5 324.5t140.5 254.5t224 165.5t294 59.5q109 0 206 -26.5t183.5 -85.5t149 -145t98.5 -213.5t36 -283.5v-129h-1079q18 -214 127.5 -328t297.5 -114
q266 0 350 227l284 -78q-25 -85 -77.5 -158t-130 -130t-187.5 -90t-238 -33zM836 1295q-158 0 -262.5 -102t-135.5 -287h772q0 171 -101.5 280t-272.5 109z" />
    <glyph glyph-name="Einvertedbreve" unicode="&#x206;" horiz-adv-x="1675" 
d="M1318 2256h-250q0 84 -46.5 138t-144.5 54q-100 0 -147 -54t-47 -138h-248q0 173 119.5 280t322.5 107q201 0 321 -107t120 -280zM1504 272v-272h-1289v2048h1278v-272h-961v-614h845v-273h-845v-617h972z" />
    <glyph glyph-name="einvertedbreve" unicode="&#x207;" horiz-adv-x="1641" 
d="M1269 1772h-250q0 84 -46.5 138t-144.5 54q-100 0 -147 -54t-47 -138h-248q0 173 119.5 280t322.5 107q201 0 321 -107t120 -280zM857 -31q-337 0 -532.5 212t-195.5 571q0 176 49.5 324.5t140.5 254.5t224 165.5t294 59.5q109 0 206 -26.5t183.5 -85.5t149 -145
t98.5 -213.5t36 -283.5v-129h-1079q18 -214 127.5 -328t297.5 -114q266 0 350 227l284 -78q-25 -85 -77.5 -158t-130 -130t-187.5 -90t-238 -33zM836 1295q-158 0 -262.5 -102t-135.5 -287h772q0 171 -101.5 280t-272.5 109z" />
    <glyph glyph-name="Idblgrave" unicode="&#x208;" horiz-adv-x="747" 
d="M298 2214h-283l-412 365h358zM707 2214h-263l-337 365h339zM532 2048v-2048h-317v2048h317z" />
    <glyph glyph-name="idblgrave" unicode="&#x209;" horiz-adv-x="704" 
d="M295 1722h-283l-412 365h358zM704 1722h-263l-337 365h339zM506 1536v-1536h-308v1536h308z" />
    <glyph glyph-name="Iinvertedbreve" unicode="&#x20a;" horiz-adv-x="747" 
d="M805 2256h-250q0 84 -46.5 138t-144.5 54q-100 0 -147 -54t-47 -138h-248q0 173 119.5 280t322.5 107q201 0 321 -107t120 -280zM532 2048v-2048h-317v2048h317z" />
    <glyph glyph-name="iinvertedbreve" unicode="&#x20b;" horiz-adv-x="704" 
d="M802 1764h-250q0 84 -46.5 138t-144.5 54q-100 0 -147 -54t-47 -138h-248q0 173 119.5 280t322.5 107q201 0 321 -107t120 -280zM506 1536v-1536h-308v1536h308z" />
    <glyph glyph-name="Odblgrave" unicode="&#x20c;" horiz-adv-x="2111" 
d="M993 2214h-283l-412 365h358zM1402 2214h-263l-337 365h339zM1958 1023q0 -241 -68 -440t-188 -332.5t-285.5 -206t-359.5 -72.5q-195 0 -361 72.5t-286.5 206t-188.5 332.5t-68 440q0 242 68 441t188.5 332.5t286.5 206.5t361 73q194 0 359.5 -73t285.5 -206.5
t188 -332.5t68 -441zM1645 1023q0 186 -45 333t-124.5 240t-186 141t-232.5 48q-127 0 -233.5 -48.5t-187 -141t-125.5 -239.5t-45 -333t45 -332.5t125.5 -239t187 -140.5t233.5 -48q126 0 232.5 48t186 140.5t124.5 239t45 332.5z" />
    <glyph glyph-name="odblgrave" unicode="&#x20d;" horiz-adv-x="1667" 
d="M759 1730h-283l-412 365h358zM1168 1730h-263l-337 365h339zM834 -31q-211 0 -371.5 99.5t-247 279.5t-86.5 415t86.5 415t247 279t371.5 99t371.5 -99t247 -279t86.5 -415t-86.5 -415t-247 -279.5t-371.5 -99.5zM834 231q102 0 181 41.5t127 115.5t72.5 168.5
t24.5 206.5t-24.5 206.5t-72.5 168t-127 115.5t-181 42q-103 0 -182 -42t-127 -115.5t-72 -168t-24 -206.5t24 -206.5t72 -168.5t127 -115.5t182 -41.5z" />
    <glyph glyph-name="Oinvertedbreve" unicode="&#x20e;" horiz-adv-x="2111" 
d="M1500 2256h-250q0 84 -46.5 138t-144.5 54q-100 0 -147 -54t-47 -138h-248q0 173 119.5 280t322.5 107q201 0 321 -107t120 -280zM1958 1023q0 -241 -68 -440t-188 -332.5t-285.5 -206t-359.5 -72.5q-195 0 -361 72.5t-286.5 206t-188.5 332.5t-68 440q0 242 68 441
t188.5 332.5t286.5 206.5t361 73q194 0 359.5 -73t285.5 -206.5t188 -332.5t68 -441zM1645 1023q0 186 -45 333t-124.5 240t-186 141t-232.5 48q-127 0 -233.5 -48.5t-187 -141t-125.5 -239.5t-45 -333t45 -332.5t125.5 -239t187 -140.5t233.5 -48q126 0 232.5 48t186 140.5
t124.5 239t45 332.5z" />
    <glyph glyph-name="oinvertedbreve" unicode="&#x20f;" horiz-adv-x="1667" 
d="M1266 1772h-250q0 84 -46.5 138t-144.5 54q-100 0 -147 -54t-47 -138h-248q0 173 119.5 280t322.5 107q201 0 321 -107t120 -280zM834 -31q-211 0 -371.5 99.5t-247 279.5t-86.5 415t86.5 415t247 279t371.5 99t371.5 -99t247 -279t86.5 -415t-86.5 -415t-247 -279.5
t-371.5 -99.5zM834 231q102 0 181 41.5t127 115.5t72.5 168.5t24.5 206.5t-24.5 206.5t-72.5 168t-127 115.5t-181 42q-103 0 -182 -42t-127 -115.5t-72 -168t-24 -206.5t24 -206.5t72 -168.5t127 -115.5t182 -41.5z" />
    <glyph glyph-name="Rdblgrave" unicode="&#x210;" horiz-adv-x="1788" 
d="M839 2214h-283l-412 365h358zM1248 2214h-263l-337 365h339zM1353 0l-394 782h-427v-782h-317v2048h717q178 0 314.5 -48t220.5 -134t126 -199.5t42 -250.5q0 -207 -93 -350.5t-265 -219.5l434 -846h-358zM532 1776v-717h381q409 0 409 353q0 59 -11.5 110t-39.5 98.5
t-71.5 81.5t-111.5 54t-156 20h-400z" />
    <glyph glyph-name="rdblgrave" unicode="&#x211;" horiz-adv-x="1123" 
d="M510 1730h-283l-412 365h358zM919 1730h-263l-337 365h339zM1096 1505l-99 -275q-61 32 -137 32q-80 0 -148.5 -34.5t-113.5 -91t-70.5 -126t-26.5 -141.5v-869h-308v1536h304v-242h18q33 113 140.5 189t232.5 76q115 0 208 -54z" />
    <glyph glyph-name="Rinvertedbreve" unicode="&#x212;" horiz-adv-x="1788" 
d="M1346 2256h-250q0 84 -46.5 138t-144.5 54q-100 0 -147 -54t-47 -138h-248q0 173 119.5 280t322.5 107q201 0 321 -107t120 -280zM1353 0l-394 782h-427v-782h-317v2048h717q178 0 314.5 -48t220.5 -134t126 -199.5t42 -250.5q0 -207 -93 -350.5t-265 -219.5l434 -846
h-358zM532 1776v-717h381q409 0 409 353q0 59 -11.5 110t-39.5 98.5t-71.5 81.5t-111.5 54t-156 20h-400z" />
    <glyph glyph-name="rinvertedbreve" unicode="&#x213;" horiz-adv-x="1123" 
d="M1017 1772h-250q0 84 -46.5 138t-144.5 54q-100 0 -147 -54t-47 -138h-248q0 173 119.5 280t322.5 107q201 0 321 -107t120 -280zM1096 1505l-99 -275q-61 32 -137 32q-80 0 -148.5 -34.5t-113.5 -91t-70.5 -126t-26.5 -141.5v-869h-308v1536h304v-242h18
q33 113 140.5 189t232.5 76q115 0 208 -54z" />
    <glyph glyph-name="Udblgrave" unicode="&#x214;" horiz-adv-x="2044" 
d="M958 2214h-283l-412 365h358zM1367 2214h-263l-337 365h339zM1513 2048h317v-1355q0 -169 -62.5 -307.5t-171.5 -229.5t-255.5 -140t-316.5 -49t-317.5 49t-257 140t-172 229.5t-62.5 307.5v1355h317v-1350q0 -136 67.5 -238t178 -152.5t246.5 -50.5t245.5 50.5
t176.5 152.5t67 238v1350z" />
    <glyph glyph-name="udblgrave" unicode="&#x215;" horiz-adv-x="1642" 
d="M751 1730h-283l-412 365h358zM1160 1730h-263l-337 365h339zM1142 644v892h307v-1536h-296v199h-16q-67 -95 -179.5 -157t-262.5 -62q-73 0 -142.5 20.5t-135.5 66t-115 112t-79 166t-30 220.5v971h308v-966q0 -150 83 -234t216 -84q67 0 127 24.5t109 71.5t77.5 123.5
t28.5 172.5z" />
    <glyph glyph-name="Uinvertedbreve" unicode="&#x216;" horiz-adv-x="2044" 
d="M1465 2256h-250q0 84 -46.5 138t-144.5 54q-100 0 -147 -54t-47 -138h-248q0 173 119.5 280t322.5 107q201 0 321 -107t120 -280zM1513 2048h317v-1355q0 -169 -62.5 -307.5t-171.5 -229.5t-255.5 -140t-316.5 -49t-317.5 49t-257 140t-172 229.5t-62.5 307.5v1355h317
v-1350q0 -136 67.5 -238t178 -152.5t246.5 -50.5t245.5 50.5t176.5 152.5t67 238v1350z" />
    <glyph glyph-name="uinvertedbreve" unicode="&#x217;" horiz-adv-x="1642" 
d="M1258 1772h-250q0 84 -46.5 138t-144.5 54q-100 0 -147 -54t-47 -138h-248q0 173 119.5 280t322.5 107q201 0 321 -107t120 -280zM1142 644v892h307v-1536h-296v199h-16q-67 -95 -179.5 -157t-262.5 -62q-73 0 -142.5 20.5t-135.5 66t-115 112t-79 166t-30 220.5v971h308
v-966q0 -150 83 -234t216 -84q67 0 127 24.5t109 71.5t77.5 123.5t28.5 172.5z" />
    <glyph glyph-name="Scommaaccent" unicode="&#x218;" horiz-adv-x="1784" 
d="M1311 1494q-20 149 -127 228.5t-283 79.5q-181 0 -293.5 -82.5t-112.5 -212.5q0 -110 95.5 -181.5t297.5 -130.5l159 -46q298 -88 442.5 -226.5t144.5 -357.5q0 -268 -201 -433t-544 -165q-328 0 -537 161t-222 444h318q12 -160 134 -245t307 -85q196 0 317.5 90.5
t121.5 231.5q0 120 -94 191.5t-319 139.5l-184 53q-543 159 -543 555q0 169 94.5 300.5t258 202t366.5 70.5q307 0 502.5 -161.5t205.5 -420.5h-304zM1030 -148v-158q-2 -152 -45.5 -302t-125.5 -258l-208 63q113 263 113 486v169h266z" />
    <glyph glyph-name="scommaaccent" unicode="&#x219;" horiz-adv-x="1489" 
d="M1330 1157l-279 -48q-10 35 -29.5 67.5t-53.5 65.5t-89 52.5t-124 19.5q-122 0 -205.5 -57t-83.5 -143q0 -72 60 -124.5t170 -78.5l255 -59q196 -45 300 -149t104 -260q0 -208 -172.5 -341t-455.5 -133q-137 0 -247 32t-185.5 91t-125 134t-75.5 167l289 62
q37 -111 125 -176.5t226 -65.5q136 0 221.5 60t85.5 146q0 73 -52 115.5t-153 66.5l-262 63q-200 49 -307.5 160t-107.5 271q0 207 168.5 334t435.5 127q234 0 375 -103t192 -296zM889 -128v-158q-2 -152 -45.5 -302t-125.5 -258l-208 63q113 263 113 486v169h266z" />
    <glyph glyph-name="uni021A" unicode="&#x21a;" horiz-adv-x="1812" 
d="M1694 2048v-272h-630v-1776h-316v1776h-630v272h1576zM1037 -119v-158q-2 -152 -45.5 -302t-125.5 -258l-208 63q113 263 113 486v169h266z" />
    <glyph glyph-name="uni021B" unicode="&#x21b;" horiz-adv-x="1015" 
d="M886 1536v-252h-300v-830q0 -62 14 -103.5t41.5 -61.5t56.5 -27.5t69 -7.5q48 0 101 12l55 -253q-85 -33 -220 -33q-82 0 -157.5 27t-135.5 77.5t-96 130.5t-36 178v891h-213v252h213v328h308v-328h300zM738 -124v-158q-2 -152 -45.5 -302t-125.5 -258l-208 63
q113 263 113 486v169h266z" />
    <glyph glyph-name="uni021C" unicode="&#x21c;" horiz-adv-x="1791" 
d="M305 434v253q170 51 296.5 97.5t237 99.5t184.5 110t127 125t77.5 147.5t24.5 174.5q0 140 -95.5 226.5t-290.5 86.5q-147 0 -250 -78.5t-103 -205.5h-341q0 127 56 234t151 178t221 110t266 39q222 0 384 -64.5t251.5 -194t89.5 -312.5q0 -286 -221 -513
q252 -146 252 -489q0 -157 -44 -290.5t-129 -238t-199.5 -188.5t-266 -148.5t-316.5 -110.5t-362 -82v273q240 48 415.5 114t303.5 160.5t191.5 223t63.5 293.5q0 124 -27.5 198.5t-87.5 116.5q-319 -211 -859 -345z" />
    <glyph glyph-name="uni021D" unicode="&#x21d;" horiz-adv-x="1535" 
d="M308 260v241q119 32 214.5 67t189 85t156.5 106.5t102 133t39 164.5t-58.5 145.5t-185.5 57.5q-114 0 -189.5 -54.5t-75.5 -138.5h-328q0 135 79.5 238.5t211.5 157t293 53.5q272 0 427 -113t155 -323q0 -226 -175 -410q98 -65 150.5 -170t52.5 -241q0 -183 -71 -328
t-209.5 -249t-331 -173t-446.5 -109v252q146 39 252.5 77.5t200.5 91.5t151.5 115t90.5 146t33 188q0 148 -69 243q-257 -163 -659 -253z" />
    <glyph glyph-name="uni021E" unicode="&#x21e;" horiz-adv-x="2042" 
d="M814 2599l229 -222l230 222h251v-15l-390 -381h-184l-388 381v15h252zM532 2048v-886h978v886h317v-2048h-317v889h-978v-889h-317v2048h317z" />
    <glyph glyph-name="uni021F" unicode="&#x21f;" horiz-adv-x="1628" 
d="M664 2640l229 -222l230 222h251v-15l-390 -381h-184l-388 381v15h252zM501 892v-892h-308v2048h303v-711h16q65 96 176.5 157.5t259.5 61.5q220 0 353.5 -151t133.5 -434v-971h-307v972q0 147 -74.5 229.5t-209.5 82.5q-146 0 -244.5 -101.5t-98.5 -290.5z" />
    <glyph glyph-name="uni0220" unicode="&#x220;" horiz-adv-x="1791" 
d="M1628 -572h-332v1950q0 195 -102.5 290t-292.5 95q-227 0 -406 -110v-1653h-327v2004h327v-81q202 109 425 109q144 0 271 -42.5t225 -122.5t155 -206t57 -283v-1950z" />
    <glyph glyph-name="uni0221" unicode="&#x221;" horiz-adv-x="2124" 
d="M2115 -211q0 -169 -116.5 -271t-322.5 -102q-167 0 -272 67t-153 182l-210 -204l-163 193l331 310v246h-6q-132 -239 -417 -239q-137 0 -253 54.5t-200.5 155t-132 250.5t-47.5 334t48.5 334.5t133.5 249.5t201 153t252 54q279 0 415 -238h16v730h308v-1911q84 21 175 21
q187 0 300 -100.5t113 -268.5zM452 768q0 -240 103.5 -388.5t295.5 -148.5q127 0 216 70t130.5 189t41.5 278q0 158 -41 274.5t-129.5 184.5t-217.5 68q-194 0 -296.5 -144.5t-102.5 -382.5zM1512 -192q0 -71 47 -118t119 -47q65 0 106.5 39t41.5 103t-43.5 99.5
t-116.5 35.5q-78 0 -154 -39v-73z" />
    <glyph glyph-name="uni0222" unicode="&#x222;" horiz-adv-x="1791" 
d="M872 1264h48q94 0 165.5 13t128 42t86.5 82t30 128q0 106 -52.5 159t-167.5 82v262q123 -4 223.5 -36t177.5 -92t119.5 -155.5t42.5 -219.5q0 -289 -261 -420q260 -165 260 -494q0 -126 -37.5 -230.5t-105.5 -180.5t-163 -128.5t-209.5 -78t-244.5 -25.5h-31
q-164 0 -301.5 41t-240.5 119.5t-161 201t-58 277.5q0 167 68 292.5t192 205.5q-260 132 -260 420q0 124 42.5 219.5t119.5 155.5t177.5 92t222.5 36v-262q-115 -28 -167 -81t-52 -160q0 -75 30 -128t87 -82t128 -42t164 -13zM912 983h-31q-196 0 -307 -95t-111 -277
q0 -178 110.5 -269.5t307.5 -91.5h31q198 0 307.5 92t109.5 273q0 178 -110.5 273t-306.5 95z" />
    <glyph glyph-name="uni0223" unicode="&#x223;" horiz-adv-x="1791" 
d="M920 1244q95 0 168 16.5t130.5 53t88 100.5t30.5 155q0 129 -57 203.5t-170 118.5v249q161 -4 285 -69.5t197 -194t73 -304.5q0 -325 -264 -466q264 -161 264 -494q0 -156 -57 -279.5t-158.5 -201.5t-238 -118.5t-299.5 -40.5h-31q-164 0 -300.5 40.5t-238.5 118.5
t-159 200.5t-57 277.5q0 335 265 497q-265 141 -265 466q0 176 73.5 304.5t197.5 194t285 69.5v-249q-114 -44 -170 -118t-56 -204q0 -325 416 -325h48zM912 981h-31q-198 0 -311.5 -96t-113.5 -276t113.5 -276t311.5 -96h31q197 0 310 96.5t113 278.5q0 178 -113.5 273.5
t-309.5 95.5z" />
    <glyph glyph-name="uni0224" unicode="&#x224;" horiz-adv-x="1780" 
d="M1615 1839l-1063 -1567h629q216 0 339.5 -122t123.5 -329v-143h-273v86q0 236 -190 236h-1015v209l1063 1567h-1071v272h1457v-209z" />
    <glyph glyph-name="zhook" unicode="&#x225;" horiz-adv-x="1528" 
d="M1357 1325l-800 -1060h403q218 0 340.5 -124t122.5 -328v-153h-264v86q0 254 -199 254h-794v219l802 1052h-804v265h1193v-211z" />
    <glyph glyph-name="uni0226" unicode="&#x226;" horiz-adv-x="1988" 
d="M817 2404q0 75 47 122.5t130 47.5t131 -47.5t48 -122.5q0 -72 -48 -118t-131 -46t-130 46t-47 118zM411 0h-336l753 2048h333l753 -2048h-337l-172 496h-822zM982 1642l-305 -878h634l-305 878h-24z" />
    <glyph glyph-name="uni0227" unicode="&#x227;" horiz-adv-x="1576" 
d="M619 1920q0 75 47 122.5t130 47.5t131 -47.5t48 -122.5q0 -72 -48 -118t-131 -46t-130 46t-47 118zM1082 0v191h-14q-21 -40 -55 -77t-85 -71.5t-125.5 -55t-161.5 -20.5q-143 0 -258 53.5t-184.5 161.5t-69.5 253q0 94 31.5 168.5t84.5 124.5t132.5 86t165 56t192.5 31
q24 3 57.5 6.5t56.5 5.5t52 5.5t48.5 7.5t41 9t35.5 12.5t26 16.5t17.5 21t5.5 27v13q0 143 -73 210.5t-201 67.5q-133 0 -222 -60.5t-122 -149.5l-291 67q35 102 100 179.5t149.5 124t180.5 69.5t203 23q57 0 110.5 -6t113 -22.5t110.5 -42.5t98 -68t80.5 -96.5t53 -131
t19.5 -168.5v-1021h-302zM1075 536v209q-32 -37 -329 -75q-73 -9 -127.5 -25t-98.5 -43.5t-66.5 -70.5t-22.5 -101q0 -101 75 -157t198 -56q166 0 268.5 94.5t102.5 224.5z" />
    <glyph glyph-name="uni0228" unicode="&#x228;" horiz-adv-x="1675" 
d="M1504 272v-272h-493l-12 -56q88 -14 147.5 -71t59.5 -165q0 -140 -115.5 -223.5t-330.5 -83.5l-9 188q189 0 189 120q0 62 -46 86t-161 33l39 172h-557v2048h1278v-272h-961v-614h845v-273h-845v-617h972z" />
    <glyph glyph-name="uni0229" unicode="&#x229;" horiz-adv-x="1641" 
d="M1145 -308q0 -140 -115.5 -223.5t-330.5 -83.5l-9 188q189 0 189 120q0 62 -46 86t-161 33l38 169q-272 45 -426.5 250t-154.5 521q0 176 49.5 324.5t140.5 254.5t224 165.5t294 59.5q109 0 206 -26.5t183.5 -85.5t149 -145t98.5 -213.5t36 -283.5v-129h-1079
q18 -214 127.5 -328t297.5 -114q266 0 350 227l284 -78q-46 -160 -187 -272.5t-356 -134.5l-9 -45q88 -14 147.5 -71t59.5 -165zM836 1295q-158 0 -262.5 -102t-135.5 -287h772q0 171 -101.5 280t-272.5 109z" />
    <glyph glyph-name="uni022A" unicode="&#x22a;" horiz-adv-x="2111" 
d="M1530 2867v-216h-943v216h943zM577 2379q0 68 45 112.5t124 44.5t125 -44.5t46 -112.5q0 -67 -46 -110.5t-125 -43.5t-124 43.5t-45 110.5zM1200 2377q0 68 46 112.5t125 44.5q78 0 124 -44.5t46 -112.5q0 -67 -46 -110.5t-124 -43.5q-80 0 -125.5 43.5t-45.5 110.5z
M1958 1023q0 -241 -68 -440t-188 -332.5t-285.5 -206t-359.5 -72.5q-195 0 -361 72.5t-286.5 206t-188.5 332.5t-68 440q0 242 68 441t188.5 332.5t286.5 206.5t361 73q194 0 359.5 -73t285.5 -206.5t188 -332.5t68 -441zM1645 1023q0 186 -45 333t-124.5 240t-186 141
t-232.5 48q-127 0 -233.5 -48.5t-187 -141t-125.5 -239.5t-45 -333t45 -332.5t125.5 -239t187 -140.5t233.5 -48q126 0 232.5 48t186 140.5t124.5 239t45 332.5z" />
    <glyph glyph-name="uni022B" unicode="&#x22b;" horiz-adv-x="1667" 
d="M1301 2423v-216h-944v216h944zM341 1892q0 70 46.5 116t125.5 46t126 -46t47 -116q0 -69 -47.5 -115t-125.5 -46q-79 0 -125.5 45.5t-46.5 115.5zM966 1890q0 70 47 116.5t125 46.5t125.5 -46.5t47.5 -116.5q0 -69 -47.5 -115t-125.5 -46t-125 46t-47 115zM834 -31
q-211 0 -371.5 99.5t-247 279.5t-86.5 415t86.5 415t247 279t371.5 99t371.5 -99t247 -279t86.5 -415t-86.5 -415t-247 -279.5t-371.5 -99.5zM834 231q102 0 181 41.5t127 115.5t72.5 168.5t24.5 206.5t-24.5 206.5t-72.5 168t-127 115.5t-181 42q-103 0 -182 -42
t-127 -115.5t-72 -168t-24 -206.5t24 -206.5t72 -168.5t127 -115.5t182 -41.5z" />
    <glyph glyph-name="uni022C" unicode="&#x22c;" horiz-adv-x="2111" 
d="M1530 2871v-216h-943v216h943zM1310 2518l140 -40q0 -103 -65 -176.5t-163 -73.5q-49 0 -94 15t-73 33.5t-67 33.5t-79 15q-42 0 -71 -34.5t-29 -84.5l-141 37q0 102 64.5 178t162.5 76q62 0 159 -48.5t154 -48.5q42 0 72 34t30 84zM1958 1023q0 -241 -68 -440
t-188 -332.5t-285.5 -206t-359.5 -72.5q-195 0 -361 72.5t-286.5 206t-188.5 332.5t-68 440q0 242 68 441t188.5 332.5t286.5 206.5t361 73q194 0 359.5 -73t285.5 -206.5t188 -332.5t68 -441zM1645 1023q0 186 -45 333t-124.5 240t-186 141t-232.5 48q-127 0 -233.5 -48.5
t-187 -141t-125.5 -239.5t-45 -333t45 -332.5t125.5 -239t187 -140.5t233.5 -48q126 0 232.5 48t186 140.5t124.5 239t45 332.5z" />
    <glyph glyph-name="uni022D" unicode="&#x22d;" horiz-adv-x="1667" 
d="M1301 2477v-216h-944v216h944zM1124 2110l203 -17q0 -153 -88 -252.5t-219 -99.5q-61 0 -113.5 19.5t-84 42.5t-78 42.5t-95.5 19.5q-53 0 -89 -40.5t-36 -102.5l-203 11q0 152 87.5 254.5t218.5 102.5q50 0 101 -19.5t87 -42.5t85.5 -42.5t96.5 -19.5q54 0 90.5 40
t36.5 104zM834 -31q-211 0 -371.5 99.5t-247 279.5t-86.5 415t86.5 415t247 279t371.5 99t371.5 -99t247 -279t86.5 -415t-86.5 -415t-247 -279.5t-371.5 -99.5zM834 231q102 0 181 41.5t127 115.5t72.5 168.5t24.5 206.5t-24.5 206.5t-72.5 168t-127 115.5t-181 42
q-103 0 -182 -42t-127 -115.5t-72 -168t-24 -206.5t24 -206.5t72 -168.5t127 -115.5t182 -41.5z" />
    <glyph glyph-name="uni022E" unicode="&#x22e;" horiz-adv-x="2111" 
d="M880 2404q0 75 47 122.5t130 47.5t131 -47.5t48 -122.5q0 -72 -48 -118t-131 -46t-130 46t-47 118zM1958 1023q0 -241 -68 -440t-188 -332.5t-285.5 -206t-359.5 -72.5q-195 0 -361 72.5t-286.5 206t-188.5 332.5t-68 440q0 242 68 441t188.5 332.5t286.5 206.5t361 73
q194 0 359.5 -73t285.5 -206.5t188 -332.5t68 -441zM1645 1023q0 186 -45 333t-124.5 240t-186 141t-232.5 48q-127 0 -233.5 -48.5t-187 -141t-125.5 -239.5t-45 -333t45 -332.5t125.5 -239t187 -140.5t233.5 -48q126 0 232.5 48t186 140.5t124.5 239t45 332.5z" />
    <glyph glyph-name="uni022F" unicode="&#x22f;" horiz-adv-x="1667" 
d="M646 1920q0 75 47 122.5t130 47.5t131 -47.5t48 -122.5q0 -72 -48 -118t-131 -46t-130 46t-47 118zM834 -31q-211 0 -371.5 99.5t-247 279.5t-86.5 415t86.5 415t247 279t371.5 99t371.5 -99t247 -279t86.5 -415t-86.5 -415t-247 -279.5t-371.5 -99.5zM834 231
q102 0 181 41.5t127 115.5t72.5 168.5t24.5 206.5t-24.5 206.5t-72.5 168t-127 115.5t-181 42q-103 0 -182 -42t-127 -115.5t-72 -168t-24 -206.5t24 -206.5t72 -168.5t127 -115.5t182 -41.5z" />
    <glyph glyph-name="uni0230" unicode="&#x230;" horiz-adv-x="2111" 
d="M1530 2867v-217h-943v217h943zM888 2381q0 68 45 112.5t124 44.5t125 -44.5t46 -112.5q0 -67 -45.5 -110.5t-125.5 -43.5q-79 0 -124 43.5t-45 110.5zM1958 1023q0 -241 -68 -440t-188 -332.5t-285.5 -206t-359.5 -72.5q-195 0 -361 72.5t-286.5 206t-188.5 332.5
t-68 440q0 242 68 441t188.5 332.5t286.5 206.5t361 73q194 0 359.5 -73t285.5 -206.5t188 -332.5t68 -441zM1645 1023q0 186 -45 333t-124.5 240t-186 141t-232.5 48q-127 0 -233.5 -48.5t-187 -141t-125.5 -239.5t-45 -333t45 -332.5t125.5 -239t187 -140.5t233.5 -48
q126 0 232.5 48t186 140.5t124.5 239t45 332.5z" />
    <glyph glyph-name="uni0231" unicode="&#x231;" horiz-adv-x="1667" 
d="M1301 2446v-216h-944v216h944zM645 1906q0 73 47.5 120.5t130.5 47.5t131 -47.5t48 -120.5t-48 -120t-131 -47t-130.5 47t-47.5 120zM834 -31q-211 0 -371.5 99.5t-247 279.5t-86.5 415t86.5 415t247 279t371.5 99t371.5 -99t247 -279t86.5 -415t-86.5 -415t-247 -279.5
t-371.5 -99.5zM834 231q102 0 181 41.5t127 115.5t72.5 168.5t24.5 206.5t-24.5 206.5t-72.5 168t-127 115.5t-181 42q-103 0 -182 -42t-127 -115.5t-72 -168t-24 -206.5t24 -206.5t72 -168.5t127 -115.5t182 -41.5z" />
    <glyph glyph-name="uni0232" unicode="&#x232;" horiz-adv-x="1967" 
d="M1463 2494v-214h-944v214h944zM427 2048l545 -928h24l544 928h355l-753 -1224v-824h-317v824l-753 1224h355z" />
    <glyph glyph-name="uni0233" unicode="&#x233;" horiz-adv-x="1600" 
d="M1264 2010v-214h-944v214h944zM606 -111l42 112l-565 1535h325l383 -1124h18l383 1124h325l-655 -1775q-62 -166 -181.5 -262t-298.5 -96q-113 0 -191 33l72 254q137 -35 211 6t132 193z" />
    <glyph glyph-name="lcurl" unicode="&#x234;" horiz-adv-x="1045" 
d="M501 2048v-1899q101 31 190 31q172 0 282.5 -105.5t110.5 -267.5q0 -165 -114.5 -274t-303.5 -109q-148 0 -259 70t-167 189l-210 -204l-172 188l275 267q29 27 60 51v2063h308zM501 -175q0 -70 47 -117t119 -47q60 0 98.5 40.5t38.5 101.5q0 59 -41 96.5t-108 37.5
q-81 0 -154 -39v-73z" />
    <glyph glyph-name="ncurl" unicode="&#x235;" horiz-adv-x="2023" 
d="M501 879v-879h-308v1536h296v-229h16q61 113 174.5 181t267.5 68q107 0 196.5 -34.5t158.5 -104t108 -183.5t39 -263v-664q102 31 191 31q171 0 281.5 -105.5t110.5 -267.5q0 -165 -114.5 -274t-303.5 -109q-149 0 -259.5 70t-165.5 189l-210 -205l-172 188l275 268
q28 27 60 51v812q0 151 -83.5 240t-215.5 89q-140 0 -241 -108t-101 -297zM1449 -17q0 -70 47.5 -117t119.5 -47q60 0 98.5 40.5t38.5 101.5q0 59 -41 96.5t-108 37.5q-80 0 -155 -39v-73z" />
    <glyph glyph-name="tcurl" unicode="&#x236;" horiz-adv-x="1222" 
d="M921 1536v-252h-300v-591q101 31 190 31q172 0 285 -105.5t113 -267.5q0 -164 -117 -273.5t-306 -109.5q-148 0 -259 70t-167 189l-209 -204l-173 188l275 267q29 27 60 51v755h-229v252h229v328h308v-328h300zM621 369q0 -70 47 -117t119 -47q61 0 101.5 41t40.5 101
q0 59 -43 96.5t-111 37.5q-79 0 -154 -39v-73z" />
    <glyph glyph-name="dotlessj" unicode="&#x237;" horiz-adv-x="758" 
d="M253 1536h308v-1628q0 -233 -129 -360.5t-364 -127.5h-86v265h61q111 0 160.5 58.5t49.5 167.5v1625z" />
    <glyph glyph-name="uni0238" unicode="&#x238;" horiz-adv-x="2559" 
d="M144 728v28q0 342 159.5 551t428.5 209q236 0 382 -163v759h330v-766q148 170 392 170q187 0 319.5 -97t197.5 -266.5t65 -395.5v-28q0 -221 -65.5 -390t-197.5 -268t-315 -99q-249 0 -396 171v-143h-300l-15 153q-150 -181 -401 -181q-175 0 -308.5 98.5t-204.5 270
t-71 387.5zM2090 729v28q0 83 -10 153t-35 133.5t-63 107.5t-96.5 70t-134.5 26q-215 0 -307 -191v-617q93 -198 311 -198q91 0 157 37.5t104 105.5t56 153.5t18 191.5zM474 756v-28q0 -82 11.5 -153.5t37.5 -133t64.5 -105.5t95.5 -69t128 -25q209 0 303 187v638
q-94 180 -300 180q-89 0 -155.5 -38t-106 -106.5t-59 -155.5t-19.5 -191z" />
    <glyph glyph-name="uni0239" unicode="&#x239;" horiz-adv-x="2559" 
d="M144 729v28q0 227 68.5 397.5t203 266t319.5 95.5q247 0 396 -172l17 144h269l14 -150q150 178 402 178q186 0 319 -95.5t198.5 -264.5t65.5 -397v-30q0 -218 -66 -387.5t-198.5 -269.5t-314.5 -100q-244 0 -393 162v-706h-330v698q-148 -154 -381 -154q-182 0 -317 99.5
t-203.5 269.5t-68.5 388zM474 757v-28q0 -103 20 -190t60 -155.5t107.5 -107.5t155.5 -39q201 0 297 171v681q-95 163 -294 163q-89 0 -156.5 -39t-108.5 -108t-61 -156.5t-20 -191.5zM2087 729v30q0 82 -12.5 153.5t-39 133.5t-66.5 106.5t-98.5 69.5t-130.5 25
q-203 0 -296 -173v-663q95 -174 300 -174q89 0 156.5 39t107.5 108t59.5 155.5t19.5 189.5z" />
    <glyph glyph-name="uni023A" unicode="&#x23a;" horiz-adv-x="1988" 
d="M1780 2176l-409 -700l543 -1476h-337l-172 496h-605l-413 -708h-252l124 212h-184l753 2048h333l113 -308l255 436h251zM982 1642l-305 -878h28l380 651l-79 227h-24zM956 764h355l-132 381z" />
    <glyph glyph-name="uni023B" unicode="&#x23b;" horiz-adv-x="2028" 
d="M650 -200l-190 76l96 243q-190 132 -296.5 363.5t-106.5 537.5q0 241 68 440t188 332.5t286.5 207t361.5 73.5q131 0 255 -34l81 205l190 -76l-82 -208q148 -85 249 -226.5t140 -329.5l-312 -20q-44 189 -188 295l-544 -1381q99 -38 211 -38q191 0 332.5 103t185.5 292
l313 -20q-43 -207 -162.5 -359t-291.5 -229.5t-377 -77.5q-169 0 -319 55zM466 1020q0 -406 205 -609l533 1354q-73 17 -147 17q-128 0 -235 -48.5t-187 -142t-124.5 -240t-44.5 -331.5z" />
    <glyph glyph-name="uni023C" unicode="&#x23c;" horiz-adv-x="1542" 
d="M1416 1062l-295 -26q-24 96 -85 160l-360 -950q51 -15 111 -15q126 0 213 66t118 183l296 -24q-38 -217 -206.5 -352t-420.5 -135q-111 0 -205 27l-216 -568h-210l247 649q-153 101 -237 280.5t-84 410.5q0 172 50 317.5t140.5 249.5t222.5 162.5t290 58.5q94 0 173 -19
l178 467h207l-204 -537q112 -64 183.5 -168.5t93.5 -236.5zM382 768q0 -271 126 -415l356 935q-34 7 -77 7q-189 0 -297 -143t-108 -384z" />
    <glyph glyph-name="L_bar" unicode="&#x23d;" horiz-adv-x="1661" 
d="M953 1181v-209h-347v-700h912v-272h-1229v972h-252v209h252v867h317v-867h347z" />
    <glyph glyph-name="uni023E" unicode="&#x23e;" horiz-adv-x="1813" 
d="M520 -155l-188 85l419 957v889h-630v272h1138l93 212l188 -84l-56 -128h212v-272h-331l-299 -683v-1093h-315v373zM1066 1776v-169l74 169h-74z" />
    <glyph glyph-name="uni023F" unicode="&#x23f;" horiz-adv-x="1446" 
d="M1330 1157l-279 -48q-10 35 -29.5 67.5t-53.5 65.5t-89 52.5t-124 19.5q-122 0 -205.5 -57t-83.5 -143q0 -72 60 -124.5t170 -78.5l255 -59q196 -45 300 -149t104 -260q0 -208 -172.5 -341t-455.5 -133q-71 0 -134 9q104 -187 155.5 -245.5t112.5 -58.5q93 0 201 93
l110 -190q-166 -153 -324 -153q-141 0 -241 87t-196 257l-271 476l13 9q-37 62 -59 140l289 62q37 -111 125 -176.5t226 -65.5q136 0 221.5 60t85.5 146q0 73 -52 115.5t-153 66.5l-262 63q-200 49 -307.5 160t-107.5 271q0 207 168.5 334t435.5 127q234 0 375 -103
t192 -296z" />
    <glyph glyph-name="uni0240" unicode="&#x240;" horiz-adv-x="1525" 
d="M557 265h47q100 0 185.5 -31.5t145 -82t109.5 -111t90 -121.5t77 -111.5t79.5 -82t87.5 -31.5q100 0 197 87l110 -204q-155 -153 -332 -153q-78 0 -143.5 32t-113 82.5t-91 112l-88.5 123t-94.5 112t-120 82.5t-155.5 32h-381v219l802 1052h-804v265h1193v-211z" />
    <glyph glyph-name="uni0241" unicode="&#x241;" horiz-adv-x="1535" 
d="M578 0v655h158q343 0 343 463v165q0 74 -9 137.5t-33 125t-61.5 105t-99 70t-140.5 26.5q-135 0 -214 -80t-85 -213h-323q6 255 178 416.5t441 161.5q134 0 247 -39t193.5 -107.5t137 -163t84 -205.5t27.5 -234v-165q0 -175 -54.5 -322.5t-169.5 -255.5t-276 -147v-393
h-344z" />
    <glyph glyph-name="uni0242" unicode="&#x242;" horiz-adv-x="1535" 
d="M616 638h138q274 0 274 306q0 65 -14 118.5t-44.5 97.5t-85.5 68t-130 24q-109 0 -176.5 -82.5t-67.5 -211.5h-330q0 247 161 402.5t413 155.5q295 0 448 -152t153 -420q0 -198 -103 -326.5t-307 -162.5v-455h-329v638z" />
    <glyph glyph-name="uni0243" unicode="&#x243;" horiz-adv-x="1883" 
d="M1054 0h-772v485h-255v209h255v1354h732q164 0 292.5 -42t208.5 -117t121 -173.5t41 -216.5q0 -181 -92 -284.5t-249 -143.5v-19q78 -7 150.5 -44t130.5 -99.5t92.5 -156.5t34.5 -204q0 -120 -41.5 -219t-124.5 -173t-216.5 -115t-307.5 -41zM599 1776v-613h397
q169 0 271 84.5t102 230.5q0 132 -88 215t-270 83h-412zM943 694v-209h-344v-213h443q203 0 299.5 80.5t96.5 215.5q0 146 -103 246t-280 100h-456v-220h344z" />
    <glyph glyph-name="uni0244" unicode="&#x244;" horiz-adv-x="2167" 
d="M2136 1179v-196h-236v-290q0 -169 -62.5 -307.5t-171.5 -229.5t-255.5 -140t-316.5 -49t-317.5 49t-257 140t-172 229.5t-62.5 307.5v290h-253v196h253v869h317v-869h981v869h317v-869h236zM602 698q0 -136 67.5 -238t178 -152.5t246.5 -50.5q101 0 190 30t155.5 85
t105 139t38.5 187v285h-981v-285z" />
    <glyph glyph-name="uni0245" unicode="&#x245;" horiz-adv-x="2047" 
d="M1535 0l-512 1572l-508 -1572h-376l721 2004h327l724 -2004h-376z" />
    <glyph glyph-name="uni0246" unicode="&#x246;" horiz-adv-x="1718" 
d="M579 -221l-193 63l51 158h-222v2048h886l70 217l193 -63l-50 -154h179v-272h-267l-199 -614h350v-273h-438l-200 -617h765v-272h-853zM532 1162h282l199 614h-481v-614zM532 889v-596l193 596h-193z" />
    <glyph glyph-name="uni0247" unicode="&#x247;" horiz-adv-x="1617" 
d="M857 -31q-122 0 -227 29l-214 -574h-212l245 654q-154 97 -237 270.5t-83 403.5q0 176 49.5 324.5t140.5 254.5t224 165.5t294 59.5q84 0 158 -16l190 508h208l-214 -574q154 -85 242.5 -253t88.5 -419v-129h-629l-158 -425q62 -17 133 -17q266 0 350 227l284 -78
q-25 -85 -77.5 -158t-130 -130t-187.5 -90t-238 -33zM836 1295q-158 0 -262.5 -102t-135.5 -287h320l144 384q-35 5 -66 5zM1210 906q0 196 -129 305l-113 -305h242zM431 673q18 -208 120 -320l120 320h-240z" />
    <glyph glyph-name="uni0248" unicode="&#x248;" horiz-adv-x="1579" 
d="M989 598v374h-382v209h382v867h316v-867h218v-209h-218v-374q0 -293 -172 -459.5t-458 -166.5q-131 0 -243.5 38t-196 109t-131.5 180t-48 242h312q1 -139 91.5 -219.5t226.5 -80.5q48 0 91 11t82.5 37.5t67.5 66.5t45 102t17 140z" />
    <glyph glyph-name="uni0249" unicode="&#x249;" horiz-adv-x="953" 
d="M483 1712q-84 0 -138.5 53t-54.5 129q0 73 55 127.5t138 54.5t138 -54.5t55 -127.5q0 -76 -54.5 -129t-138.5 -53zM940 926v-209h-302v-809q0 -233 -129 -360.5t-364 -127.5h-86v265h61q111 0 160.5 58.5t49.5 167.5v806h-306v209h306v610h308v-610h302z" />
    <glyph glyph-name="Q_rthook" unicode="&#x24a;" horiz-adv-x="2169" 
d="M1938 2049v-2186q0 -186 217 -186q40 0 86 8v-248q-55 -13 -166 -13q-71 0 -134.5 14.5t-121 48.5t-99 83.5t-66 124.5t-24.5 168v398h-16q-78 -141 -226.5 -216.5t-339.5 -75.5q-199 0 -365 78t-280.5 217.5t-177.5 336t-63 428.5q0 226 63.5 419.5t177.5 332t280 217
t363 78.5q191 0 341.5 -75t225.5 -210h22v258h303zM472 1027q0 -230 69 -402.5t200.5 -267t311.5 -94.5q204 0 349 115.5t189 297.5q19 83 29.5 187.5t10.5 165.5q0 176 -40 332q-19 66 -50 126.5t-78.5 117t-106 97.5t-137.5 66t-168 25q-180 0 -313 -101t-199.5 -273
t-66.5 -392z" />
    <glyph glyph-name="qrthook" unicode="&#x24b;" horiz-adv-x="1734" 
d="M1503 1536v-1673q0 -186 217 -186q40 0 86 8v-248q-55 -13 -166 -13q-71 0 -134.5 14.5t-121 48.5t-99 83.5t-66 124.5t-24.5 168v347h-16q-132 -239 -418 -239q-136 0 -252 54.5t-200.5 155t-132 250.5t-47.5 334t48.5 334.5t133.5 249.5t201 153t252 54q279 0 415 -238
h23v218h301zM427 768q0 -240 104 -388.5t296 -148.5q96 0 170.5 40t121.5 112t71 169.5t24 215.5q0 241 -98 384t-289 143q-194 0 -297 -144.5t-103 -382.5z" />
    <glyph glyph-name="uni024C" unicode="&#x24c;" horiz-adv-x="1793" 
d="M1358 0l-394 782h-427v-782h-317v782h-215v277h215v989h717q178 0 314.5 -48t220.5 -134t126.5 -199.5t42.5 -250.5q0 -207 -93 -350t-265 -220l434 -846h-359zM537 1776v-717h381q410 0 410 353q0 59 -11.5 110t-39.5 98.5t-71.5 81.5t-112 54t-156.5 20h-400z" />
    <glyph glyph-name="uni024D" unicode="&#x24d;" horiz-adv-x="1198" 
d="M890 833v-209h-296v-624h-308v624h-312v209h312v703h304v-242h18q33 113 140.5 189t232.5 76q115 0 208 -54l-99 -275q-61 32 -137 32q-80 0 -148.5 -34.5t-113.5 -91t-70.5 -126t-26.5 -141.5v-36h296z" />
    <glyph glyph-name="uni024E" unicode="&#x24e;" horiz-adv-x="1951" 
d="M418 2048l249 -423h616l249 423h355l-260 -423h294v-185h-408l-379 -616v-824h-317v824l-379 616h-409v185h295l-260 423h354zM963 1120h24l188 320h-400z" />
    <glyph glyph-name="uni024F" unicode="&#x24f;" horiz-adv-x="1617" 
d="M663 -111l43 111l-323 877h-277v196h205l-170 463h325l158 -463h467l158 463h325l-171 -463h115v-196h-187l-411 -1116q-62 -166 -181.5 -262t-299.5 -96q-111 0 -191 33l73 254q136 -35 210 6t132 193zM849 412h17l159 465h-335z" />
    <glyph glyph-name="aturn" unicode="&#x250;" horiz-adv-x="1582" 
d="M495 1528v-191h14q21 40 55 77t85 71.5t125.5 55t161.5 20.5q143 0 258 -53.5t184.5 -161.5t69.5 -253q0 -94 -31.5 -168.5t-84.5 -124.5t-132.5 -86t-165 -56t-192.5 -31q-24 -3 -57.5 -6.5t-56.5 -5.5t-52 -5.5t-48.5 -7.5t-41 -9t-35.5 -12.5t-26 -16.5t-17.5 -21
t-5.5 -27v-13q0 -143 73 -210.5t201 -67.5q133 0 222 60.5t122 149.5l291 -67q-35 -102 -100 -179.5t-149.5 -124t-180.5 -69.5t-203 -23q-57 0 -110.5 6t-113 22.5t-110.5 42.5t-98 68t-80.5 96.5t-53 131t-19.5 168.5v1021h302zM502 992v-209q32 37 329 75q73 9 127.5 25
t98.5 43.5t66.5 70.5t22.5 101q0 101 -75 157t-198 56q-166 0 -268.5 -94.5t-102.5 -224.5z" />
    <glyph glyph-name="ascript" unicode="&#x251;" horiz-adv-x="1633" 
d="M129 702v28q0 236 65.5 414.5t198.5 281.5t317 103q269 0 410 -237l12 211h280v-1100q0 -108 26 -151t75 -43q21 0 38 7l33 -202q-66 -42 -175 -42q-113 0 -180 61t-95 193q-143 -254 -425 -254q-183 0 -315.5 94.5t-198.5 258t-66 377.5zM430 730v-28q0 -135 40 -238
t123 -164t198 -61q134 0 212 77.5t109 206.5l1 428q-30 140 -107 226t-211 86q-118 0 -202 -72.5t-123.5 -191t-39.5 -269.5z" />
    <glyph glyph-name="ascriptturn" unicode="&#x252;" horiz-adv-x="1791" 
d="M621 -1h-282v1045q0 108 -26.5 149.5t-74.5 41.5q-8 0 -20 -2t-15 -2l-32 242q68 43 174 43q221 0 292 -222q140 221 408 221q181 0 313.5 -93.5t199.5 -256t67 -374.5v-28q0 -233 -66.5 -410.5t-200 -279.5t-317.5 -102q-253 0 -393 208zM1295 763v28q0 100 -18.5 181
t-57 145t-104.5 99t-155 35q-198 0 -291 -191v-16v-612q95 -196 288 -196q89 0 155.5 41.5t105.5 115.5t58 166.5t19 203.5z" />
    <glyph glyph-name="bhook" unicode="&#x253;" horiz-adv-x="1696" 
d="M723 1823q-222 0 -222 -186v-319h18q19 33 38.5 60t55.5 62.5t77.5 59t104.5 40t136 16.5q136 0 252.5 -54t201.5 -153t133.5 -249.5t48.5 -334.5t-47.5 -334t-132 -250.5t-200.5 -155t-253 -54.5q-283 0 -415 239h-25v-210h-301v1637q0 116 37.5 203.5t102.5 137.5
t142.5 74t167.5 24q111 0 167 -13v-248q-48 8 -87 8zM1268 768q0 238 -102.5 382.5t-296.5 144.5q-129 0 -217.5 -68t-129.5 -184.5t-41 -274.5q0 -159 41.5 -278t130.5 -189t216 -70q192 0 295.5 148.5t103.5 388.5z" />
    <glyph glyph-name="oopen" unicode="&#x254;" horiz-adv-x="1535" 
d="M127 491h310q8 -111 92 -182.5t207 -71.5q81 0 142.5 27.5t99.5 72.5t62 109t33 130t9 144v48q0 77 -9.5 143.5t-34 130.5t-62.5 109.5t-99.5 73t-140.5 27.5q-132 0 -211 -84t-88 -210h-310q8 246 174.5 402t431.5 156q166 0 297.5 -59.5t213 -163t123.5 -237t42 -288.5
v-48q0 -124 -26 -234.5t-80.5 -205t-133.5 -163t-191 -107t-246 -38.5q-161 0 -298.5 70t-219.5 189.5t-87 259.5z" />
    <glyph glyph-name="ccurl" unicode="&#x255;" horiz-adv-x="1569" 
d="M834 231q117 0 200 49.5t83 131.5q0 55 -39.5 86t-89.5 31q-161 0 -399 -210q99 -88 245 -88zM1462 1062l-295 -26q-29 115 -113.5 187t-219.5 72q-189 0 -297 -142.5t-108 -384.5q0 -114 24 -207q285 225 555 225q104 0 183 -27.5t127 -76.5t72 -112t24 -139
q0 -201 -160.5 -331.5t-419.5 -130.5q-264 0 -444 153q-81 -87 -187 -216l-205 172q114 151 221 266q-90 183 -90 424q0 229 85.5 408t245.5 279.5t371 100.5q251 0 423 -135t208 -359z" />
    <glyph glyph-name="drthook" unicode="&#x256;" horiz-adv-x="1768" 
d="M1195 2048h308v-2185q0 -186 217 -186q40 0 86 8v-248q-55 -13 -166 -13q-71 0 -134.5 14.5t-121 48.5t-99 83.5t-66 124.5t-24.5 168v347h-16q-132 -239 -418 -239q-136 0 -252 54.5t-200.5 155t-132 250.5t-47.5 334t48.5 334.5t133.5 249.5t201 153t252 54
q279 0 415 -238h16v730zM427 768q0 -240 104 -388.5t296 -148.5q96 0 170.5 40t121.5 112t71 169.5t24 215.5q0 241 -98 384t-289 143q-194 0 -297 -144.5t-103 -382.5z" />
    <glyph glyph-name="dhook" unicode="&#x257;" horiz-adv-x="1761" 
d="M1503 0h-301v210h-26q-132 -239 -415 -239q-136 0 -252 54.5t-200.5 155t-132 250.5t-47.5 334t48.5 334.5t133.5 249.5t201 153t252 54q73 0 136 -16.5t104.5 -40t77.5 -59t55.5 -62.5t38.5 -60h19v321q0 94 26 169.5t70 125t103.5 83t124 48t134.5 14.5q102 0 166 -18
v-250q-32 10 -86 10q-38 0 -68 -3.5t-61.5 -15t-52.5 -31t-34.5 -53t-13.5 -79.5v-1639zM427 768q0 -240 104 -388.5t296 -148.5q96 0 170.5 40t121.5 112t71 169.5t24 215.5q0 241 -98 384t-289 143q-194 0 -297 -144.5t-103 -382.5z" />
    <glyph glyph-name="erev" unicode="&#x258;" horiz-adv-x="1535" 
d="M711 -28q-107 0 -200 23.5t-162.5 65t-120.5 89t-91 105.5l181 166q143 -184 375 -184q174 0 278.5 112t118.5 292h-975v142q0 162 39 295t115.5 231.5t199 152.5t281.5 54q140 0 262.5 -54t213.5 -152t143.5 -243.5t52.5 -318.5v-55q0 -154 -49.5 -286t-140 -228.5
t-225 -151.5t-296.5 -55zM441 883h642q-24 175 -110 272t-221 97q-81 0 -141.5 -28.5t-95 -79t-52.5 -108.5t-22 -128v-25z" />
    <glyph glyph-name="schwa" unicode="&#x259;" horiz-adv-x="1535" 
d="M713 1519q158 0 288.5 -56t218 -154t136 -234t48.5 -295v-55q0 -161 -50.5 -301.5t-137 -239t-207 -155.5t-256.5 -57q-303 0 -462 182.5t-159 490.5v195h941q-14 184 -111 299.5t-267 115.5q-136 0 -232.5 -34t-184.5 -96l-107 216q86 75 222.5 126.5t319.5 51.5z
M753 240q122 0 204.5 99t107.5 258h-607v-36q0 -142 73.5 -231.5t221.5 -89.5z" />
    <glyph glyph-name="schwahook" unicode="&#x25a;" horiz-adv-x="2129" 
d="M708 1516q251 0 426.5 -124.5t244.5 -336.5l299 61q33 -211 57 -280q39 -111 116 -130q19 -5 42 -5q56 0 83 4l42 -203q-102 -49 -193 -49q-70 0 -124.5 20t-90.5 52.5t-63.5 83.5t-43.5 101.5t-30 118.5l-55 -12v-20v-57q0 -172 -52.5 -317.5t-142.5 -243.5t-213 -152.5
t-262 -54.5q-160 0 -282.5 54.5t-199 153.5t-115.5 232t-39 296v86l945 198q-43 120 -137.5 190t-228.5 70q-234 0 -377 -185l-179 167q39 57 90 104.5t120.5 89t162.5 65t200 23.5zM438 580q0 -68 17.5 -127.5t53 -109t97.5 -78t143 -28.5q161 0 250.5 134t89.5 369v8
l-651 -132v-36z" />
    <glyph glyph-name="epsilon1" unicode="&#x25b;" horiz-adv-x="1617" 
d="M823 880h274v-238h-274q-307 0 -307 -208q0 -85 84.5 -145.5t229.5 -60.5t232.5 63t87.5 152h326q0 -95 -36 -174t-97 -133t-143 -92t-172.5 -55t-186.5 -17q-188 0 -335.5 53t-233 155.5t-85.5 239.5q0 127 72.5 215t209.5 132q-120 49 -187.5 131.5t-67.5 181.5
q0 139 79 238.5t219.5 148.5t328.5 49q168 0 306.5 -53.5t222 -157t83.5 -238.5h-327q0 83 -84.5 138t-209.5 55q-140 0 -214 -57t-74 -136q0 -87 69 -137t210 -50z" />
    <glyph glyph-name="epsilon1rev" unicode="&#x25c;" horiz-adv-x="1535" 
d="M779 642h-274v238h274q140 0 209.5 50t69.5 137q0 79 -73.5 136t-215.5 57q-125 0 -208.5 -55t-83.5 -138h-327q0 135 83.5 238.5t221.5 157t305 53.5q188 0 328.5 -49t220 -148.5t79.5 -238.5q0 -99 -68 -182t-188 -131q136 -44 208 -132t72 -215q0 -137 -85.5 -239.5
t-232.5 -155.5t-334 -53q-95 0 -185.5 17t-172.5 55t-144 92t-98.5 133t-36.5 174h330q0 -89 86.5 -152t229.5 -63q145 0 230 60.5t85 145.5q0 208 -305 208z" />
    <glyph glyph-name="epsilon1revhook" unicode="&#x25d;" horiz-adv-x="2129" 
d="M767 642h-274v238h274q140 0 209.5 50t69.5 137q0 79 -73.5 136t-215.5 57q-125 0 -208.5 -55t-83.5 -138h-327q0 135 83.5 238.5t221.5 157t305 53.5q226 0 383 -72t215 -208l334 69l14 -91t14 -79.5t17 -73l20 -58.5t25.5 -50.5t31.5 -34t40.5 -24t50.5 -6.5q50 0 83 7
l42 -204q-90 -48 -191 -48q-70 0 -125 20.5t-91 52t-63.5 83t-43.5 100.5t-31 117l-112 -24q-25 -72 -87.5 -130.5t-154.5 -94.5q136 -44 208.5 -132t72.5 -215q0 -137 -85.5 -239.5t-232.5 -155.5t-334 -53q-95 0 -185.5 17t-173 55t-144 92t-98 133t-36.5 174h330
q0 -89 86.5 -152t229.5 -63q145 0 230 60.5t85 145.5q0 208 -305 208z" />
    </font>
</defs>
</svg>
